<?xml version="1.0" encoding="utf-8"?>
<!-- Generator: Adobe Illustrator 16.0.0, SVG Export Plug-In . SVG Version: 6.00 Build 0)  -->
<!DOCTYPE svg PUBLIC "-//W3C//DTD SVG 1.1//EN" "http://www.w3.org/Graphics/SVG/1.1/DTD/svg11.dtd">
<svg version="1.1" id="레이어_1" xmlns="http://www.w3.org/2000/svg" xmlns:xlink="http://www.w3.org/1999/xlink" x="0px"
	 y="0px" width="321.865px" height="50px" viewBox="0 0 321.865 50" enable-background="new 0 0 321.865 50" xml:space="preserve">
<g enable-background="new    ">
	<path fill="#4D4D4D" d="M63.618,17.353h-4.198c-0.075,0-0.132,0.051-0.169,0.15l-1.016,2.693c-0.188,0.502-0.283,0.883-0.283,1.146
		c0,0.391,0.251,0.584,0.753,0.584h0.283c0.188,0,0.282,0.051,0.282,0.15c0,0.127-0.107,0.189-0.32,0.189
		c-0.201,0-0.537-0.01-1.007-0.029c-0.471-0.018-0.8-0.027-0.988-0.027c-1.092,0.037-1.832,0.057-2.221,0.057
		c-0.238,0-0.357-0.063-0.357-0.189c0-0.1,0.075-0.15,0.226-0.15c0.201,0,0.396-0.012,0.583-0.037
		c0.402-0.051,0.728-0.227,0.979-0.527c0.201-0.238,0.408-0.627,0.621-1.166L61.51,8.374c0.201-0.502,0.376-0.752,0.527-0.752
		c0.138,0,0.294,0.199,0.471,0.602c1.154,2.912,2.71,6.77,4.668,11.576c0.527,1.242,1.079,1.926,1.657,2.053
		c0.226,0.049,0.489,0.074,0.791,0.074c0.163,0,0.245,0.051,0.245,0.15c0,0.076-0.063,0.127-0.188,0.15
		c-0.125,0.025-0.351,0.039-0.677,0.039c-1.557,0-2.742-0.014-3.558-0.039c-0.376-0.012-0.564-0.063-0.564-0.15
		c0-0.1,0.087-0.156,0.264-0.168c0.2-0.064,0.257-0.207,0.169-0.434l-1.506-3.99C63.769,17.397,63.706,17.353,63.618,17.353z
		 M59.797,16.411h3.464c0.087,0,0.119-0.037,0.094-0.111l-1.694-4.65c-0.025-0.113-0.057-0.17-0.094-0.17
		c-0.05,0-0.088,0.057-0.113,0.17l-1.732,4.631C59.697,16.368,59.722,16.411,59.797,16.411z"/>
	<path fill="#4D4D4D" d="M74.348,16.808V9.089l-2.805,0.076c-0.991,0.025-1.6,0.207-1.826,0.545c-0.163,0.238-0.27,0.459-0.32,0.66
		c-0.038,0.15-0.107,0.225-0.207,0.225c-0.113,0-0.169-0.1-0.169-0.301c0-0.338,0.132-1.061,0.395-2.164
		c0.063-0.238,0.138-0.357,0.226-0.357c0.038,0,0.138,0.033,0.301,0.104c0.163,0.068,0.332,0.109,0.508,0.121
		c0.677,0.064,1.305,0.096,1.882,0.096h7.454c0.489,0,0.922-0.031,1.299-0.096c0.376-0.063,0.546-0.094,0.508-0.094
		c0.101,0,0.151,0.133,0.151,0.396c0,0.125-0.009,0.477-0.028,1.053c-0.019,0.578-0.035,0.961-0.047,1.148
		c-0.013,0.189-0.063,0.283-0.151,0.283c-0.113,0-0.182-0.125-0.207-0.377L81.294,10.2c-0.063-0.666-0.803-1.016-2.221-1.055
		L76.7,9.089v7.719c0,2.133,0.031,3.477,0.094,4.027c0.075,0.615,0.32,0.955,0.734,1.018c0.364,0.049,0.684,0.074,0.96,0.074
		c0.2,0,0.301,0.051,0.301,0.15c0,0.127-0.119,0.189-0.357,0.189c-0.477,0-1.061-0.01-1.75-0.029
		c-0.69-0.018-1.092-0.027-1.205-0.027c-0.113,0-0.468,0.01-1.064,0.027c-0.596,0.02-1.032,0.029-1.308,0.029
		c-0.251,0-0.376-0.063-0.376-0.189c0-0.088,0.138-0.145,0.414-0.168c0.188-0.025,0.376-0.045,0.565-0.057
		c0.289-0.063,0.471-0.408,0.546-1.035C74.316,20.265,74.348,18.929,74.348,16.808z"/>
	<path fill="#4D4D4D" d="M84.042,20.384L85.906,8.11c0.05-0.326,0.157-0.488,0.32-0.488c0.15,0,0.32,0.193,0.508,0.582l5.139,10.617
		l5.12-10.748c0.138-0.301,0.276-0.451,0.414-0.451c0.163,0,0.276,0.193,0.339,0.582l1.713,11.633
		c0.088,0.629,0.194,1.08,0.32,1.355c0.125,0.277,0.326,0.459,0.603,0.547c0.414,0.125,0.803,0.188,1.167,0.188
		c0.201,0,0.301,0.045,0.301,0.133c0,0.137-0.163,0.207-0.489,0.207c-1.594,0-2.868-0.039-3.821-0.113
		c-0.364-0.025-0.546-0.094-0.546-0.207c0-0.088,0.066-0.156,0.198-0.207s0.166-0.32,0.104-0.811l-1.129-8.281h-0.076l-4.104,8.545
		c-0.338,0.703-0.571,1.055-0.696,1.055c-0.113,0-0.333-0.314-0.659-0.941c-1.192-2.271-1.914-3.695-2.165-4.273
		c-0.427-0.928-1.08-2.32-1.958-4.178h-0.075l-0.979,7.492c-0.038,0.289-0.056,0.582-0.056,0.885c0,0.313,0.188,0.514,0.564,0.602
		c0.276,0.063,0.54,0.094,0.791,0.094c0.188,0,0.283,0.045,0.283,0.133c0,0.137-0.151,0.207-0.452,0.207
		c-0.301,0-0.687-0.01-1.157-0.029c-0.471-0.018-0.744-0.027-0.819-0.027c-0.101,0-0.38,0.01-0.838,0.027
		c-0.458,0.02-0.8,0.029-1.026,0.029c-0.226,0-0.339-0.07-0.339-0.207c0-0.088,0.101-0.133,0.301-0.133s0.389-0.018,0.565-0.057
		C83.647,21.796,83.904,21.3,84.042,20.384z"/>
	<path fill="#4D4D4D" d="M110.376,22.53c-2.485,0-4.423-0.816-5.816-2.447c-1.18-1.369-1.77-3.012-1.77-4.932
		c0-1.895,0.59-3.527,1.77-4.895c1.418-1.656,3.419-2.484,6.005-2.484c2.334,0,4.185,0.633,5.553,1.9s2.052,2.98,2.052,5.139
		c0,2.209-0.703,4.035-2.108,5.479C114.617,21.782,112.722,22.53,110.376,22.53z M111.166,21.589c1.054,0,1.945-0.332,2.673-0.998
		c1.129-1.018,1.694-2.711,1.694-5.082c0-2.059-0.534-3.727-1.6-5.008c-1.029-1.217-2.334-1.826-3.915-1.826
		c-1.293,0-2.334,0.396-3.125,1.186c-1.004,1.006-1.506,2.574-1.506,4.707c0,2.02,0.515,3.678,1.543,4.969
		C107.998,20.905,109.409,21.589,111.166,21.589z"/>
	<path fill="#4D4D4D" d="M124.004,22.53c-1.092,0-2.008-0.164-2.748-0.49c-0.239-0.1-0.357-0.314-0.357-0.641
		c0-0.678,0.031-1.498,0.094-2.465c0.025-0.326,0.101-0.49,0.226-0.49s0.188,0.107,0.188,0.32c0,0.264,0.057,0.584,0.169,0.961
		c0.376,1.268,1.274,1.9,2.692,1.9c0.791,0,1.424-0.232,1.901-0.697c0.414-0.414,0.621-0.896,0.621-1.449
		c0-1.041-0.615-2.045-1.845-3.012l-0.866-0.678c-1.857-1.455-2.786-2.941-2.786-4.461c0-1.041,0.401-1.895,1.205-2.561
		c0.803-0.664,1.851-0.996,3.144-0.996c0.816,0,1.65,0.105,2.504,0.32c0.175,0.049,0.263,0.125,0.263,0.225
		c0-0.025-0.013,0.197-0.038,0.668c-0.025,0.471-0.038,1.002-0.038,1.592c0,0.375-0.069,0.564-0.207,0.564
		c-0.125,0-0.188-0.113-0.188-0.34c0-0.426-0.163-0.84-0.489-1.242c-0.489-0.613-1.173-0.922-2.052-0.922
		c-0.69,0-1.236,0.18-1.638,0.537c-0.402,0.357-0.602,0.824-0.602,1.402c0,0.439,0.141,0.855,0.423,1.252
		c0.282,0.395,0.806,0.881,1.572,1.459l0.527,0.395c1.129,0.854,1.926,1.641,2.391,2.361c0.464,0.723,0.697,1.535,0.697,2.438
		c0,1.42-0.59,2.512-1.77,3.275C126.206,22.272,125.209,22.53,124.004,22.53z"/>
	<path fill="#4D4D4D" d="M133.246,16.808v-3.313c0-2.248-0.013-3.578-0.037-3.992c-0.038-0.602-0.308-0.959-0.81-1.072
		c-0.176-0.037-0.421-0.057-0.734-0.057c-0.214,0-0.32-0.057-0.32-0.17c0-0.111,0.139-0.168,0.414-0.168
		c0.377,0,0.888,0.008,1.534,0.027s1.038,0.029,1.177,0.029c0.251,0,0.693-0.01,1.327-0.029s1.102-0.027,1.402-0.027
		c1.581,0,2.748,0.357,3.501,1.072c0.628,0.59,0.941,1.336,0.941,2.24c0,1.33-0.437,2.422-1.309,3.275s-1.979,1.279-3.322,1.279
		c-0.201,0-0.332-0.006-0.396-0.018c-0.15-0.025-0.226-0.082-0.226-0.17c0-0.139,0.176-0.207,0.527-0.207
		c0.59,0,1.142-0.275,1.656-0.828c0.577-0.629,0.866-1.387,0.866-2.277c0-1.219-0.37-2.158-1.111-2.824
		c-0.539-0.49-1.167-0.734-1.882-0.734c-0.352,0-0.587,0.021-0.706,0.066c-0.119,0.043-0.179,0.166-0.179,0.367v7.529
		c0,2.133,0.031,3.477,0.094,4.027c0.075,0.615,0.32,0.955,0.734,1.018c0.364,0.049,0.684,0.074,0.96,0.074
		c0.201,0,0.302,0.051,0.302,0.15c0,0.127-0.12,0.189-0.358,0.189c-0.477,0-1.057-0.01-1.741-0.029
		c-0.684-0.018-1.076-0.027-1.176-0.027c-0.113,0-0.468,0.01-1.063,0.027c-0.597,0.02-1.033,0.029-1.309,0.029
		c-0.251,0-0.377-0.063-0.377-0.189c0-0.088,0.139-0.145,0.415-0.168c0.188-0.025,0.376-0.045,0.564-0.057
		c0.288-0.063,0.471-0.408,0.546-1.035C133.215,20.327,133.246,18.991,133.246,16.808z"/>
	<path fill="#4D4D4D" d="M148.041,14.021h7.19c0.075,0,0.113-0.043,0.113-0.131v-0.395c0-2.248-0.013-3.578-0.038-3.992
		c-0.037-0.602-0.308-0.959-0.809-1.072c-0.176-0.037-0.421-0.057-0.734-0.057c-0.214,0-0.32-0.057-0.32-0.17
		c0-0.111,0.132-0.168,0.396-0.168c0.376,0,0.891,0.008,1.544,0.027c0.652,0.02,1.041,0.029,1.167,0.029
		c0.125,0,0.485-0.01,1.082-0.029c0.596-0.02,1.025-0.027,1.289-0.027s0.396,0.057,0.396,0.168c0,0.113-0.113,0.17-0.339,0.17
		c-0.15,0-0.333,0.02-0.546,0.057c-0.427,0.076-0.658,0.434-0.696,1.072c-0.025,0.428-0.038,1.758-0.038,3.992v3.313
		c0,2.133,0.031,3.477,0.095,4.027c0.075,0.615,0.319,0.955,0.734,1.018c0.363,0.049,0.684,0.074,0.96,0.074
		c0.2,0,0.301,0.051,0.301,0.15c0,0.127-0.126,0.189-0.377,0.189c-0.464,0-1.041-0.01-1.731-0.029
		c-0.69-0.018-1.092-0.027-1.204-0.027c-0.113,0-0.465,0.01-1.055,0.027c-0.59,0.02-1.022,0.029-1.299,0.029
		c-0.264,0-0.396-0.063-0.396-0.189c0-0.088,0.139-0.145,0.414-0.168c0.188-0.025,0.377-0.045,0.565-0.057
		c0.288-0.063,0.471-0.408,0.546-1.035c0.063-0.49,0.094-1.826,0.094-4.01v-1.656c0-0.076-0.038-0.113-0.113-0.113h-7.19
		c-0.075,0-0.112,0.037-0.112,0.113v1.656c0,2.133,0.03,3.477,0.094,4.027c0.075,0.615,0.32,0.955,0.734,1.018
		c0.363,0.049,0.684,0.074,0.96,0.074c0.2,0,0.301,0.051,0.301,0.15c0,0.127-0.125,0.189-0.376,0.189
		c-0.465,0-1.042-0.01-1.732-0.029c-0.69-0.018-1.092-0.027-1.204-0.027c-0.113,0-0.468,0.01-1.063,0.027
		c-0.597,0.02-1.033,0.029-1.309,0.029c-0.251,0-0.377-0.063-0.377-0.189c0-0.088,0.139-0.145,0.415-0.168
		c0.188-0.025,0.376-0.045,0.564-0.057c0.288-0.063,0.471-0.408,0.546-1.035c0.063-0.49,0.094-1.826,0.094-4.01v-3.313
		c0-2.248-0.013-3.578-0.037-3.992c-0.038-0.602-0.308-0.959-0.81-1.072c-0.176-0.037-0.421-0.057-0.734-0.057
		c-0.214,0-0.32-0.057-0.32-0.17c0-0.111,0.132-0.168,0.396-0.168c0.377,0,0.891,0.008,1.544,0.027
		c0.652,0.02,1.041,0.029,1.167,0.029c0.125,0,0.486-0.01,1.082-0.029s1.026-0.027,1.289-0.027c0.264,0,0.396,0.057,0.396,0.168
		c0,0.113-0.112,0.17-0.339,0.17c-0.15,0-0.332,0.02-0.546,0.057c-0.427,0.076-0.658,0.434-0.696,1.072
		c-0.025,0.428-0.037,1.758-0.037,3.992v0.395C147.928,13.978,147.966,14.021,148.041,14.021z"/>
	<path fill="#4D4D4D" d="M163.871,16.808v-3.313c0-2.248-0.013-3.578-0.037-3.992c-0.038-0.602-0.308-0.959-0.81-1.072
		c-0.176-0.037-0.421-0.057-0.734-0.057c-0.214,0-0.32-0.057-0.32-0.17c0-0.111,0.139-0.168,0.414-0.168
		c0.377,0,0.888,0.008,1.534,0.027s1.038,0.029,1.177,0.029c2.975,0,4.543-0.008,4.706-0.02c0.326-0.025,0.596-0.063,0.81-0.113
		c0.213-0.051,0.313-0.074,0.301-0.074c0.075,0,0.113,0.055,0.113,0.168c0,0.014-0.02,0.127-0.057,0.34
		c-0.038,0.25-0.066,0.545-0.085,0.885c-0.019,0.338-0.054,0.752-0.104,1.242c-0.025,0.139-0.088,0.207-0.188,0.207
		c-0.088,0-0.141-0.068-0.159-0.207c-0.02-0.139-0.035-0.27-0.048-0.396c-0.013-0.125-0.037-0.238-0.075-0.338
		c-0.15-0.363-0.571-0.59-1.261-0.678c-0.427-0.051-1.317-0.076-2.673-0.076c-0.088,0-0.132,0.064-0.132,0.189v4.762
		c0,0.139,0.044,0.207,0.132,0.207c1.706,0,2.71-0.012,3.012-0.037c0.213-0.012,0.376-0.031,0.489-0.057
		c0.188-0.051,0.326-0.125,0.414-0.227c0.15-0.162,0.251-0.244,0.301-0.244c0.088,0,0.132,0.051,0.132,0.15
		c0,0.014-0.019,0.139-0.056,0.377c-0.038,0.289-0.069,0.621-0.095,0.998c-0.05,0.715-0.075,1.135-0.075,1.26
		c0,0.238-0.057,0.357-0.169,0.357c-0.113,0-0.17-0.064-0.17-0.197c0-0.131-0.025-0.348-0.075-0.648
		c-0.101-0.428-0.452-0.672-1.054-0.734c-0.352-0.037-1.243-0.057-2.674-0.057c-0.075,0-0.112,0.063-0.112,0.188v4.406
		c0.024,0.664,0.172,1.094,0.442,1.289c0.27,0.193,0.875,0.291,1.816,0.291c0.854,0,1.442-0.074,1.77-0.227
		c0.438-0.199,0.722-0.664,0.847-1.393c0.038-0.188,0.106-0.281,0.207-0.281s0.15,0.113,0.15,0.338c0,0.766-0.081,1.463-0.244,2.09
		c-0.063,0.227-0.15,0.363-0.264,0.414s-0.364,0.076-0.753,0.076c-1.092,0-2.178-0.02-3.257-0.057
		c-1.079-0.039-1.731-0.057-1.957-0.057c-0.113,0-0.468,0.01-1.063,0.027c-0.597,0.02-1.033,0.029-1.309,0.029
		c-0.251,0-0.377-0.063-0.377-0.189c0-0.088,0.139-0.145,0.415-0.168c0.188-0.025,0.376-0.045,0.564-0.057
		c0.288-0.063,0.471-0.408,0.546-1.035C163.84,20.327,163.871,18.991,163.871,16.808z"/>
	<path fill="#4D4D4D" d="M175.768,16.808v-3.313c0-2.248-0.014-3.578-0.037-3.992c-0.039-0.602-0.308-0.959-0.81-1.072
		c-0.176-0.037-0.421-0.057-0.734-0.057c-0.214,0-0.32-0.057-0.32-0.17c0-0.111,0.139-0.168,0.414-0.168
		c0.39,0,0.897,0.008,1.525,0.027c0.627,0.02,0.979,0.029,1.055,0.029c0.213,0,0.662-0.01,1.346-0.029s1.119-0.027,1.309-0.027
		c1.518,0,2.672,0.27,3.463,0.809c0.314,0.213,0.59,0.533,0.828,0.961c0.301,0.502,0.451,1.041,0.451,1.617
		c0,1.469-0.828,2.875-2.484,4.217c1.305,1.633,2.059,2.572,2.26,2.824c0.727,0.902,1.34,1.615,1.834,2.137
		c0.496,0.52,0.988,0.881,1.479,1.082c0.25,0.1,0.465,0.162,0.641,0.188s0.264,0.107,0.264,0.246c0,0.1-0.088,0.15-0.264,0.15
		h-1.412c-0.904,0-1.576-0.119-2.014-0.357c-0.615-0.326-1.475-1.25-2.58-2.768c-0.539-0.766-1.16-1.631-1.863-2.598
		c-0.074-0.088-0.188-0.133-0.338-0.133l-1.639-0.037c-0.1,0-0.15,0.051-0.15,0.15v0.264c0,2.133,0.031,3.477,0.094,4.029
		c0.076,0.639,0.32,0.984,0.734,1.035c0.377,0.049,0.684,0.074,0.922,0.074c0.15,0,0.227,0.051,0.227,0.15
		c0,0.127-0.125,0.189-0.377,0.189c-0.426,0-0.988-0.01-1.684-0.029c-0.697-0.018-1.059-0.027-1.082-0.027
		c-0.088,0-0.422,0.01-0.998,0.027c-0.578,0.02-1.011,0.029-1.299,0.029c-0.251,0-0.377-0.063-0.377-0.189
		c0-0.088,0.139-0.145,0.415-0.168c0.188-0.025,0.376-0.045,0.564-0.057c0.288-0.063,0.47-0.408,0.546-1.035
		C175.737,20.327,175.768,18.991,175.768,16.808z M177.989,9.259v5.723c0,0.188,0.057,0.301,0.17,0.338
		c0.352,0.127,0.828,0.189,1.43,0.189c0.604,0,1.049-0.107,1.338-0.32c0.74-0.539,1.109-1.48,1.109-2.824
		c0-1.191-0.338-2.102-1.016-2.729c-0.541-0.477-1.162-0.715-1.863-0.715c-0.604,0-0.961,0.037-1.074,0.111
		C178.02,9.071,177.989,9.146,177.989,9.259z"/>
	<path fill="#4D4D4D" d="M189.979,16.808v-3.313c0-2.248-0.012-3.578-0.037-3.992c-0.037-0.602-0.252-0.953-0.641-1.053
		c-0.199-0.051-0.426-0.076-0.678-0.076c-0.199,0-0.301-0.063-0.301-0.188c0-0.102,0.15-0.15,0.453-0.15
		c0.25,0,0.68,0.008,1.289,0.027c0.607,0.02,0.994,0.029,1.156,0.029c0.139,0,0.49-0.01,1.055-0.029s0.979-0.027,1.242-0.027
		s0.396,0.049,0.396,0.15c0,0.125-0.092,0.188-0.273,0.188s-0.381,0.02-0.594,0.057c-0.426,0.076-0.658,0.434-0.695,1.072
		c-0.025,0.428-0.039,1.758-0.039,3.992v3.313c0,2.246,0.025,3.619,0.076,4.121c0.051,0.553,0.301,0.861,0.752,0.924
		c0.365,0.049,0.686,0.074,0.961,0.074c0.201,0,0.301,0.051,0.301,0.15c0,0.127-0.119,0.189-0.357,0.189
		c-0.477,0-1.057-0.01-1.74-0.029c-0.686-0.018-1.084-0.027-1.195-0.027c-0.113,0-0.469,0.01-1.064,0.027
		c-0.596,0.02-1.033,0.029-1.309,0.029c-0.25,0-0.377-0.063-0.377-0.189c0-0.088,0.139-0.145,0.416-0.168
		c0.188-0.025,0.375-0.045,0.564-0.057c0.301-0.063,0.482-0.373,0.545-0.932S189.979,18.991,189.979,16.808z"/>
	<path fill="#4D4D4D" d="M205.227,22.53c-2.736,0-4.885-0.682-6.447-2.043s-2.344-3.215-2.344-5.563c0-2.096,0.73-3.813,2.193-5.148
		c1.461-1.336,3.447-2.004,5.957-2.004c0.865,0,1.775,0.063,2.729,0.188c0.439,0.088,1.066,0.195,1.883,0.32
		c0.189,0.012,0.283,0.088,0.283,0.227c0,0.037-0.014,0.143-0.039,0.318c-0.025,0.227-0.043,0.465-0.055,0.717
		c-0.014,0.551-0.033,1.229-0.057,2.031c-0.025,0.289-0.102,0.434-0.227,0.434s-0.188-0.137-0.188-0.414
		c-0.014-0.652-0.258-1.229-0.734-1.732c-0.326-0.338-0.822-0.613-1.488-0.828c-0.715-0.225-1.492-0.338-2.334-0.338
		c-1.506,0-2.686,0.389-3.539,1.166c-1.154,1.055-1.73,2.68-1.73,4.877c0,2.07,0.67,3.744,2.014,5.025
		c1.166,1.117,2.473,1.676,3.916,1.676c0.803,0,1.424-0.051,1.863-0.15c0.664-0.152,1.191-0.453,1.58-0.904
		c0.34-0.377,0.553-0.791,0.641-1.242c0.051-0.252,0.131-0.377,0.244-0.377s0.17,0.094,0.17,0.283c0,0.137-0.045,0.502-0.131,1.092
		c-0.102,0.652-0.193,1.117-0.273,1.393c-0.082,0.275-0.248,0.465-0.5,0.564C207.899,22.386,206.77,22.53,205.227,22.53z"/>
	<path fill="#4D4D4D" d="M224.67,22.53c-1.092,0-2.008-0.164-2.748-0.49c-0.238-0.1-0.357-0.314-0.357-0.641
		c0-0.678,0.031-1.498,0.094-2.465c0.025-0.326,0.102-0.49,0.227-0.49s0.188,0.107,0.188,0.32c0,0.264,0.057,0.584,0.17,0.961
		c0.377,1.268,1.273,1.9,2.691,1.9c0.791,0,1.424-0.232,1.902-0.697c0.414-0.414,0.621-0.896,0.621-1.449
		c0-1.041-0.615-2.045-1.846-3.012l-0.865-0.678c-1.857-1.455-2.785-2.941-2.785-4.461c0-1.041,0.4-1.895,1.203-2.561
		c0.803-0.664,1.852-0.996,3.145-0.996c0.814,0,1.65,0.105,2.504,0.32c0.176,0.049,0.264,0.125,0.264,0.225
		c0-0.025-0.014,0.197-0.039,0.668S229,9.987,229,10.577c0,0.375-0.068,0.564-0.207,0.564c-0.125,0-0.188-0.113-0.188-0.34
		c0-0.426-0.164-0.84-0.49-1.242c-0.49-0.613-1.174-0.922-2.051-0.922c-0.691,0-1.236,0.18-1.639,0.537s-0.602,0.824-0.602,1.402
		c0,0.439,0.141,0.855,0.422,1.252c0.283,0.395,0.807,0.881,1.572,1.459l0.527,0.395c1.129,0.854,1.926,1.641,2.391,2.361
		c0.465,0.723,0.697,1.535,0.697,2.438c0,1.42-0.59,2.512-1.77,3.275C226.873,22.272,225.875,22.53,224.67,22.53z"/>
	<path fill="#4D4D4D" d="M240.653,22.53c-2.736,0-4.885-0.682-6.447-2.043s-2.344-3.215-2.344-5.563c0-2.096,0.73-3.813,2.193-5.148
		c1.461-1.336,3.447-2.004,5.957-2.004c0.865,0,1.775,0.063,2.729,0.188c0.439,0.088,1.066,0.195,1.883,0.32
		c0.189,0.012,0.283,0.088,0.283,0.227c0,0.037-0.014,0.143-0.039,0.318c-0.025,0.227-0.043,0.465-0.055,0.717
		c-0.014,0.551-0.033,1.229-0.057,2.031c-0.025,0.289-0.102,0.434-0.227,0.434s-0.188-0.137-0.188-0.414
		c-0.014-0.652-0.258-1.229-0.734-1.732c-0.326-0.338-0.822-0.613-1.488-0.828c-0.715-0.225-1.492-0.338-2.334-0.338
		c-1.506,0-2.686,0.389-3.539,1.166c-1.154,1.055-1.73,2.68-1.73,4.877c0,2.07,0.67,3.744,2.014,5.025
		c1.166,1.117,2.473,1.676,3.916,1.676c0.803,0,1.424-0.051,1.863-0.15c0.664-0.152,1.191-0.453,1.58-0.904
		c0.34-0.377,0.553-0.791,0.641-1.242c0.051-0.252,0.131-0.377,0.244-0.377s0.17,0.094,0.17,0.283c0,0.137-0.045,0.502-0.131,1.092
		c-0.102,0.652-0.193,1.117-0.273,1.393c-0.082,0.275-0.248,0.465-0.5,0.564C243.324,22.386,242.196,22.53,240.653,22.53z"/>
	<path fill="#4D4D4D" d="M248.971,16.808v-3.313c0-2.248-0.014-3.578-0.037-3.992c-0.039-0.602-0.252-0.953-0.641-1.053
		c-0.201-0.051-0.428-0.076-0.678-0.076c-0.201,0-0.301-0.063-0.301-0.188c0-0.102,0.15-0.15,0.451-0.15
		c0.25,0,0.68,0.008,1.289,0.027s0.994,0.029,1.158,0.029c0.139,0,0.488-0.01,1.055-0.029c0.564-0.02,0.979-0.027,1.242-0.027
		s0.395,0.049,0.395,0.15c0,0.125-0.092,0.188-0.273,0.188s-0.379,0.02-0.592,0.057c-0.428,0.076-0.66,0.434-0.697,1.072
		c-0.025,0.428-0.037,1.758-0.037,3.992v3.313c0,2.246,0.025,3.619,0.074,4.121c0.051,0.553,0.303,0.861,0.754,0.924
		c0.363,0.049,0.684,0.074,0.959,0.074c0.201,0,0.303,0.051,0.303,0.15c0,0.127-0.119,0.189-0.357,0.189
		c-0.479,0-1.059-0.01-1.742-0.029c-0.684-0.018-1.082-0.027-1.195-0.027s-0.467,0.01-1.063,0.027
		c-0.598,0.02-1.033,0.029-1.309,0.029c-0.252,0-0.377-0.063-0.377-0.189c0-0.088,0.139-0.145,0.414-0.168
		c0.188-0.025,0.377-0.045,0.564-0.057c0.301-0.063,0.482-0.373,0.547-0.932C248.94,20.362,248.971,18.991,248.971,16.808z"/>
	<path fill="#4D4D4D" d="M257.479,16.808v-3.313c0-2.248-0.012-3.578-0.037-3.992c-0.037-0.602-0.307-0.959-0.809-1.072
		c-0.176-0.037-0.422-0.057-0.734-0.057c-0.215,0-0.32-0.057-0.32-0.17c0-0.111,0.139-0.168,0.414-0.168
		c0.377,0,0.887,0.008,1.533,0.027s1.039,0.029,1.178,0.029c2.975,0,4.543-0.008,4.705-0.02c0.326-0.025,0.596-0.063,0.811-0.113
		c0.213-0.051,0.313-0.074,0.301-0.074c0.074,0,0.113,0.055,0.113,0.168c0,0.014-0.02,0.127-0.057,0.34
		c-0.039,0.25-0.066,0.545-0.086,0.885c-0.018,0.338-0.053,0.752-0.104,1.242c-0.025,0.139-0.088,0.207-0.188,0.207
		c-0.088,0-0.141-0.068-0.16-0.207s-0.035-0.27-0.047-0.396c-0.014-0.125-0.037-0.238-0.076-0.338c-0.15-0.363-0.57-0.59-1.26-0.678
		c-0.428-0.051-1.318-0.076-2.674-0.076c-0.088,0-0.131,0.064-0.131,0.189v4.762c0,0.139,0.043,0.207,0.131,0.207
		c1.707,0,2.711-0.012,3.012-0.037c0.213-0.012,0.377-0.031,0.49-0.057c0.188-0.051,0.326-0.125,0.414-0.227
		c0.15-0.162,0.25-0.244,0.301-0.244c0.088,0,0.131,0.051,0.131,0.15c0,0.014-0.018,0.139-0.055,0.377
		c-0.039,0.289-0.07,0.621-0.096,0.998c-0.049,0.715-0.074,1.135-0.074,1.26c0,0.238-0.057,0.357-0.17,0.357s-0.17-0.064-0.17-0.197
		c0-0.131-0.025-0.348-0.074-0.648c-0.102-0.428-0.453-0.672-1.055-0.734c-0.352-0.037-1.242-0.057-2.674-0.057
		c-0.074,0-0.111,0.063-0.111,0.188v4.406c0.023,0.664,0.172,1.094,0.441,1.289c0.27,0.193,0.875,0.291,1.816,0.291
		c0.854,0,1.443-0.074,1.77-0.227c0.439-0.199,0.723-0.664,0.848-1.393c0.037-0.188,0.105-0.281,0.207-0.281
		c0.1,0,0.15,0.113,0.15,0.338c0,0.766-0.082,1.463-0.244,2.09c-0.064,0.227-0.15,0.363-0.264,0.414s-0.365,0.076-0.754,0.076
		c-1.092,0-2.178-0.02-3.256-0.057c-1.08-0.039-1.732-0.057-1.957-0.057c-0.113,0-0.469,0.01-1.064,0.027
		c-0.596,0.02-1.033,0.029-1.309,0.029c-0.25,0-0.377-0.063-0.377-0.189c0-0.088,0.139-0.145,0.416-0.168
		c0.188-0.025,0.375-0.045,0.564-0.057c0.287-0.063,0.471-0.408,0.545-1.035C257.448,20.327,257.479,18.991,257.479,16.808z"/>
	<path fill="#4D4D4D" d="M270.223,11.8l0.207,7.906c0.037,1.256,0.258,1.951,0.658,2.09c0.039,0.012,0.283,0.043,0.734,0.094
		c0.377,0.051,0.564,0.113,0.564,0.188c0,0.127-0.145,0.189-0.432,0.189c-0.479,0-0.973-0.01-1.488-0.029
		c-0.514-0.018-0.797-0.027-0.846-0.027c0.012,0-0.227,0.01-0.717,0.027c-0.488,0.02-0.928,0.029-1.316,0.029
		c-0.277,0-0.414-0.063-0.414-0.189c0-0.088,0.162-0.145,0.488-0.168c0.227-0.025,0.445-0.051,0.66-0.076
		c0.238-0.076,0.395-0.275,0.471-0.602c0.063-0.289,0.1-0.867,0.111-1.732l0.17-11.145c0.012-0.426,0.094-0.639,0.244-0.639
		c0.102,0,0.334,0.193,0.697,0.584c1.029,1.104,2.975,3.117,5.836,6.041c1.279,1.33,2.66,2.762,4.141,4.293h0.094l-0.188-8.453
		c-0.014-0.463-0.039-0.783-0.076-0.959c-0.1-0.377-0.289-0.621-0.564-0.734c-0.188-0.076-0.521-0.113-0.998-0.113
		c-0.201,0-0.301-0.057-0.301-0.17c0-0.111,0.164-0.168,0.49-0.168c0.375,0,0.828,0.008,1.355,0.027
		c0.525,0.02,0.834,0.029,0.922,0.029c0.012,0,0.232-0.01,0.658-0.029s0.822-0.027,1.186-0.027c0.289,0,0.434,0.057,0.434,0.168
		c0,0.113-0.113,0.17-0.34,0.17c-0.627,0-1.01,0.207-1.146,0.621c-0.064,0.227-0.102,0.572-0.113,1.035l-0.207,11.879
		c-0.014,0.389-0.094,0.582-0.246,0.582c-0.137,0-0.35-0.137-0.639-0.414c-1.205-1.191-3.057-3.037-5.553-5.533
		c-0.854-0.842-1.814-1.838-2.881-2.994c-0.539-0.588-1.072-1.172-1.6-1.75H270.223z"/>
	<path fill="#4D4D4D" d="M293.94,22.53c-2.736,0-4.885-0.682-6.447-2.043s-2.344-3.215-2.344-5.563c0-2.096,0.732-3.813,2.193-5.148
		c1.463-1.336,3.447-2.004,5.957-2.004c0.867,0,1.777,0.063,2.73,0.188c0.439,0.088,1.066,0.195,1.883,0.32
		c0.188,0.012,0.281,0.088,0.281,0.227c0,0.037-0.012,0.143-0.037,0.318c-0.025,0.227-0.045,0.465-0.057,0.717
		c-0.012,0.551-0.031,1.229-0.057,2.031c-0.025,0.289-0.1,0.434-0.227,0.434c-0.125,0-0.188-0.137-0.188-0.414
		c-0.012-0.652-0.258-1.229-0.734-1.732c-0.326-0.338-0.822-0.613-1.486-0.828c-0.715-0.225-1.494-0.338-2.334-0.338
		c-1.506,0-2.686,0.389-3.539,1.166c-1.154,1.055-1.732,2.68-1.732,4.877c0,2.07,0.672,3.744,2.014,5.025
		c1.168,1.117,2.473,1.676,3.916,1.676c0.803,0,1.424-0.051,1.863-0.15c0.666-0.152,1.193-0.453,1.582-0.904
		c0.338-0.377,0.551-0.791,0.639-1.242c0.051-0.252,0.133-0.377,0.246-0.377s0.168,0.094,0.168,0.283
		c0,0.137-0.043,0.502-0.131,1.092c-0.1,0.652-0.191,1.117-0.273,1.393s-0.248,0.465-0.498,0.564
		C296.614,22.386,295.483,22.53,293.94,22.53z"/>
	<path fill="#4D4D4D" d="M302.26,16.808v-3.313c0-2.248-0.014-3.578-0.037-3.992c-0.039-0.602-0.309-0.959-0.811-1.072
		c-0.176-0.037-0.42-0.057-0.734-0.057c-0.213,0-0.32-0.057-0.32-0.17c0-0.111,0.139-0.168,0.414-0.168
		c0.377,0,0.889,0.008,1.535,0.027s1.037,0.029,1.176,0.029c2.975,0,4.543-0.008,4.707-0.02c0.326-0.025,0.596-0.063,0.809-0.113
		s0.314-0.074,0.301-0.074c0.076,0,0.113,0.055,0.113,0.168c0,0.014-0.02,0.127-0.057,0.34c-0.037,0.25-0.066,0.545-0.084,0.885
		c-0.02,0.338-0.055,0.752-0.104,1.242c-0.025,0.139-0.088,0.207-0.189,0.207c-0.088,0-0.141-0.068-0.158-0.207
		c-0.02-0.139-0.035-0.27-0.049-0.396c-0.012-0.125-0.037-0.238-0.074-0.338c-0.15-0.363-0.572-0.59-1.262-0.678
		c-0.426-0.051-1.316-0.076-2.672-0.076c-0.088,0-0.133,0.064-0.133,0.189v4.762c0,0.139,0.045,0.207,0.133,0.207
		c1.705,0,2.709-0.012,3.012-0.037c0.213-0.012,0.375-0.031,0.488-0.057c0.189-0.051,0.326-0.125,0.414-0.227
		c0.15-0.162,0.252-0.244,0.301-0.244c0.088,0,0.133,0.051,0.133,0.15c0,0.014-0.02,0.139-0.057,0.377
		c-0.037,0.289-0.068,0.621-0.094,0.998c-0.051,0.715-0.076,1.135-0.076,1.26c0,0.238-0.057,0.357-0.168,0.357
		c-0.113,0-0.17-0.064-0.17-0.197c0-0.131-0.025-0.348-0.076-0.648c-0.1-0.428-0.451-0.672-1.053-0.734
		c-0.352-0.037-1.244-0.057-2.674-0.057c-0.076,0-0.113,0.063-0.113,0.188v4.406c0.025,0.664,0.172,1.094,0.443,1.289
		c0.27,0.193,0.875,0.291,1.816,0.291c0.854,0,1.441-0.074,1.77-0.227c0.438-0.199,0.721-0.664,0.846-1.393
		c0.039-0.188,0.107-0.281,0.207-0.281c0.102,0,0.15,0.113,0.15,0.338c0,0.766-0.08,1.463-0.244,2.09
		c-0.063,0.227-0.15,0.363-0.264,0.414s-0.363,0.076-0.752,0.076c-1.092,0-2.178-0.02-3.258-0.057
		c-1.078-0.039-1.73-0.057-1.957-0.057c-0.113,0-0.467,0.01-1.063,0.027c-0.598,0.02-1.033,0.029-1.309,0.029
		c-0.252,0-0.377-0.063-0.377-0.189c0-0.088,0.139-0.145,0.414-0.168c0.188-0.025,0.377-0.045,0.564-0.057
		c0.289-0.063,0.471-0.408,0.547-1.035C302.229,20.327,302.26,18.991,302.26,16.808z"/>
	<path fill="#4D4D4D" d="M315.869,22.53c-1.092,0-2.008-0.164-2.748-0.49c-0.238-0.1-0.357-0.314-0.357-0.641
		c0-0.678,0.031-1.498,0.094-2.465c0.025-0.326,0.1-0.49,0.225-0.49c0.127,0,0.189,0.107,0.189,0.32c0,0.264,0.057,0.584,0.17,0.961
		c0.375,1.268,1.273,1.9,2.691,1.9c0.791,0,1.424-0.232,1.9-0.697c0.414-0.414,0.621-0.896,0.621-1.449
		c0-1.041-0.615-2.045-1.844-3.012l-0.867-0.678c-1.857-1.455-2.785-2.941-2.785-4.461c0-1.041,0.402-1.895,1.205-2.561
		c0.803-0.664,1.85-0.996,3.143-0.996c0.816,0,1.65,0.105,2.504,0.32c0.176,0.049,0.264,0.125,0.264,0.225
		c0-0.025-0.012,0.197-0.037,0.668s-0.037,1.002-0.037,1.592c0,0.375-0.07,0.564-0.209,0.564c-0.125,0-0.188-0.113-0.188-0.34
		c0-0.426-0.162-0.84-0.488-1.242c-0.49-0.613-1.174-0.922-2.053-0.922c-0.689,0-1.236,0.18-1.637,0.537
		c-0.402,0.357-0.604,0.824-0.604,1.402c0,0.439,0.141,0.855,0.424,1.252c0.283,0.395,0.807,0.881,1.572,1.459l0.527,0.395
		c1.129,0.854,1.926,1.641,2.391,2.361c0.463,0.723,0.695,1.535,0.695,2.438c0,1.42-0.59,2.512-1.77,3.275
		C318.071,22.272,317.074,22.53,315.869,22.53z"/>
</g>
<g enable-background="new    ">
	<path fill="#4D4D4D" d="M60.776,41.523V39.98c0-0.666-0.145-1.324-0.433-1.977c-0.075-0.152-0.568-0.973-1.478-2.467
		c-0.91-1.492-1.522-2.479-1.835-2.955c-0.464-0.689-0.897-1.148-1.299-1.375c-0.289-0.162-0.552-0.244-0.791-0.244
		c-0.188,0-0.282-0.057-0.282-0.17c0-0.111,0.12-0.168,0.357-0.168c0.088,0,0.449,0.008,1.083,0.027
		c0.634,0.02,1.063,0.029,1.29,0.029c0.1,0,0.383-0.01,0.847-0.029c0.464-0.02,0.853-0.027,1.167-0.027
		c0.188,0,0.282,0.057,0.282,0.168c0,0.076-0.138,0.145-0.414,0.207c-0.176,0.039-0.264,0.15-0.264,0.34
		c0,0.113,0.075,0.326,0.226,0.641c0.05,0.111,1.117,1.988,3.2,5.627c0.854-1.531,1.794-3.256,2.824-5.176
		c0.176-0.389,0.264-0.715,0.264-0.979c0-0.252-0.123-0.406-0.367-0.461c-0.245-0.057-0.367-0.123-0.367-0.199
		c0-0.111,0.106-0.168,0.32-0.168c0.213,0,0.518,0.008,0.913,0.027c0.396,0.02,0.681,0.029,0.856,0.029
		c0.138,0,0.48-0.01,1.026-0.029s0.875-0.027,0.988-0.027c0.226,0,0.339,0.049,0.339,0.15c0,0.125-0.122,0.188-0.367,0.188
		c-0.245,0-0.515,0.076-0.809,0.227c-0.295,0.15-0.637,0.457-1.026,0.922c-0.301,0.363-0.932,1.35-1.892,2.955
		c-0.96,1.607-1.528,2.617-1.703,3.031c-0.188,0.451-0.283,1.078-0.283,1.883v1.543c0,1.104,0.031,1.818,0.094,2.145
		c0.075,0.465,0.32,0.723,0.734,0.773c0.364,0.049,0.677,0.074,0.941,0.074c0.201,0,0.301,0.051,0.301,0.15
		c0,0.127-0.132,0.189-0.396,0.189c-0.452,0-1.016-0.01-1.694-0.029c-0.678-0.018-1.073-0.027-1.186-0.027
		c-0.138,0-0.502,0.01-1.092,0.027c-0.59,0.02-1.01,0.029-1.261,0.029c-0.276,0-0.414-0.063-0.414-0.189
		c0-0.074,0.138-0.131,0.414-0.168c0.176-0.025,0.358-0.045,0.546-0.057c0.351-0.076,0.546-0.422,0.583-1.035
		C60.757,42.865,60.776,42.238,60.776,41.523z"/>
	<path fill="#4D4D4D" d="M76.814,45.119c-2.485,0-4.423-0.816-5.816-2.447c-1.18-1.369-1.77-3.012-1.77-4.932
		c0-1.895,0.59-3.527,1.77-4.895c1.418-1.656,3.419-2.484,6.005-2.484c2.334,0,4.185,0.633,5.553,1.9s2.052,2.98,2.052,5.139
		c0,2.209-0.703,4.035-2.108,5.479C81.055,44.371,79.16,45.119,76.814,45.119z M77.604,44.178c1.054,0,1.945-0.332,2.673-0.998
		c1.129-1.018,1.694-2.711,1.694-5.082c0-2.059-0.534-3.727-1.6-5.008c-1.029-1.217-2.334-1.826-3.915-1.826
		c-1.293,0-2.334,0.396-3.125,1.186c-1.004,1.006-1.506,2.574-1.506,4.707c0,2.02,0.515,3.678,1.543,4.969
		C74.436,43.494,75.847,44.178,77.604,44.178z"/>
	<path fill="#4D4D4D" d="M89.576,34.389l0.207,7.906c0.038,1.256,0.257,1.951,0.659,2.09c0.038,0.012,0.283,0.043,0.734,0.094
		c0.376,0.051,0.564,0.113,0.564,0.188c0,0.127-0.144,0.189-0.433,0.189c-0.477,0-0.973-0.01-1.487-0.029
		c-0.515-0.018-0.797-0.027-0.847-0.027c0.013,0-0.226,0.01-0.715,0.027c-0.49,0.02-0.929,0.029-1.318,0.029
		c-0.276,0-0.414-0.063-0.414-0.189c0-0.088,0.163-0.145,0.489-0.168c0.226-0.025,0.445-0.051,0.659-0.076
		c0.238-0.076,0.396-0.275,0.471-0.602c0.063-0.289,0.101-0.867,0.113-1.732l0.169-11.145c0.013-0.426,0.094-0.639,0.245-0.639
		c0.1,0,0.332,0.193,0.696,0.584c1.029,1.104,2.974,3.117,5.835,6.041c1.28,1.33,2.66,2.762,4.141,4.293h0.094l-0.188-8.453
		c-0.013-0.463-0.038-0.783-0.075-0.959c-0.101-0.377-0.289-0.621-0.565-0.734c-0.188-0.076-0.521-0.113-0.998-0.113
		c-0.201,0-0.301-0.057-0.301-0.17c0-0.111,0.163-0.168,0.49-0.168c0.376,0,0.828,0.008,1.355,0.027
		c0.527,0.02,0.834,0.029,0.922,0.029c0.013,0,0.232-0.01,0.659-0.029c0.426-0.02,0.821-0.027,1.186-0.027
		c0.289,0,0.433,0.057,0.433,0.168c0,0.113-0.113,0.17-0.339,0.17c-0.627,0-1.01,0.207-1.148,0.621
		c-0.063,0.227-0.101,0.572-0.113,1.035l-0.207,11.879c-0.013,0.389-0.094,0.582-0.245,0.582c-0.138,0-0.352-0.137-0.64-0.414
		c-1.205-1.191-3.056-3.037-5.553-5.533c-0.854-0.842-1.813-1.838-2.88-2.994c-0.54-0.588-1.073-1.172-1.6-1.75H89.576z"/>
	<path fill="#4D4D4D" d="M108.267,45.119c-1.092,0-2.008-0.164-2.748-0.49c-0.239-0.1-0.357-0.314-0.357-0.641
		c0-0.678,0.031-1.498,0.094-2.465c0.025-0.326,0.101-0.49,0.226-0.49s0.188,0.107,0.188,0.32c0,0.264,0.057,0.584,0.169,0.961
		c0.376,1.268,1.274,1.9,2.692,1.9c0.791,0,1.424-0.232,1.901-0.697c0.414-0.414,0.621-0.896,0.621-1.449
		c0-1.041-0.615-2.045-1.845-3.012l-0.866-0.678c-1.857-1.455-2.786-2.941-2.786-4.461c0-1.041,0.401-1.895,1.205-2.561
		c0.803-0.664,1.851-0.996,3.144-0.996c0.816,0,1.65,0.105,2.504,0.32c0.175,0.049,0.263,0.125,0.263,0.225
		c0-0.025-0.013,0.197-0.038,0.668c-0.025,0.471-0.038,1.002-0.038,1.592c0,0.375-0.069,0.564-0.207,0.564
		c-0.125,0-0.188-0.113-0.188-0.34c0-0.426-0.163-0.84-0.489-1.242c-0.489-0.613-1.173-0.922-2.052-0.922
		c-0.69,0-1.236,0.18-1.638,0.537c-0.402,0.357-0.602,0.824-0.602,1.402c0,0.439,0.141,0.855,0.423,1.252
		c0.282,0.395,0.806,0.881,1.572,1.459l0.527,0.395c1.129,0.854,1.926,1.641,2.391,2.361c0.464,0.723,0.697,1.535,0.697,2.438
		c0,1.42-0.59,2.512-1.77,3.275C110.47,44.861,109.472,45.119,108.267,45.119z"/>
	<path fill="#4D4D4D" d="M117.509,39.396v-3.313c0-2.248-0.013-3.578-0.038-3.992c-0.038-0.602-0.308-0.959-0.809-1.072
		c-0.176-0.037-0.421-0.057-0.734-0.057c-0.213,0-0.32-0.057-0.32-0.17c0-0.111,0.138-0.168,0.414-0.168
		c0.376,0,0.888,0.008,1.534,0.027c0.646,0.02,1.038,0.029,1.176,0.029c2.974,0,4.542-0.008,4.706-0.02
		c0.326-0.025,0.596-0.063,0.809-0.113s0.313-0.074,0.301-0.074c0.075,0,0.113,0.055,0.113,0.168c0,0.014-0.019,0.127-0.056,0.34
		c-0.038,0.25-0.066,0.545-0.085,0.885c-0.019,0.338-0.053,0.752-0.104,1.242c-0.025,0.139-0.088,0.207-0.188,0.207
		c-0.088,0-0.141-0.068-0.16-0.207c-0.019-0.139-0.035-0.27-0.047-0.396c-0.013-0.125-0.038-0.238-0.075-0.338
		c-0.151-0.363-0.571-0.59-1.261-0.678c-0.427-0.051-1.318-0.076-2.673-0.076c-0.088,0-0.132,0.064-0.132,0.189v4.762
		c0,0.139,0.043,0.207,0.132,0.207c1.706,0,2.71-0.012,3.012-0.037c0.213-0.012,0.376-0.031,0.489-0.057
		c0.188-0.051,0.326-0.125,0.414-0.227c0.15-0.162,0.251-0.244,0.301-0.244c0.087,0,0.132,0.051,0.132,0.15
		c0,0.014-0.019,0.139-0.057,0.377c-0.038,0.289-0.069,0.621-0.094,0.998c-0.05,0.715-0.075,1.135-0.075,1.26
		c0,0.238-0.057,0.357-0.169,0.357s-0.169-0.064-0.169-0.197c0-0.131-0.025-0.348-0.075-0.648c-0.101-0.428-0.452-0.672-1.054-0.734
		c-0.352-0.037-1.242-0.057-2.673-0.057c-0.075,0-0.113,0.063-0.113,0.188v4.406c0.025,0.664,0.172,1.094,0.442,1.289
		c0.27,0.193,0.875,0.291,1.816,0.291c0.853,0,1.443-0.074,1.769-0.227c0.439-0.199,0.722-0.664,0.847-1.393
		c0.038-0.188,0.106-0.281,0.207-0.281s0.151,0.113,0.151,0.338c0,0.766-0.082,1.463-0.245,2.09
		c-0.063,0.227-0.151,0.363-0.264,0.414s-0.364,0.076-0.753,0.076c-1.092,0-2.177-0.02-3.256-0.057
		c-1.08-0.039-1.732-0.057-1.958-0.057c-0.113,0-0.467,0.01-1.063,0.027c-0.596,0.02-1.032,0.029-1.308,0.029
		c-0.251,0-0.376-0.063-0.376-0.189c0-0.088,0.138-0.145,0.414-0.168c0.188-0.025,0.376-0.045,0.565-0.057
		c0.288-0.063,0.47-0.408,0.546-1.035C117.478,42.916,117.509,41.58,117.509,39.396z"/>
	<path fill="#4D4D4D" d="M129.406,39.396v-3.313c0-2.248-0.013-3.578-0.038-3.992c-0.038-0.602-0.251-0.953-0.64-1.053
		c-0.201-0.051-0.427-0.076-0.677-0.076c-0.201,0-0.301-0.063-0.301-0.188c0-0.102,0.15-0.15,0.452-0.15
		c0.251,0,0.681,0.008,1.29,0.027c0.608,0.02,0.994,0.029,1.158,0.029c0.138,0,0.489-0.01,1.054-0.029s0.979-0.027,1.242-0.027
		s0.396,0.049,0.396,0.15c0,0.125-0.092,0.188-0.273,0.188s-0.381,0.02-0.594,0.057c-0.426,0.076-0.658,0.434-0.695,1.072
		c-0.025,0.428-0.039,1.758-0.039,3.992v3.313c0,2.246,0.025,3.619,0.076,4.121c0.051,0.553,0.301,0.861,0.752,0.924
		c0.365,0.049,0.686,0.074,0.961,0.074c0.201,0,0.301,0.051,0.301,0.15c0,0.127-0.119,0.189-0.357,0.189
		c-0.477,0-1.057-0.01-1.74-0.029c-0.686-0.018-1.083-0.027-1.196-0.027c-0.113,0-0.467,0.01-1.063,0.027
		c-0.596,0.02-1.032,0.029-1.308,0.029c-0.251,0-0.376-0.063-0.376-0.189c0-0.088,0.138-0.145,0.414-0.168
		c0.188-0.025,0.376-0.045,0.565-0.057c0.301-0.063,0.483-0.373,0.546-0.932C129.374,42.951,129.406,41.58,129.406,39.396z"/>
	<path fill="#4D4D4D" d="M146.515,38.832v-2.748c0-2.248-0.013-3.578-0.037-3.992c-0.038-0.602-0.308-0.959-0.81-1.072
		c-0.176-0.037-0.421-0.057-0.734-0.057c-0.213,0-0.319-0.057-0.319-0.17c0-0.111,0.138-0.168,0.414-0.168
		c0.363,0,0.875,0.008,1.533,0.027c0.659,0.02,1.064,0.029,1.215,0.029c0.138,0,0.499-0.01,1.082-0.029
		c0.584-0.02,0.994-0.027,1.233-0.027c0.275,0,0.414,0.057,0.414,0.168c0,0.113-0.101,0.17-0.302,0.17
		c-0.15,0-0.332,0.02-0.546,0.057c-0.427,0.076-0.658,0.434-0.696,1.072c-0.025,0.428-0.037,1.758-0.037,3.992v2.635
		c0,2.283,0.489,3.828,1.468,4.631c0.627,0.514,1.412,0.771,2.353,0.771c1.055,0,1.92-0.34,2.598-1.018
		c0.465-0.463,0.778-1.129,0.941-1.994c0.101-0.578,0.15-1.469,0.15-2.674v-2.352c0-2.248-0.013-3.578-0.037-3.992
		c-0.038-0.602-0.308-0.959-0.81-1.072c-0.176-0.037-0.401-0.057-0.678-0.057c-0.214,0-0.32-0.057-0.32-0.17
		c0-0.111,0.132-0.168,0.396-0.168c0.552,0,1.273,0.018,2.165,0.057c0.037,0,0.332-0.01,0.885-0.029
		c0.552-0.02,0.972-0.027,1.261-0.027c0.264,0,0.396,0.057,0.396,0.168c0,0.113-0.113,0.17-0.339,0.17
		c-0.15,0-0.333,0.02-0.546,0.057c-0.427,0.076-0.659,0.434-0.696,1.072c-0.025,0.428-0.038,1.758-0.038,3.992v2.014
		c0,1.279-0.101,2.314-0.301,3.105c-0.276,1.092-0.771,1.945-1.487,2.561c-1.054,0.902-2.359,1.355-3.915,1.355
		c-1.832,0-3.226-0.434-4.179-1.299C147.074,42.816,146.515,41.152,146.515,38.832z"/>
	<path fill="#4D4D4D" d="M164.211,34.389l0.207,7.906c0.037,1.256,0.257,1.951,0.658,2.09c0.038,0.012,0.282,0.043,0.734,0.094
		c0.376,0.051,0.564,0.113,0.564,0.188c0,0.127-0.145,0.189-0.433,0.189c-0.478,0-0.973-0.01-1.487-0.029
		c-0.515-0.018-0.797-0.027-0.847-0.027c0.012,0-0.227,0.01-0.716,0.027c-0.489,0.02-0.929,0.029-1.317,0.029
		c-0.276,0-0.414-0.063-0.414-0.189c0-0.088,0.163-0.145,0.489-0.168c0.226-0.025,0.445-0.051,0.659-0.076
		c0.238-0.076,0.396-0.275,0.471-0.602c0.063-0.289,0.1-0.867,0.112-1.732l0.17-11.145c0.012-0.426,0.094-0.639,0.244-0.639
		c0.101,0,0.333,0.193,0.697,0.584c1.028,1.104,2.974,3.117,5.835,6.041c1.28,1.33,2.66,2.762,4.141,4.293h0.095l-0.188-8.453
		c-0.013-0.463-0.038-0.783-0.075-0.959c-0.101-0.377-0.289-0.621-0.564-0.734c-0.188-0.076-0.521-0.113-0.998-0.113
		c-0.201,0-0.301-0.057-0.301-0.17c0-0.111,0.163-0.168,0.489-0.168c0.376,0,0.828,0.008,1.355,0.027
		c0.526,0.02,0.834,0.029,0.922,0.029c0.013,0,0.232-0.01,0.659-0.029c0.426-0.02,0.821-0.027,1.186-0.027
		c0.289,0,0.432,0.057,0.432,0.168c0,0.113-0.111,0.17-0.338,0.17c-0.627,0-1.01,0.207-1.148,0.621
		c-0.063,0.227-0.1,0.572-0.113,1.035l-0.207,11.879c-0.013,0.389-0.094,0.582-0.245,0.582c-0.138,0-0.351-0.137-0.64-0.414
		c-1.205-1.191-3.056-3.037-5.553-5.533c-0.854-0.842-1.813-1.838-2.88-2.994c-0.54-0.588-1.073-1.172-1.601-1.75H164.211z"/>
	<path fill="#4D4D4D" d="M181.188,39.396v-3.313c0-2.248-0.012-3.578-0.037-3.992c-0.037-0.602-0.252-0.953-0.641-1.053
		c-0.199-0.051-0.426-0.076-0.678-0.076c-0.199,0-0.301-0.063-0.301-0.188c0-0.102,0.15-0.15,0.453-0.15
		c0.25,0,0.68,0.008,1.289,0.027c0.607,0.02,0.994,0.029,1.156,0.029c0.139,0,0.49-0.01,1.055-0.029s0.979-0.027,1.242-0.027
		s0.396,0.049,0.396,0.15c0,0.125-0.092,0.188-0.273,0.188s-0.381,0.02-0.594,0.057c-0.426,0.076-0.658,0.434-0.695,1.072
		c-0.025,0.428-0.039,1.758-0.039,3.992v3.313c0,2.246,0.025,3.619,0.076,4.121c0.051,0.553,0.301,0.861,0.752,0.924
		c0.365,0.049,0.686,0.074,0.961,0.074c0.201,0,0.301,0.051,0.301,0.15c0,0.127-0.119,0.189-0.357,0.189
		c-0.477,0-1.057-0.01-1.74-0.029c-0.686-0.018-1.084-0.027-1.195-0.027c-0.113,0-0.469,0.01-1.064,0.027
		c-0.596,0.02-1.033,0.029-1.309,0.029c-0.25,0-0.377-0.063-0.377-0.189c0-0.088,0.139-0.145,0.416-0.168
		c0.188-0.025,0.375-0.045,0.564-0.057c0.301-0.063,0.482-0.373,0.545-0.932S181.188,41.58,181.188,39.396z"/>
	<path fill="#4D4D4D" d="M192.709,43.971l-4.744-11.502c-0.201-0.488-0.408-0.834-0.621-1.035c-0.176-0.162-0.445-0.295-0.809-0.395
		c-0.189-0.051-0.434-0.076-0.734-0.076c-0.15,0-0.227-0.057-0.227-0.17c0-0.111,0.164-0.168,0.49-0.168
		c0.363,0,0.861,0.008,1.496,0.027c0.633,0.02,1.045,0.029,1.232,0.029c0.113,0,0.439-0.01,0.979-0.029
		c0.541-0.02,0.986-0.027,1.338-0.027c0.287,0,0.432,0.057,0.432,0.168c0,0.113-0.094,0.17-0.281,0.17
		c-0.365,0-0.609,0.045-0.734,0.133s-0.188,0.219-0.188,0.395c0,0.201,0.143,0.684,0.432,1.449l3.238,8.547h0.074
		c1.08-2.711,2.316-5.836,3.709-9.375c0.113-0.314,0.17-0.547,0.17-0.697c0-0.188-0.088-0.311-0.264-0.367
		c-0.176-0.055-0.422-0.084-0.734-0.084c-0.213,0-0.32-0.051-0.32-0.15c0-0.125,0.176-0.188,0.527-0.188
		c0.377,0,0.793,0.008,1.252,0.027c0.457,0.02,0.699,0.029,0.725,0.029c0.088,0,0.352-0.01,0.791-0.029s0.766-0.027,0.979-0.027
		c0.264,0,0.395,0.057,0.395,0.168c0,0.113-0.1,0.17-0.301,0.17c-0.389,0-0.697,0.076-0.922,0.227
		c-0.301,0.201-0.652,0.766-1.055,1.693c-0.402,0.93-1.148,2.629-2.24,5.102l-2.504,5.74c-0.275,0.615-0.445,0.986-0.508,1.111
		c-0.113,0.188-0.232,0.283-0.357,0.283c-0.113,0-0.219-0.082-0.32-0.246C193.041,44.76,192.91,44.459,192.709,43.971z"/>
	<path fill="#4D4D4D" d="M203.324,39.396v-3.313c0-2.248-0.012-3.578-0.037-3.992c-0.037-0.602-0.307-0.959-0.809-1.072
		c-0.176-0.037-0.422-0.057-0.734-0.057c-0.215,0-0.32-0.057-0.32-0.17c0-0.111,0.139-0.168,0.414-0.168
		c0.377,0,0.887,0.008,1.533,0.027s1.039,0.029,1.178,0.029c2.975,0,4.543-0.008,4.705-0.02c0.326-0.025,0.596-0.063,0.811-0.113
		c0.213-0.051,0.313-0.074,0.301-0.074c0.074,0,0.113,0.055,0.113,0.168c0,0.014-0.02,0.127-0.057,0.34
		c-0.039,0.25-0.066,0.545-0.086,0.885c-0.018,0.338-0.053,0.752-0.104,1.242c-0.025,0.139-0.088,0.207-0.188,0.207
		c-0.088,0-0.141-0.068-0.16-0.207s-0.035-0.27-0.047-0.396c-0.014-0.125-0.037-0.238-0.076-0.338c-0.15-0.363-0.57-0.59-1.26-0.678
		c-0.428-0.051-1.318-0.076-2.674-0.076c-0.088,0-0.131,0.064-0.131,0.189v4.762c0,0.139,0.043,0.207,0.131,0.207
		c1.707,0,2.711-0.012,3.012-0.037c0.213-0.012,0.377-0.031,0.49-0.057c0.188-0.051,0.326-0.125,0.414-0.227
		c0.15-0.162,0.25-0.244,0.301-0.244c0.088,0,0.131,0.051,0.131,0.15c0,0.014-0.018,0.139-0.055,0.377
		c-0.039,0.289-0.07,0.621-0.096,0.998c-0.049,0.715-0.074,1.135-0.074,1.26c0,0.238-0.057,0.357-0.17,0.357s-0.17-0.064-0.17-0.197
		c0-0.131-0.025-0.348-0.074-0.648c-0.102-0.428-0.453-0.672-1.055-0.734c-0.352-0.037-1.242-0.057-2.674-0.057
		c-0.074,0-0.111,0.063-0.111,0.188v4.406c0.023,0.664,0.172,1.094,0.441,1.289c0.27,0.193,0.875,0.291,1.816,0.291
		c0.854,0,1.443-0.074,1.77-0.227c0.439-0.199,0.723-0.664,0.848-1.393c0.037-0.188,0.105-0.281,0.207-0.281
		c0.1,0,0.15,0.113,0.15,0.338c0,0.766-0.082,1.463-0.244,2.09c-0.064,0.227-0.15,0.363-0.264,0.414s-0.365,0.076-0.754,0.076
		c-1.092,0-2.178-0.02-3.256-0.057c-1.08-0.039-1.732-0.057-1.957-0.057c-0.113,0-0.469,0.01-1.064,0.027
		c-0.596,0.02-1.033,0.029-1.309,0.029c-0.25,0-0.377-0.063-0.377-0.189c0-0.088,0.139-0.145,0.416-0.168
		c0.188-0.025,0.375-0.045,0.564-0.057c0.287-0.063,0.471-0.408,0.545-1.035C203.293,42.916,203.324,41.58,203.324,39.396z"/>
	<path fill="#4D4D4D" d="M215.221,39.396v-3.313c0-2.248-0.012-3.578-0.037-3.992c-0.037-0.602-0.307-0.959-0.809-1.072
		c-0.176-0.037-0.422-0.057-0.734-0.057c-0.215,0-0.32-0.057-0.32-0.17c0-0.111,0.139-0.168,0.414-0.168
		c0.389,0,0.896,0.008,1.525,0.027c0.627,0.02,0.979,0.029,1.053,0.029c0.213,0,0.662-0.01,1.346-0.029
		c0.686-0.02,1.121-0.027,1.309-0.027c1.52,0,2.674,0.27,3.465,0.809c0.313,0.213,0.588,0.533,0.828,0.961
		c0.301,0.502,0.451,1.041,0.451,1.617c0,1.469-0.828,2.875-2.484,4.217c1.305,1.633,2.057,2.572,2.258,2.824
		c0.729,0.902,1.34,1.615,1.836,2.137c0.496,0.52,0.988,0.881,1.477,1.082c0.252,0.1,0.465,0.162,0.641,0.188
		s0.264,0.107,0.264,0.246c0,0.1-0.088,0.15-0.264,0.15h-1.412c-0.902,0-1.574-0.119-2.014-0.357
		c-0.615-0.326-1.475-1.25-2.578-2.768c-0.541-0.766-1.162-1.631-1.863-2.598c-0.076-0.088-0.189-0.133-0.34-0.133l-1.637-0.037
		c-0.102,0-0.15,0.051-0.15,0.15v0.264c0,2.133,0.031,3.477,0.094,4.029c0.074,0.639,0.32,0.984,0.734,1.035
		c0.375,0.049,0.684,0.074,0.922,0.074c0.15,0,0.227,0.051,0.227,0.15c0,0.127-0.127,0.189-0.377,0.189
		c-0.428,0-0.988-0.01-1.686-0.029c-0.695-0.018-1.057-0.027-1.082-0.027c-0.088,0-0.42,0.01-0.998,0.027
		c-0.576,0.02-1.01,0.029-1.299,0.029c-0.25,0-0.377-0.063-0.377-0.189c0-0.088,0.139-0.145,0.416-0.168
		c0.188-0.025,0.375-0.045,0.564-0.057c0.287-0.063,0.471-0.408,0.545-1.035C215.19,42.916,215.221,41.58,215.221,39.396z
		 M217.444,31.848v5.723c0,0.188,0.055,0.301,0.168,0.338c0.352,0.127,0.828,0.189,1.432,0.189c0.602,0,1.047-0.107,1.336-0.32
		c0.74-0.539,1.111-1.48,1.111-2.824c0-1.191-0.34-2.102-1.018-2.729c-0.539-0.477-1.16-0.715-1.863-0.715
		c-0.602,0-0.959,0.037-1.072,0.111C217.475,31.66,217.444,31.734,217.444,31.848z"/>
	<path fill="#4D4D4D" d="M231.145,45.119c-1.092,0-2.008-0.164-2.748-0.49c-0.238-0.1-0.357-0.314-0.357-0.641
		c0-0.678,0.031-1.498,0.094-2.465c0.025-0.326,0.102-0.49,0.227-0.49s0.188,0.107,0.188,0.32c0,0.264,0.057,0.584,0.17,0.961
		c0.377,1.268,1.273,1.9,2.691,1.9c0.791,0,1.424-0.232,1.902-0.697c0.414-0.414,0.621-0.896,0.621-1.449
		c0-1.041-0.615-2.045-1.846-3.012l-0.865-0.678c-1.857-1.455-2.785-2.941-2.785-4.461c0-1.041,0.4-1.895,1.203-2.561
		c0.803-0.664,1.852-0.996,3.145-0.996c0.814,0,1.65,0.105,2.504,0.32c0.176,0.049,0.264,0.125,0.264,0.225
		c0-0.025-0.014,0.197-0.039,0.668s-0.037,1.002-0.037,1.592c0,0.375-0.068,0.564-0.207,0.564c-0.125,0-0.188-0.113-0.188-0.34
		c0-0.426-0.164-0.84-0.49-1.242c-0.49-0.613-1.174-0.922-2.051-0.922c-0.691,0-1.236,0.18-1.639,0.537s-0.602,0.824-0.602,1.402
		c0,0.439,0.141,0.855,0.422,1.252c0.283,0.395,0.807,0.881,1.572,1.459l0.527,0.395c1.129,0.854,1.926,1.641,2.391,2.361
		c0.465,0.723,0.697,1.535,0.697,2.438c0,1.42-0.59,2.512-1.77,3.275C233.348,44.861,232.35,45.119,231.145,45.119z"/>
	<path fill="#4D4D4D" d="M240.387,39.396v-3.313c0-2.248-0.012-3.578-0.037-3.992c-0.037-0.602-0.252-0.953-0.641-1.053
		c-0.199-0.051-0.426-0.076-0.678-0.076c-0.199,0-0.301-0.063-0.301-0.188c0-0.102,0.15-0.15,0.453-0.15
		c0.25,0,0.68,0.008,1.289,0.027c0.607,0.02,0.994,0.029,1.156,0.029c0.139,0,0.49-0.01,1.055-0.029s0.979-0.027,1.242-0.027
		s0.396,0.049,0.396,0.15c0,0.125-0.092,0.188-0.273,0.188s-0.381,0.02-0.594,0.057c-0.426,0.076-0.658,0.434-0.695,1.072
		c-0.025,0.428-0.039,1.758-0.039,3.992v3.313c0,2.246,0.025,3.619,0.076,4.121c0.051,0.553,0.301,0.861,0.752,0.924
		c0.365,0.049,0.686,0.074,0.961,0.074c0.201,0,0.301,0.051,0.301,0.15c0,0.127-0.119,0.189-0.357,0.189
		c-0.477,0-1.057-0.01-1.74-0.029c-0.686-0.018-1.084-0.027-1.195-0.027c-0.113,0-0.469,0.01-1.064,0.027
		c-0.596,0.02-1.033,0.029-1.309,0.029c-0.25,0-0.377-0.063-0.377-0.189c0-0.088,0.139-0.145,0.416-0.168
		c0.188-0.025,0.375-0.045,0.564-0.057c0.301-0.063,0.482-0.373,0.545-0.932S240.387,41.58,240.387,39.396z"/>
	<path fill="#4D4D4D" d="M251.399,39.396v-7.719l-2.805,0.076c-0.992,0.025-1.6,0.207-1.826,0.545
		c-0.162,0.238-0.27,0.459-0.32,0.66c-0.037,0.15-0.105,0.225-0.207,0.225c-0.111,0-0.168-0.1-0.168-0.301
		c0-0.338,0.131-1.061,0.395-2.164c0.063-0.238,0.139-0.357,0.227-0.357c0.037,0,0.137,0.033,0.301,0.104
		c0.162,0.068,0.332,0.109,0.508,0.121c0.678,0.064,1.305,0.096,1.883,0.096h7.453c0.49,0,0.924-0.031,1.299-0.096
		c0.377-0.063,0.547-0.094,0.51-0.094c0.1,0,0.15,0.133,0.15,0.396c0,0.125-0.01,0.477-0.029,1.053
		c-0.018,0.578-0.035,0.961-0.047,1.148c-0.012,0.189-0.063,0.283-0.15,0.283c-0.113,0-0.182-0.125-0.207-0.377l-0.02-0.207
		c-0.063-0.666-0.803-1.016-2.221-1.055l-2.371-0.057v7.719c0,2.133,0.031,3.477,0.094,4.027c0.076,0.615,0.32,0.955,0.734,1.018
		c0.363,0.049,0.684,0.074,0.959,0.074c0.201,0,0.303,0.051,0.303,0.15c0,0.127-0.121,0.189-0.359,0.189
		c-0.477,0-1.061-0.01-1.75-0.029c-0.689-0.018-1.092-0.027-1.205-0.027c-0.111,0-0.467,0.01-1.063,0.027
		c-0.596,0.02-1.033,0.029-1.309,0.029c-0.252,0-0.377-0.063-0.377-0.189c0-0.088,0.139-0.145,0.414-0.168
		c0.189-0.025,0.377-0.045,0.564-0.057c0.289-0.063,0.471-0.408,0.547-1.035C251.367,42.854,251.399,41.518,251.399,39.396z"/>
	<path fill="#4D4D4D" d="M264.369,41.523V39.98c0-0.666-0.145-1.324-0.434-1.977c-0.074-0.152-0.568-0.973-1.477-2.467
		c-0.91-1.492-1.523-2.479-1.836-2.955c-0.465-0.689-0.898-1.148-1.299-1.375c-0.289-0.162-0.553-0.244-0.791-0.244
		c-0.188,0-0.281-0.057-0.281-0.17c0-0.111,0.119-0.168,0.357-0.168c0.088,0,0.447,0.008,1.082,0.027
		c0.633,0.02,1.063,0.029,1.289,0.029c0.1,0,0.383-0.01,0.848-0.029c0.463-0.02,0.854-0.027,1.166-0.027
		c0.189,0,0.283,0.057,0.283,0.168c0,0.076-0.139,0.145-0.414,0.207c-0.176,0.039-0.264,0.15-0.264,0.34
		c0,0.113,0.074,0.326,0.225,0.641c0.051,0.111,1.117,1.988,3.201,5.627c0.854-1.531,1.795-3.256,2.822-5.176
		c0.176-0.389,0.264-0.715,0.264-0.979c0-0.252-0.121-0.406-0.367-0.461c-0.244-0.057-0.365-0.123-0.365-0.199
		c0-0.111,0.105-0.168,0.318-0.168c0.215,0,0.518,0.008,0.914,0.027c0.395,0.02,0.68,0.029,0.855,0.029
		c0.139,0,0.48-0.01,1.027-0.029c0.545-0.02,0.875-0.027,0.988-0.027c0.225,0,0.338,0.049,0.338,0.15
		c0,0.125-0.123,0.188-0.367,0.188s-0.514,0.076-0.809,0.227s-0.637,0.457-1.027,0.922c-0.301,0.363-0.932,1.35-1.891,2.955
		c-0.961,1.607-1.527,2.617-1.703,3.031c-0.189,0.451-0.283,1.078-0.283,1.883v1.543c0,1.104,0.031,1.818,0.094,2.145
		c0.076,0.465,0.32,0.723,0.734,0.773c0.363,0.049,0.678,0.074,0.941,0.074c0.201,0,0.301,0.051,0.301,0.15
		c0,0.127-0.131,0.189-0.395,0.189c-0.451,0-1.018-0.01-1.695-0.029c-0.678-0.018-1.072-0.027-1.186-0.027
		c-0.139,0-0.502,0.01-1.092,0.027c-0.59,0.02-1.01,0.029-1.26,0.029c-0.277,0-0.414-0.063-0.414-0.189
		c0-0.074,0.137-0.131,0.414-0.168c0.174-0.025,0.357-0.045,0.545-0.057c0.352-0.076,0.547-0.422,0.584-1.035
		C264.35,42.865,264.369,42.238,264.369,41.523z"/>
</g>
<g>
	<path fill="#FFFFFF" d="M1.425,24.997C1.425,38.783,12.637,50,26.423,50c13.79,0,25.004-11.217,25.004-25.003S40.212,0,26.423,0
		C12.638,0,1.425,11.211,1.425,24.997z"/>
	<path fill="#003378" d="M2.165,24.995c0-13.378,10.887-24.259,24.26-24.259c13.382,0,24.263,10.881,24.263,24.259
		c0,13.382-10.881,24.269-24.263,24.269C13.051,49.264,2.165,38.377,2.165,24.995z"/>
	<path fill="#FFFFFF" d="M26.424,42.682c-9.762,0-17.679-7.916-17.679-17.68c0-9.769,7.917-17.683,17.679-17.683
		c9.766,0,17.684,7.915,17.684,17.683C44.108,34.766,36.19,42.682,26.424,42.682z"/>
	<g>
		<path fill="#FFFFFF" d="M5.976,30.74c0,0.377,0.303,0.686,0.68,0.686s0.682-0.309,0.682-0.686c0-0.375-0.305-0.68-0.682-0.68
			S5.976,30.365,5.976,30.74z"/>
		<circle fill="#FFFFFF" cx="46.438" cy="30.837" r="0.69"/>
	</g>
	<g>
		<g>
			<path fill="#FFFFFF" d="M6.948,16.861c-0.478-0.151-0.931-0.13-1.311,0.072c-0.418,0.217-0.737,0.63-0.912,1.189
				c-0.169,0.546-0.146,1.059,0.075,1.483c0.216,0.417,0.611,0.74,1.081,0.89c0.837,0.265,1.911-0.011,2.295-1.233
				c0.167-0.528,0.137-1.039-0.089-1.479C7.86,17.352,7.457,17.022,6.948,16.861z M7.95,18.989
				c-0.243,0.767-1.063,1.092-1.991,0.798c-1.152-0.364-1.116-1.066-0.996-1.453c0.101-0.305,0.299-0.549,0.587-0.696
				c0.367-0.19,0.844-0.208,1.342-0.05c0.511,0.16,0.846,0.399,1.003,0.701C8.046,18.577,7.993,18.852,7.95,18.989z"/>
		</g>
		<path fill="#FFFFFF" d="M11.752,12.427l-0.634-0.604l0.126-0.13c0,0,0.214,0.15,0.288,0.188c0.345,0.178,0.606-0.016,0.73-0.144
			c0.256-0.269,0.216-0.581,0.05-0.742c-0.159-0.149-0.356-0.236-0.8-0.169l-0.263,0.039c-0.608,0.09-0.989,0.009-1.279-0.268
			c-0.384-0.366-0.345-0.945,0.103-1.414c0.376-0.393,0.589-0.421,0.589-0.421l0.545,0.524l-0.134,0.142c0,0-0.13-0.169-0.359-0.191
			c-0.113-0.012-0.285-0.002-0.47,0.191c-0.21,0.22-0.224,0.479-0.036,0.658c0.128,0.121,0.282,0.17,0.771,0.092
			c0,0,0.156-0.025,0.157-0.026c0.704-0.105,1.067-0.034,1.389,0.273c0.145,0.138,0.375,0.439,0.287,0.894
			c-0.045,0.237-0.167,0.458-0.374,0.671C12.248,12.188,11.947,12.423,11.752,12.427z"/>
		<path fill="#FFFFFF" d="M41.73,13.239l0.722-0.497l0.101,0.152c0,0-0.191,0.177-0.244,0.242c-0.246,0.301-0.112,0.595-0.01,0.744
			c0.208,0.306,0.523,0.333,0.713,0.202c0.182-0.124,0.306-0.296,0.333-0.747l0.017-0.264c0.039-0.613,0.198-0.971,0.529-1.197
			c0.438-0.3,0.996-0.141,1.362,0.394c0.305,0.45,0.29,0.663,0.29,0.663l-0.628,0.427l-0.11-0.163c0,0,0.192-0.091,0.263-0.313
			c0.034-0.107,0.063-0.276-0.089-0.499c-0.172-0.25-0.422-0.317-0.634-0.172c-0.148,0.101-0.228,0.243-0.253,0.736l-0.007,0.16
			c-0.042,0.711-0.188,1.051-0.555,1.302c-0.165,0.112-0.506,0.275-0.935,0.096c-0.221-0.093-0.411-0.259-0.579-0.507
			C41.861,13.774,41.693,13.431,41.73,13.239z"/>
		<path fill="#FFFFFF" d="M14.411,7.854c0.186-0.139,0.237-0.08,0.382,0.113l0.131-0.098l-0.568-0.762l-0.132,0.099
			c0.145,0.194,0.187,0.26,0.001,0.397l-0.541,0.404L12.98,7.066c0,0,0.422-0.315,0.532-0.397c0.249-0.187,0.361-0.059,0.501,0.132
			l0.132-0.099l-0.43-0.575L11.9,7.484l0.098,0.131c0.122-0.091,0.349-0.289,0.545-0.028c0.197,0.264,1.515,2.026,1.515,2.026
			c0.225,0.302,0.113,0.353-0.101,0.511l0.108,0.141l1.853-1.384l-0.471-0.625l-0.132,0.098c0.205,0.277,0.168,0.456-0.021,0.598
			c-0.125,0.094-0.581,0.435-0.581,0.435l-0.84-1.126c0,0,0-0.002-0.002-0.003L14.411,7.854z"/>
		<path fill="#FFFFFF" d="M38.532,8.045c0.192,0.129,0.154,0.195,0.017,0.397l0.137,0.093l0.53-0.791l-0.137-0.091
			c-0.135,0.201-0.183,0.263-0.375,0.134L38.144,7.41L38.8,6.432c0,0,0.437,0.292,0.551,0.369c0.258,0.174,0.174,0.322,0.042,0.517
			l0.134,0.092l0.4-0.598l-1.88-1.259l-0.092,0.135c0.126,0.085,0.388,0.234,0.206,0.506c-0.182,0.272-1.406,2.102-1.406,2.102
			c-0.209,0.313-0.293,0.224-0.515,0.076l-0.098,0.147l1.922,1.288l0.432-0.65l-0.137-0.095c-0.192,0.287-0.374,0.312-0.569,0.181
			c-0.129-0.087-0.603-0.404-0.603-0.404l0.783-1.167c0,0,0-0.003,0.001-0.003L38.532,8.045z"/>
		<path fill="#FFFFFF" d="M16.365,5.116c-0.102-0.201-0.008-0.259,0.24-0.385l-0.076-0.146L15.25,5.24l0.075,0.146
			c0,0,0.326-0.23,0.46,0.028c0.065,0.129,1.244,2.427,1.244,2.427c0.104,0.202,0.002,0.262-0.245,0.388l0.075,0.146l1.378-0.708
			l-0.072-0.145c-0.207,0.107-0.432,0.258-0.552,0.018C17.49,7.303,16.365,5.116,16.365,5.116z"/>
		<path fill="#FFFFFF" d="M23.774,4.264l-0.282-1.402c-0.042-0.223,0.062-0.249,0.336-0.305l-0.033-0.161l-1.226,0.247l0.032,0.158
			c0,0,0.377-0.136,0.434,0.153c0.012,0.057,0.298,1.482,0.298,1.482c0.095,0.474,0.153,0.857-0.032,1.137
			c-0.167,0.251-0.44,0.33-0.548,0.352c-0.161,0.03-0.354,0.048-0.575-0.069c-0.202-0.107-0.411-0.305-0.552-1.009l-0.312-1.549
			c-0.043-0.221,0.062-0.25,0.338-0.305l-0.033-0.161L20.21,3.115l0.031,0.159c0,0,0.377-0.133,0.435,0.153
			c0.012,0.064,0.316,1.575,0.316,1.575c0.114,0.577,0.321,0.934,0.651,1.13c0.416,0.248,0.884,0.153,1.082,0.115
			c0.266-0.054,0.604-0.161,0.887-0.522C23.928,5.317,23.878,4.783,23.774,4.264z"/>
		<path fill="#FFFFFF" d="M31.941,3.397c0.05-0.222,0.158-0.204,0.43-0.141l0.038-0.16l-1.402-0.325l-0.035,0.16
			c0,0,0.396,0.032,0.332,0.318c-0.033,0.141-0.615,2.657-0.615,2.657c-0.052,0.221-0.167,0.201-0.438,0.138l-0.037,0.16l1.511,0.35
			l0.036-0.157c-0.227-0.052-0.494-0.082-0.434-0.343C31.386,5.793,31.941,3.397,31.941,3.397z"/>
		<path fill="#FFFFFF" d="M46.601,15.556c0.204-0.1,0.256-0.007,0.38,0.244l0.148-0.072l-0.635-1.29l-0.145,0.071
			c0,0,0.227,0.328-0.039,0.458c-0.129,0.064-2.445,1.204-2.445,1.204c-0.205,0.098-0.261-0.003-0.384-0.254l-0.147,0.074
			l0.683,1.391l0.146-0.072c-0.103-0.208-0.25-0.434-0.01-0.551C44.393,16.639,46.601,15.556,46.601,15.556z"/>
		<path fill="#FFFFFF" d="M47.775,17.217l-0.717,0.104l0.051,0.18c0.238-0.035,0.41-0.05,0.5,0.251
			c0.016,0.056,0.049,0.165,0.195,0.663c-0.401,0.119-2.699,0.798-2.699,0.798c-0.217,0.064-0.255-0.047-0.334-0.314l-0.158,0.046
			l0.44,1.488l0.155-0.044c-0.065-0.224-0.172-0.472,0.083-0.548c0.237-0.07,2.351-0.695,2.7-0.797
			c0.148,0.497,0.181,0.607,0.197,0.662c0.088,0.3-0.064,0.382-0.283,0.481l0.055,0.181l0.659-0.301L47.775,17.217z"/>
		<path fill="#FFFFFF" d="M42.848,9.627c-0.06-0.31-0.271-0.552-0.471-0.749l-0.964-0.956L41.3,8.04c0,0,0.321,0.235,0.116,0.444
			c-0.103,0.104-1.918,1.938-1.918,1.938c-0.16,0.161-0.247,0.083-0.446-0.113l-0.114,0.119l1.102,1.087l0.112-0.112
			c-0.165-0.164-0.377-0.33-0.189-0.521l0.728-0.735l0.294,0.292l-0.127,0.787c-0.069,0.451-0.092,0.721-0.025,0.933
			c0.042,0.139,0.114,0.241,0.293,0.421l0.332,0.328l0.106-0.108l-0.078-0.095c-0.041-0.061-0.142-0.211-0.138-0.562
			c0.006-0.337,0.054-0.76,0.111-1.296c0,0,0.019-0.172,0.026-0.22c0.531,0.047,0.875-0.047,1.141-0.315
			C42.865,10.07,42.874,9.76,42.848,9.627z M42.031,10.05c-0.288,0.291-0.527,0.306-0.644,0.287c-0.09-0.013-0.14-0.039-0.265-0.162
			l-0.231-0.229l1.07-1.081l0.157,0.154C42.294,9.192,42.477,9.6,42.031,10.05z"/>
		<g>
			<path fill="#FFFFFF" d="M6.145,22.722c-0.147-0.014-0.282-0.025-0.432-0.104c-0.179-0.096-1.182-0.823-1.351-0.991
				c-0.113-0.108-0.157-0.158-0.191-0.247c-0.029-0.07-0.037-0.139-0.033-0.187c0.004-0.044,0.01-0.126,0.01-0.126l-0.162-0.016
				l-0.107,1.154l0.168,0.017c0,0,0.008-0.088,0.01-0.121c0.002-0.033,0.038-0.059,0.08-0.054c0.058,0.004,0.128,0.032,0.212,0.08
				c0.067,0.037,1.116,0.751,1.116,0.751s-1.237,0.573-1.351,0.613c-0.025,0.011-0.105,0.042-0.141,0.038
				c-0.016-0.001-0.036-0.013-0.038-0.035c0-0.001-0.005-0.024-0.005-0.024c-0.003-0.03,0.005-0.106,0.005-0.106l-0.16-0.017
				l-0.117,1.305l0.159,0.013c0,0,0.011-0.18,0.084-0.286c0.057-0.084,0.184-0.182,0.345-0.27c0.254-0.14,1.301-0.652,1.37-0.674
				c0.137-0.048,0.234-0.08,0.47-0.059c0,0,0.468,0.043,0.761,0.071c0.292,0.024,0.286,0.186,0.265,0.41l0.152,0.016l0.14-1.536
				l-0.148-0.014c-0.023,0.256-0.023,0.499-0.36,0.467C6.557,22.759,6.145,22.722,6.145,22.722z"/>
		</g>
		<g>
			<path fill="#FFFFFF" d="M46.74,23.437c0.144-0.014,0.281-0.028,0.442,0.022c0.195,0.059,1.316,0.583,1.514,0.716
				c0.131,0.087,0.184,0.126,0.234,0.209c0.042,0.062,0.063,0.128,0.067,0.178c0.004,0.042,0.012,0.125,0.012,0.125l0.164-0.016
				l-0.112-1.153l-0.168,0.016c0,0,0.009,0.087,0.012,0.119c0.003,0.032-0.025,0.066-0.066,0.069
				c-0.058,0.006-0.132-0.008-0.225-0.037c-0.072-0.027-1.237-0.529-1.237-0.529s1.106-0.796,1.21-0.856
				c0.024-0.015,0.097-0.06,0.133-0.063c0.015-0.003,0.036,0.006,0.043,0.027c0.001,0,0.009,0.022,0.009,0.022
				c0.01,0.029,0.016,0.106,0.016,0.106l0.16-0.018l-0.129-1.301l-0.16,0.017c0,0,0.023,0.18-0.028,0.298
				c-0.041,0.092-0.146,0.211-0.287,0.329c-0.224,0.184-1.156,0.885-1.219,0.92c-0.126,0.071-0.216,0.122-0.45,0.145
				c0,0-0.468,0.046-0.759,0.074c-0.293,0.03-0.318-0.129-0.339-0.354l-0.154,0.016l0.153,1.534l0.146-0.015
				c-0.025-0.257-0.07-0.494,0.269-0.526C46.324,23.478,46.74,23.437,46.74,23.437z"/>
		</g>
		<g>
			<path fill="#FFFFFF" d="M10.862,13.691l-0.123,0.2L7.36,14.652l1.651,1.021c0.351,0.215,0.469-0.057,0.589-0.251l0.142,0.086
				l-0.684,1.107l-0.143-0.086c0.108-0.175,0.237-0.343-0.095-0.548c-0.333-0.205-2.541-1.569-2.541-1.569l0.115-0.186
				c0.577-0.128,3.338-0.733,3.427-0.753c0,0-1.408-0.87-1.715-1.059c-0.304-0.188-0.438,0.062-0.531,0.213l-0.14-0.086l0.631-1.022
				l0.142,0.088c-0.101,0.162-0.215,0.313,0.089,0.5C8.602,12.295,10.862,13.691,10.862,13.691z"/>
		</g>
		<g>
			<path fill="#FFFFFF" d="M28.669,5.966l-0.234-0.013l-2.269-2.618l-0.118,1.936c-0.025,0.412,0.269,0.387,0.501,0.401
				l-0.011,0.166l-1.301-0.077l0.01-0.169c0.206,0.014,0.415,0.048,0.438-0.342c0.024-0.392,0.181-2.98,0.181-2.98l0.218,0.015
				c0.385,0.447,2.224,2.592,2.283,2.662c0,0,0.102-1.652,0.122-2.009c0.022-0.357-0.26-0.359-0.437-0.37l0.009-0.164l1.198,0.073
				l-0.01,0.168c-0.191-0.012-0.376-0.042-0.399,0.314C28.831,3.315,28.669,5.966,28.669,5.966z"/>
		</g>
		<path fill="#FFFFFF" d="M37.059,5.089L37.1,4.925l-1.05-0.459L35.983,4.62l0.123,0.053c0.041,0.018,0.071,0.052,0.063,0.09
			c-0.014,0.058-0.073,0.13-0.131,0.2l-0.977,0.984c0,0-0.555,0.552-0.632,0.628c0.004-0.091,0.065-1.35,0.093-1.897l0.027-0.483
			c0.004-0.025,0-0.093,0.032-0.125c0.01-0.014,0.051-0.036,0.112-0.012l0.124,0.054l0.065-0.153l-1.222-0.532l-0.064,0.146
			c0,0,0.168,0.068,0.231,0.165c0.047,0.074,0.07,0.213,0.063,0.375l-0.052,3.275l0.136,0.061l1.86-1.713l0.667-0.605
			c0,0,0.22-0.192,0.442-0.092L37.059,5.089z"/>
	</g>
	<g>
		<g>
			<path fill="#FFFFFF" d="M27.572,44.061c0,0.041,0,1.076,0,1.076h-0.287c0,0,0-1.035,0-1.076c-0.039,0-0.69,0-0.729,0
				c0,0.023,0,0.064,0,0.088l0,0c0.072,0,0.142,0.125,0.142,0.256c0,0,0,1.289,0,2.32c-0.356,0-1.51,0-1.51,0v-2.076
				c0,0,0.963,0,1.003,0c0-0.037,0-0.453,0-0.488c-0.04,0-1.735,0-1.775,0c0,0.023,0,0.063,0,0.086l0,0
				c0.072,0,0.144,0.121,0.144,0.256c0,0,0,2.672,0,2.715c0.036,0,1.703,0,2.138,0c0,0.443,0,0.764,0,0.775c0.039,0,0.548,0,0.586,0
				c0-0.041,0-2.367,0-2.367h0.287c0,0,0,2.326,0,2.367c0.038,0,0.589,0,0.629,0c0-0.041,0-3.891,0-3.932l0,0
				C28.2,44.061,27.613,44.061,27.572,44.061z"/>
		</g>
		<g>
			<path fill="#FFFFFF" d="M44.568,38.129c-0.504-0.418-2.393-1.986-2.419-2.008h-0.001c0,0-1.947,2.346-1.974,2.381
				c0.028,0.021,0.347,0.287,0.376,0.313c0.026-0.035,1.573-1.896,1.573-1.896s1.586,1.316,2.042,1.695
				c-0.171,0.209-0.307,0.373-0.307,0.373s-1.035-0.855-1.065-0.885c-0.026,0.035-0.361,0.436-0.384,0.465
				c0.031,0.027,1.064,0.883,1.064,0.883l-0.207,0.248c0,0-1.032-0.855-1.064-0.883c-0.025,0.031-0.421,0.51-0.447,0.541
				c0.018,0.014,0.046,0.041,0.065,0.055h0.002c0.045-0.059,0.187-0.029,0.288,0.053l0.799,0.662c0,0-0.423,0.518-0.451,0.545
				c0.03,0.023,0.349,0.289,0.379,0.313c0.025-0.031,2.326-2.803,2.353-2.836c-0.031-0.02-0.35-0.287-0.379-0.313
				C44.802,37.846,44.701,37.969,44.568,38.129z"/>
		</g>
		<g>
			<path fill="#FFFFFF" d="M18.982,42.58c-0.017,0.041-1.625,3.535-1.643,3.574c0.036,0.016,0.537,0.248,0.574,0.262
				c0.014-0.039,1.624-3.533,1.644-3.57h-0.004C19.552,42.844,19.021,42.596,18.982,42.58z"/>
			<path fill="#FFFFFF" d="M18.111,42.18c-0.012,0.021-0.027,0.057-0.039,0.08h0.001c0.067,0.031,0.077,0.172,0.022,0.293
				l-0.305,0.662c0,0-0.562-0.258-0.599-0.273c-0.017,0.033-0.188,0.41-0.205,0.445c0.037,0.016,0.599,0.275,0.599,0.275
				s-0.972,2.109-0.99,2.148c0.036,0.016,0.473,0.221,0.507,0.232c0.017-0.039,1.625-3.537,1.643-3.572l-0.001-0.002
				C18.745,42.471,18.148,42.195,18.111,42.18z"/>
			<path fill="#FFFFFF" d="M16.467,43.279l-0.019-0.039l0.014-0.012c0.438-0.332,0.763-0.74,0.994-1.24l0,0
				c-0.035-0.018-0.793-0.365-0.828-0.383c-0.009,0.02-0.028,0.059-0.037,0.078l0,0c0.008,0.008,0.163,0.127,0.029,0.416v0.002
				c-0.008,0.018-0.454,0.986-1.785,1.424c0.015,0.037,0.137,0.346,0.148,0.375h0.001c0.005,0,0.446-0.053,1.048-0.395l0.02-0.01
				l0.01,0.02c0.089,0.186,0.226,0.465,0.355,1.184c0.054-0.031,0.491-0.279,0.516-0.293C16.863,44.107,16.698,43.707,16.467,43.279
				z"/>
		</g>
		<g>
			<path fill="#FFFFFF" d="M34.561,45.654c0.038-0.02,2.376-1.139,2.376-1.139s0.349,0.727,0.365,0.764
				c0.038-0.018,0.534-0.258,0.57-0.273c-0.018-0.035-0.561-1.17-0.58-1.207c-0.04,0.021-2.905,1.396-2.946,1.412
				C34.363,45.246,34.543,45.621,34.561,45.654z"/>
			<path fill="#FFFFFF" d="M36.17,41.461c-0.036,0.02-0.662,0.316-0.698,0.338c0.01,0.02,0.028,0.053,0.039,0.078v-0.002
				c0.067-0.033,0.183,0.051,0.239,0.17c0,0,0.812,1.686,0.831,1.725c0.033-0.018,0.532-0.256,0.565-0.273
				c-0.017-0.035-0.309-0.645-0.309-0.645s0.523-0.25,0.56-0.268c-0.016-0.037-0.175-0.367-0.192-0.4
				c-0.037,0.018-0.557,0.27-0.557,0.27S36.188,41.5,36.17,41.461z"/>
			<path fill="#FFFFFF" d="M33.584,44.174c0.235,0.49,0.88,0.674,1.438,0.406c0.557-0.27,0.816-0.885,0.582-1.379
				c-0.12-0.246-0.346-0.418-0.612-0.486c0.245-0.117,0.414-0.199,0.422-0.207c-0.017-0.033-0.194-0.406-0.209-0.441
				c-0.039,0.02-0.796,0.383-0.796,0.383s-0.128-0.266-0.145-0.301l0,0c0,0-0.661,0.316-0.697,0.334
				c0.01,0.023,0.027,0.057,0.038,0.08v-0.002c0.057-0.025,0.157,0.037,0.219,0.143l0.013,0.021c0,0-0.811,0.387-0.849,0.408
				c0.017,0.031,0.195,0.404,0.212,0.438c0.011-0.004,0.164-0.076,0.385-0.184C33.472,43.641,33.464,43.922,33.584,44.174z
				 M34.841,44.205c-0.273,0.131-0.609,0.006-0.746-0.279c-0.136-0.281-0.024-0.619,0.25-0.754c0.274-0.131,0.609-0.006,0.745,0.277
				C35.224,43.734,35.114,44.074,34.841,44.205z"/>
		</g>
		<g>
			<path fill="#FFFFFF" d="M9.421,38.404L9.421,38.404c0,0-0.482-0.555-0.509-0.584c-0.017,0.014-0.048,0.041-0.065,0.059h0.001
				c0.047,0.057-0.001,0.188-0.099,0.273c0,0-0.674,0.586-0.702,0.613c0.027,0.031,1.951,2.238,1.978,2.271
				c0.03-0.027,0.342-0.301,0.371-0.322c-0.029-0.033-1.564-1.795-1.564-1.795S9.39,38.43,9.421,38.404z"/>
			<path fill="#FFFFFF" d="M10.616,38.541c0.181,0.207,0.531,0.611,0.531,0.611s-0.738,0.645-0.77,0.672
				c0.026,0.031,0.391,0.447,0.415,0.475c0.033-0.023,2.108-1.84,2.138-1.865c-0.024-0.031-0.48-0.555-0.507-0.584
				c-0.018,0.018-0.049,0.041-0.066,0.061l0,0c0.048,0.055,0,0.188-0.101,0.275l-0.112,0.1c0,0-0.476-0.543-0.583-0.666
				c0.033-0.318-0.068-0.656-0.303-0.93c-0.429-0.488-1.145-0.566-1.597-0.174C9.21,36.91,9.19,37.629,9.619,38.119
				C9.885,38.422,10.262,38.57,10.616,38.541z M11.776,38.605l-0.257,0.223c0,0-0.218-0.25-0.4-0.459
				c0.034-0.021,0.067-0.047,0.098-0.076c0.057-0.049,0.105-0.1,0.148-0.16C11.542,38.34,11.776,38.605,11.776,38.605z
				 M10.054,36.961c0.264-0.229,0.647-0.219,0.861,0.023c0.211,0.244,0.171,0.631-0.093,0.855c-0.262,0.229-0.649,0.219-0.86-0.023
				C9.75,37.574,9.793,37.191,10.054,36.961z"/>
		</g>
	</g>
</g>
<g>
	<path fill="#003378" d="M26.424,16.507c-1.436,0-2.601,1.164-2.601,2.597c0,1.435,1.165,2.598,2.601,2.598
		c1.433,0,2.599-1.163,2.599-2.598C29.023,17.671,27.857,16.507,26.424,16.507z"/>
	<path fill="#003378" d="M20.148,37.752c1.628,1.416,3.681,2.766,6.278,3.963c2.598-1.197,4.651-2.547,6.279-3.965l-6.278-6.291
		L20.148,37.752z"/>
	<path fill="#003378" d="M39.205,22.776v-8.673c0,0-7.395,0.237-12.779-3.903c-5.383,4.14-12.778,3.903-12.778,3.903v8.673
		c0,0-0.049,1.861,0.275,3.898c4.047-0.744,8.224-1.137,12.504-1.137c4.28,0,8.458,0.393,12.504,1.137
		C39.255,24.637,39.205,22.776,39.205,22.776z M26.425,24.176c-2.806,0-5.081-2.27-5.081-5.074c0-2.8,2.274-5.071,5.081-5.071
		c2.809,0,5.083,2.271,5.083,5.071C31.508,21.906,29.235,24.176,26.425,24.176z"/>
	<path fill="#003378" d="M14.053,27.4c0.055,0.271,0.117,0.541,0.188,0.807c0.6,2.291,1.672,4.938,3.861,7.488l8.324-8.338
		l8.323,8.338c2.188-2.553,3.262-5.197,3.861-7.488c0.071-0.266,0.133-0.535,0.188-0.807c-4.005-0.736-8.141-1.123-12.373-1.123
		S18.059,26.664,14.053,27.4z"/>
</g>
<g>
	<path fill="#FFFFFF" d="M17.75,21.135h1.196c0.041,0,0.074-0.033,0.074-0.076v-2.453c0-0.042-0.033-0.074-0.074-0.074h-0.97
		c-0.166,0-0.301,0.134-0.301,0.3v2.227C17.675,21.102,17.709,21.135,17.75,21.135z"/>
	<path fill="#FFFFFF" d="M16.094,21.135h1.196c0.042,0,0.074-0.033,0.074-0.076v-2.227c0-0.166-0.134-0.3-0.3-0.3h-0.97
		c-0.041,0-0.073,0.033-0.073,0.074v2.453C16.021,21.102,16.052,21.135,16.094,21.135z"/>
	<path fill="#FFFFFF" d="M19.576,18.959h-0.253v2.435h-1.512l-0.002,0.025c-0.013,0.148-0.14,0.265-0.29,0.265
		c-0.148,0-0.276-0.116-0.288-0.265l-0.003-0.025h-1.512v-2.435h-0.253c-0.041,0-0.075,0.033-0.075,0.073v2.583
		c0,0.04,0.034,0.074,0.075,0.074h1.516c0.105,0.192,0.308,0.323,0.541,0.323c0.233,0,0.438-0.131,0.542-0.323h1.516
		c0.041,0,0.074-0.034,0.074-0.074v-2.583C19.652,18.993,19.617,18.959,19.576,18.959z"/>
</g>
<g>
	<path fill="#FFFFFF" d="M35.698,20.865h-0.987c-0.053,0-0.092,0.038-0.085,0.087l0.322,2.063c0.012,0.083,0.083,0.152,0.172,0.152
		h0.167c0.09,0,0.16-0.069,0.171-0.152l0.323-2.063C35.79,20.903,35.752,20.865,35.698,20.865z"/>
	<path fill="#FFFFFF" d="M35.841,19.961c0.256-0.223,0.846-0.872,0.783-1.237c-0.068-0.396-1.17-0.962-1.233-1.394
		c-0.035-0.193,0.04-0.46,0.144-0.67c0.014-0.04-0.025-0.047-0.067-0.015c-0.02,0.016-0.919,0.688-0.926,1.152
		c-0.002,0.184,0.126,0.387,0.348,0.57c0.18,0.149,0.415,0.284,0.598,0.466c0.087,0.084,0.159,0.16,0.204,0.293
		c0.089,0.249-0.163,0.646-0.32,0.835h-0.359c0.147-0.175,0.303-0.407,0.362-0.635c0.146-0.556-1.242-0.695-1.035-1.534l0,0
		c0.011-0.031-0.024-0.043-0.057-0.018c-0.015,0.011-0.55,0.53-0.554,0.893c-0.004,0.313,0.634,0.604,0.933,1.026
		c0.052,0.09,0.039,0.183-0.001,0.269h-0.567c0,0-0.133-0.017-0.078,0.111l0.153,0.477c0,0,0.027,0.064,0.12,0.064h1.825
		c0.094,0,0.122-0.064,0.122-0.064l0.158-0.482c0.04-0.116-0.089-0.106-0.089-0.106L35.841,19.961L35.841,19.961z"/>
</g>
<g>
	<path fill="#FFFFFF" d="M23.947,36.352c-0.091,0.066-0.561,0.375-0.575,0.385c-0.03,0.014-0.043,0.041-0.043,0.064
		c0,0.035,0.024,0.063,0.053,0.063l0.045-0.014l0.077-0.033c0.056-0.025,0.175-0.08,0.199-0.08c0.004,0.006,0.006,0.051,0.006,0.051
		v0.328v0.4L23.7,38.076c-0.009,0.076-0.019,0.09-0.072,0.104l-0.193,0.014c-0.028,0-0.054,0.023-0.054,0.063
		c0,0.025,0.013,0.057,0.078,0.057l0.302-0.004h0.125h0.107l0.309,0.004c0.064,0,0.075-0.027,0.075-0.057
		c0-0.039-0.028-0.063-0.056-0.063l-0.157-0.016c-0.052-0.01-0.067-0.025-0.07-0.102l-0.013-0.563v-0.461l0.013-0.617v-0.037
		c0-0.078-0.046-0.084-0.06-0.084L23.947,36.352z"/>
	<path fill="#FFFFFF" d="M25.046,37.805c0-0.242,0.157-0.379,0.26-0.443c0.208,0.121,0.387,0.232,0.387,0.455
		c0,0.205-0.129,0.344-0.318,0.344C25.19,38.16,25.046,38.008,25.046,37.805z M24.787,36.801c0,0.234,0.174,0.373,0.328,0.461
		c-0.268,0.121-0.426,0.324-0.426,0.557l0,0c0,0.328,0.263,0.527,0.665,0.527c0.463,0,0.703-0.293,0.703-0.588
		c0-0.305-0.242-0.463-0.417-0.563c0.112-0.055,0.331-0.195,0.331-0.463c0-0.26-0.221-0.42-0.55-0.42
		C24.957,36.314,24.787,36.605,24.787,36.801z M25.124,36.75c0-0.121,0.068-0.262,0.267-0.262c0.118,0,0.24,0.084,0.24,0.268
		c0,0.193-0.11,0.295-0.208,0.34C25.199,36.967,25.124,36.879,25.124,36.75z"/>
	<path fill="#FFFFFF" d="M26.78,37.805c0-0.242,0.157-0.379,0.258-0.443c0.211,0.121,0.389,0.232,0.389,0.455
		c0,0.205-0.13,0.344-0.318,0.344C26.926,38.16,26.78,38.008,26.78,37.805z M26.523,36.801c0,0.234,0.173,0.373,0.327,0.461
		c-0.266,0.121-0.426,0.324-0.426,0.557c0,0.328,0.264,0.527,0.668,0.527c0.46,0,0.7-0.293,0.7-0.588
		c0-0.305-0.246-0.463-0.418-0.563c0.119-0.055,0.328-0.195,0.328-0.463c0-0.26-0.216-0.42-0.549-0.42
		C26.691,36.314,26.523,36.605,26.523,36.801z M26.856,36.75c0-0.121,0.071-0.262,0.269-0.262c0.119,0,0.24,0.084,0.24,0.268
		c0,0.193-0.11,0.295-0.21,0.34C26.937,36.967,26.856,36.879,26.856,36.75z"/>
	<path fill="#FFFFFF" d="M29.191,36.344l-0.161,0.012h-0.615c-0.067,0-0.08,0.039-0.08,0.063l-0.063,0.662
		c0,0.027,0.005,0.076,0.079,0.09c0.168,0.021,0.603,0.166,0.603,0.563c0,0.313-0.205,0.422-0.38,0.422
		c-0.205,0-0.306-0.1-0.306-0.299c0-0.07-0.032-0.078-0.056-0.078c-0.047,0-0.064,0.057-0.065,0.072
		c0,0.004-0.008,0.285-0.008,0.285v0.035c0,0.055,0.002,0.1,0.064,0.131h0.002c0.063,0.027,0.16,0.047,0.253,0.047
		c0.591,0,0.859-0.385,0.859-0.74c0-0.428-0.42-0.652-0.826-0.729c0.005-0.047,0.021-0.195,0.027-0.244c0.055,0,0.426,0,0.426,0
		c0.181,0,0.181,0.055,0.181,0.104c0,0.063,0.05,0.066,0.059,0.066c0.031,0,0.056-0.021,0.06-0.055l0.035-0.328
		c0-0.025,0-0.084-0.06-0.084L29.191,36.344z"/>
</g>
<g>
	<path fill="#FFFFFF" d="M18.103,35.695c0.595,0.695,1.272,1.383,2.045,2.057l6.279-6.293l6.278,6.291
		c0.773-0.672,1.45-1.357,2.045-2.055l-8.323-8.338L18.103,35.695z"/>
	<path fill="#FFFFFF" d="M26.426,25.538c-4.28,0-8.457,0.392-12.504,1.136c0.039,0.24,0.082,0.484,0.132,0.727
		c4.005-0.734,8.14-1.123,12.372-1.123s8.368,0.387,12.373,1.123c0.049-0.24,0.093-0.484,0.131-0.727
		C34.884,25.93,30.707,25.538,26.426,25.538z"/>
	<path fill="#FFFFFF" d="M31.508,19.102c0-2.8-2.273-5.071-5.083-5.071c-2.806,0-5.081,2.271-5.081,5.071
		c0,2.804,2.274,5.074,5.081,5.074C29.235,24.176,31.508,21.906,31.508,19.102z M26.424,21.702c-1.436,0-2.601-1.163-2.601-2.598
		c0-1.433,1.165-2.597,2.601-2.597c1.433,0,2.599,1.164,2.599,2.597C29.023,20.539,27.857,21.702,26.424,21.702z"/>
</g>
</svg>
