<?xml version="1.0" encoding="utf-8"?>
<!-- Generator: Adobe Illustrator 16.0.0, SVG Export Plug-In . SVG Version: 6.00 Build 0)  -->
<!DOCTYPE svg PUBLIC "-//W3C//DTD SVG 1.1//EN" "http://www.w3.org/Graphics/SVG/1.1/DTD/svg11.dtd">
<svg version="1.1" id="레이어_1" xmlns="http://www.w3.org/2000/svg" xmlns:xlink="http://www.w3.org/1999/xlink" x="0px"
	 y="0px" width="160px" height="50px" viewBox="0 0 160 50" enable-background="new 0 0 160 50" xml:space="preserve">
<g>
	<path fill="#FFFFFF" d="M1.96,24.685c0,13.786,11.213,25.002,24.998,25.002c13.79,0,25.004-11.217,25.004-25.002
		c0-13.786-11.215-24.997-25.004-24.997C13.174-0.312,1.96,10.899,1.96,24.685z"/>
	<path fill="#003378" d="M2.7,24.683c0-13.378,10.887-24.259,24.26-24.259c13.382,0,24.263,10.881,24.263,24.259
		c0,13.381-10.881,24.268-24.263,24.268C13.586,48.951,2.7,38.064,2.7,24.683z"/>
	<path fill="#FFFFFF" d="M26.959,42.369c-9.762,0-17.679-7.916-17.679-17.679c0-9.769,7.917-17.683,17.679-17.683
		c9.766,0,17.684,7.915,17.684,17.683C44.643,34.453,36.725,42.369,26.959,42.369z"/>
	<g>
		<path fill="#FFFFFF" d="M6.511,30.428c0,0.377,0.303,0.686,0.68,0.686s0.682-0.309,0.682-0.686c0-0.375-0.305-0.68-0.682-0.68
			S6.511,30.053,6.511,30.428z"/>
		<circle fill="#FFFFFF" cx="46.973" cy="30.525" r="0.691"/>
	</g>
	<g>
		<g>
			<path fill="#FFFFFF" d="M7.484,16.549c-0.478-0.151-0.931-0.13-1.311,0.072c-0.418,0.217-0.737,0.63-0.912,1.189
				c-0.169,0.546-0.146,1.059,0.075,1.483c0.216,0.417,0.611,0.74,1.081,0.89c0.837,0.265,1.911-0.011,2.295-1.233
				c0.167-0.528,0.137-1.039-0.089-1.479C8.395,17.04,7.992,16.71,7.484,16.549z M8.486,18.677
				c-0.243,0.767-1.063,1.092-1.991,0.798c-1.152-0.364-1.116-1.066-0.996-1.453c0.101-0.305,0.299-0.549,0.587-0.696
				c0.367-0.19,0.844-0.208,1.342-0.05c0.511,0.16,0.846,0.399,1.003,0.701C8.581,18.265,8.529,18.54,8.486,18.677z"/>
		</g>
		<path fill="#FFFFFF" d="M12.287,12.115l-0.634-0.604l0.126-0.13c0,0,0.214,0.15,0.288,0.188c0.345,0.178,0.606-0.016,0.73-0.144
			c0.256-0.269,0.216-0.581,0.05-0.742c-0.159-0.149-0.356-0.236-0.8-0.169l-0.263,0.039c-0.608,0.09-0.989,0.009-1.279-0.268
			c-0.384-0.366-0.345-0.945,0.103-1.414c0.376-0.393,0.589-0.421,0.589-0.421l0.545,0.524l-0.134,0.142c0,0-0.13-0.169-0.359-0.191
			c-0.113-0.012-0.285-0.002-0.47,0.191c-0.21,0.22-0.224,0.479-0.036,0.658c0.128,0.121,0.282,0.17,0.771,0.092
			c0,0,0.156-0.025,0.157-0.026c0.704-0.105,1.067-0.034,1.389,0.273c0.145,0.138,0.375,0.439,0.287,0.894
			c-0.045,0.237-0.167,0.458-0.374,0.671C12.783,11.876,12.482,12.111,12.287,12.115z"/>
		<path fill="#FFFFFF" d="M42.265,12.927l0.722-0.497l0.101,0.152c0,0-0.191,0.177-0.244,0.242c-0.246,0.301-0.112,0.595-0.01,0.744
			c0.208,0.306,0.523,0.333,0.713,0.202c0.182-0.124,0.306-0.296,0.333-0.747l0.017-0.264c0.039-0.613,0.198-0.971,0.529-1.197
			c0.438-0.3,0.996-0.141,1.362,0.394c0.305,0.45,0.29,0.663,0.29,0.663l-0.628,0.427l-0.11-0.163c0,0,0.192-0.091,0.263-0.313
			c0.034-0.107,0.063-0.276-0.089-0.499c-0.172-0.25-0.422-0.317-0.634-0.172c-0.148,0.101-0.228,0.243-0.253,0.736l-0.007,0.16
			c-0.042,0.711-0.188,1.051-0.555,1.302c-0.165,0.112-0.506,0.275-0.935,0.096c-0.221-0.093-0.411-0.259-0.579-0.507
			C42.396,13.462,42.228,13.119,42.265,12.927z"/>
		<path fill="#FFFFFF" d="M14.947,7.542c0.186-0.139,0.237-0.08,0.382,0.113l0.131-0.098l-0.568-0.762L14.76,6.894
			c0.145,0.194,0.187,0.26,0.001,0.397L14.22,7.695l-0.705-0.941c0,0,0.422-0.315,0.532-0.397c0.249-0.187,0.361-0.059,0.501,0.132
			L14.68,6.39l-0.43-0.575l-1.815,1.357l0.098,0.131c0.122-0.091,0.349-0.289,0.545-0.028c0.197,0.264,1.515,2.026,1.515,2.026
			c0.225,0.302,0.113,0.353-0.101,0.511L14.6,9.953l1.853-1.384l-0.471-0.625L15.85,8.042c0.205,0.277,0.168,0.456-0.021,0.598
			c-0.125,0.094-0.581,0.435-0.581,0.435l-0.84-1.126c0,0,0-0.002-0.002-0.003L14.947,7.542z"/>
		<path fill="#FFFFFF" d="M39.068,7.733c0.192,0.129,0.154,0.195,0.017,0.397l0.137,0.093l0.53-0.791l-0.137-0.091
			c-0.135,0.201-0.183,0.263-0.375,0.134l-0.561-0.377l0.656-0.978c0,0,0.437,0.292,0.551,0.369
			c0.258,0.174,0.174,0.322,0.042,0.517l0.134,0.092l0.4-0.598l-1.88-1.259L38.49,5.376c0.126,0.085,0.388,0.234,0.206,0.506
			c-0.182,0.272-1.406,2.102-1.406,2.102c-0.209,0.313-0.293,0.224-0.515,0.076l-0.098,0.147l1.922,1.288l0.432-0.65L38.894,8.75
			c-0.192,0.287-0.374,0.312-0.569,0.181c-0.129-0.087-0.603-0.404-0.603-0.404l0.783-1.167c0,0,0-0.003,0.001-0.003L39.068,7.733z"
			/>
		<path fill="#FFFFFF" d="M16.9,4.804c-0.102-0.201-0.008-0.259,0.24-0.385l-0.076-0.146l-1.279,0.655l0.075,0.146
			c0,0,0.326-0.231,0.46,0.028c0.065,0.129,1.244,2.427,1.244,2.427c0.104,0.202,0.002,0.262-0.245,0.388l0.075,0.146l1.378-0.708
			L18.7,7.21c-0.207,0.107-0.432,0.258-0.552,0.018C18.025,6.991,16.9,4.804,16.9,4.804z"/>
		<path fill="#FFFFFF" d="M24.309,3.952L24.027,2.55c-0.042-0.223,0.062-0.249,0.336-0.305L24.33,2.084l-1.226,0.247l0.032,0.158
			c0,0,0.377-0.136,0.434,0.153c0.012,0.057,0.298,1.482,0.298,1.482c0.095,0.474,0.153,0.857-0.032,1.137
			c-0.167,0.251-0.44,0.33-0.548,0.352c-0.161,0.03-0.354,0.048-0.575-0.069c-0.202-0.107-0.411-0.305-0.552-1.009l-0.312-1.549
			c-0.043-0.221,0.062-0.25,0.338-0.305L22.154,2.52l-1.409,0.283l0.031,0.159c0,0,0.377-0.133,0.435,0.153
			c0.012,0.064,0.316,1.575,0.316,1.575c0.114,0.577,0.321,0.934,0.651,1.13c0.416,0.248,0.884,0.153,1.082,0.115
			c0.266-0.054,0.605-0.161,0.887-0.522C24.464,5.005,24.413,4.471,24.309,3.952z"/>
		<path fill="#FFFFFF" d="M32.476,3.085c0.05-0.222,0.158-0.204,0.43-0.141l0.038-0.16l-1.402-0.325l-0.035,0.16
			c0,0,0.396,0.032,0.332,0.318c-0.033,0.141-0.615,2.657-0.615,2.657c-0.052,0.221-0.167,0.201-0.438,0.138l-0.037,0.16l1.511,0.35
			l0.036-0.157c-0.227-0.052-0.494-0.082-0.434-0.343C31.922,5.481,32.476,3.085,32.476,3.085z"/>
		<path fill="#FFFFFF" d="M47.136,15.244c0.204-0.1,0.256-0.007,0.38,0.244l0.148-0.072l-0.635-1.29l-0.145,0.071
			c0,0,0.227,0.328-0.039,0.458c-0.129,0.064-2.445,1.204-2.445,1.204c-0.205,0.098-0.261-0.003-0.384-0.254l-0.147,0.074
			l0.683,1.391l0.146-0.072c-0.103-0.208-0.25-0.434-0.01-0.551C44.928,16.327,47.136,15.244,47.136,15.244z"/>
		<path fill="#FFFFFF" d="M48.31,16.905l-0.717,0.104l0.051,0.18c0.238-0.035,0.41-0.05,0.5,0.251
			c0.016,0.056,0.049,0.165,0.195,0.663c-0.401,0.119-2.699,0.798-2.699,0.798c-0.217,0.064-0.255-0.047-0.334-0.314l-0.158,0.046
			l0.44,1.488l0.155-0.044c-0.065-0.224-0.172-0.472,0.083-0.548c0.237-0.07,2.351-0.695,2.7-0.797
			c0.148,0.497,0.181,0.607,0.197,0.662c0.088,0.3-0.064,0.382-0.283,0.481l0.055,0.181l0.659-0.301L48.31,16.905z"/>
		<path fill="#FFFFFF" d="M43.384,9.315c-0.06-0.31-0.271-0.552-0.471-0.749L41.949,7.61l-0.114,0.118c0,0,0.321,0.235,0.116,0.444
			c-0.103,0.104-1.918,1.938-1.918,1.938c-0.16,0.161-0.247,0.083-0.446-0.113l-0.114,0.119l1.102,1.087l0.112-0.112
			c-0.165-0.164-0.377-0.33-0.189-0.521l0.728-0.735l0.294,0.292l-0.127,0.787c-0.069,0.451-0.092,0.721-0.025,0.933
			c0.042,0.139,0.114,0.241,0.293,0.421l0.332,0.328l0.106-0.108l-0.078-0.095c-0.041-0.061-0.142-0.211-0.138-0.562
			c0.006-0.337,0.054-0.76,0.111-1.296c0,0,0.019-0.172,0.026-0.22c0.531,0.047,0.875-0.047,1.141-0.315
			C43.401,9.758,43.409,9.448,43.384,9.315z M42.567,9.738c-0.288,0.291-0.527,0.306-0.644,0.287
			c-0.09-0.013-0.14-0.039-0.265-0.162l-0.231-0.229l1.07-1.081l0.157,0.154C42.829,8.88,43.012,9.288,42.567,9.738z"/>
		<g>
			<path fill="#FFFFFF" d="M6.68,22.41c-0.147-0.014-0.282-0.025-0.432-0.104c-0.179-0.096-1.182-0.823-1.351-0.991
				c-0.113-0.108-0.157-0.158-0.191-0.247c-0.029-0.07-0.037-0.139-0.033-0.187c0.004-0.044,0.01-0.126,0.01-0.126l-0.162-0.016
				l-0.107,1.154l0.168,0.017c0,0,0.008-0.088,0.01-0.121c0.002-0.033,0.038-0.059,0.08-0.054c0.058,0.004,0.128,0.032,0.212,0.08
				C4.951,21.852,6,22.566,6,22.566s-1.237,0.573-1.351,0.613c-0.025,0.011-0.105,0.042-0.141,0.038
				c-0.016-0.001-0.036-0.013-0.038-0.035c0-0.001-0.005-0.024-0.005-0.024c-0.003-0.03,0.005-0.106,0.005-0.106l-0.16-0.017
				L4.193,24.34l0.159,0.013c0,0,0.011-0.18,0.084-0.286c0.057-0.084,0.184-0.182,0.345-0.27c0.254-0.14,1.301-0.652,1.37-0.674
				c0.137-0.048,0.234-0.08,0.47-0.059c0,0,0.468,0.043,0.761,0.071c0.292,0.024,0.286,0.186,0.265,0.41l0.152,0.016l0.14-1.536
				l-0.148-0.014c-0.023,0.256-0.023,0.499-0.36,0.467C7.093,22.447,6.68,22.41,6.68,22.41z"/>
		</g>
		<g>
			<path fill="#FFFFFF" d="M47.275,23.125c0.144-0.014,0.281-0.028,0.442,0.022c0.195,0.059,1.316,0.583,1.514,0.716
				c0.131,0.087,0.184,0.126,0.234,0.209c0.042,0.062,0.063,0.128,0.067,0.178c0.004,0.042,0.012,0.125,0.012,0.125l0.164-0.016
				l-0.112-1.153l-0.168,0.016c0,0,0.009,0.087,0.012,0.119c0.003,0.032-0.025,0.066-0.066,0.069
				c-0.058,0.006-0.132-0.008-0.225-0.037c-0.072-0.027-1.237-0.529-1.237-0.529s1.106-0.796,1.21-0.856
				c0.024-0.015,0.097-0.06,0.133-0.063c0.015-0.003,0.036,0.006,0.043,0.027c0.001,0,0.009,0.022,0.009,0.022
				c0.01,0.029,0.016,0.106,0.016,0.106l0.16-0.018l-0.129-1.301l-0.16,0.017c0,0,0.023,0.18-0.028,0.298
				c-0.041,0.092-0.146,0.211-0.287,0.329c-0.224,0.184-1.156,0.885-1.219,0.92c-0.126,0.071-0.216,0.122-0.45,0.145
				c0,0-0.468,0.046-0.759,0.074c-0.293,0.03-0.318-0.129-0.339-0.354l-0.154,0.016l0.153,1.534l0.146-0.015
				c-0.025-0.257-0.07-0.494,0.269-0.526C46.86,23.166,47.275,23.125,47.275,23.125z"/>
		</g>
		<g>
			<path fill="#FFFFFF" d="M11.397,13.379l-0.123,0.2L7.895,14.34l1.651,1.021c0.351,0.215,0.469-0.057,0.589-0.251l0.142,0.086
				l-0.684,1.107L9.45,16.217c0.108-0.175,0.237-0.343-0.095-0.548C9.022,15.464,6.814,14.1,6.814,14.1l0.115-0.186
				c0.577-0.128,3.338-0.733,3.427-0.753c0,0-1.408-0.87-1.715-1.059c-0.304-0.188-0.438,0.062-0.531,0.213l-0.14-0.086l0.631-1.022
				l0.142,0.088c-0.101,0.162-0.215,0.313,0.089,0.5C9.137,11.983,11.397,13.379,11.397,13.379z"/>
		</g>
		<g>
			<path fill="#FFFFFF" d="M29.204,5.654L28.97,5.641l-2.269-2.618l-0.118,1.936c-0.025,0.412,0.269,0.387,0.501,0.401l-0.011,0.166
				l-1.301-0.077l0.01-0.169c0.206,0.014,0.415,0.048,0.438-0.342c0.024-0.392,0.181-2.98,0.181-2.98l0.218,0.015
				c0.385,0.447,2.224,2.592,2.283,2.662c0,0,0.102-1.652,0.122-2.009c0.022-0.357-0.26-0.359-0.437-0.37l0.009-0.164l1.198,0.073
				l-0.01,0.168c-0.191-0.012-0.376-0.042-0.399,0.314C29.366,3.003,29.204,5.654,29.204,5.654z"/>
		</g>
		<path fill="#FFFFFF" d="M37.594,4.777l0.041-0.164l-1.05-0.459l-0.067,0.154l0.123,0.053c0.041,0.018,0.071,0.052,0.063,0.09
			c-0.014,0.058-0.073,0.13-0.131,0.2l-0.977,0.984c0,0-0.555,0.552-0.632,0.628c0.004-0.091,0.065-1.35,0.093-1.897l0.027-0.483
			c0.004-0.025,0-0.093,0.032-0.125c0.01-0.014,0.051-0.036,0.112-0.012L35.352,3.8l0.065-0.153l-1.222-0.532l-0.064,0.146
			c0,0,0.168,0.068,0.231,0.165c0.047,0.074,0.07,0.213,0.063,0.375l-0.052,3.275l0.136,0.061l1.86-1.713l0.667-0.605
			c0,0,0.22-0.192,0.442-0.092L37.594,4.777z"/>
	</g>
	<g>
		<g>
			<path fill="#FFFFFF" d="M28.107,43.748c0,0.041,0,1.076,0,1.076H27.82c0,0,0-1.035,0-1.076c-0.039,0-0.69,0-0.729,0
				c0,0.023,0,0.064,0,0.088l0,0c0.072,0,0.142,0.125,0.142,0.256c0,0,0,1.289,0,2.32c-0.356,0-1.51,0-1.51,0v-2.076
				c0,0,0.963,0,1.003,0c0-0.037,0-0.453,0-0.488c-0.04,0-1.735,0-1.775,0c0,0.023,0,0.062,0,0.086l0,0
				c0.072,0,0.144,0.121,0.144,0.256c0,0,0,2.672,0,2.715c0.036,0,1.703,0,2.138,0c0,0.443,0,0.763,0,0.775c0.039,0,0.548,0,0.586,0
				c0-0.041,0-2.367,0-2.367h0.287c0,0,0,2.326,0,2.367c0.038,0,0.589,0,0.629,0c0-0.041,0-3.891,0-3.932l0,0
				C28.736,43.748,28.148,43.748,28.107,43.748z"/>
		</g>
		<g>
			<path fill="#FFFFFF" d="M45.103,37.816c-0.504-0.418-2.393-1.986-2.419-2.008h-0.001c0,0-1.947,2.346-1.974,2.381
				c0.028,0.022,0.347,0.287,0.376,0.313c0.026-0.035,1.573-1.896,1.573-1.896s1.586,1.316,2.042,1.695
				c-0.171,0.209-0.307,0.373-0.307,0.373s-1.035-0.855-1.065-0.885c-0.026,0.035-0.361,0.436-0.384,0.465
				c0.031,0.027,1.064,0.883,1.064,0.883l-0.207,0.248c0,0-1.032-0.855-1.064-0.883c-0.025,0.031-0.421,0.51-0.447,0.541
				c0.018,0.014,0.046,0.041,0.065,0.055h0.002c0.045-0.059,0.187-0.029,0.288,0.053l0.799,0.662c0,0-0.423,0.517-0.451,0.545
				c0.03,0.023,0.349,0.289,0.379,0.313c0.025-0.032,2.326-2.803,2.353-2.836c-0.031-0.021-0.35-0.287-0.379-0.313
				C45.337,37.533,45.237,37.656,45.103,37.816z"/>
		</g>
		<g>
			<path fill="#FFFFFF" d="M19.517,42.268c-0.017,0.041-1.625,3.535-1.643,3.574c0.036,0.016,0.537,0.248,0.574,0.262
				c0.014-0.039,1.624-3.533,1.644-3.571h-0.004C20.088,42.531,19.556,42.283,19.517,42.268z"/>
			<path fill="#FFFFFF" d="M18.646,41.867c-0.012,0.021-0.027,0.057-0.039,0.08h0.001c0.067,0.031,0.077,0.172,0.022,0.293
				l-0.305,0.662c0,0-0.562-0.258-0.599-0.273c-0.017,0.033-0.188,0.41-0.205,0.445c0.037,0.016,0.599,0.275,0.599,0.275
				s-0.972,2.11-0.99,2.149c0.036,0.015,0.473,0.22,0.507,0.233c0.017-0.039,1.625-3.537,1.643-3.573l-0.001-0.002
				C19.281,42.158,18.683,41.883,18.646,41.867z"/>
			<path fill="#FFFFFF" d="M17.002,42.967l-0.019-0.039l0.014-0.012c0.438-0.332,0.763-0.74,0.994-1.24l0,0
				c-0.035-0.018-0.793-0.365-0.828-0.383c-0.009,0.02-0.028,0.059-0.037,0.078l0,0c0.008,0.008,0.163,0.127,0.029,0.416v0.002
				c-0.008,0.018-0.454,0.986-1.785,1.424c0.015,0.037,0.137,0.346,0.148,0.375h0.001c0.005,0,0.446-0.053,1.048-0.395l0.02-0.01
				l0.01,0.02c0.089,0.186,0.226,0.465,0.355,1.184c0.054-0.031,0.491-0.279,0.516-0.293C17.398,43.795,17.234,43.395,17.002,42.967
				z"/>
		</g>
		<g>
			<path fill="#FFFFFF" d="M35.096,45.342c0.038-0.02,2.376-1.139,2.376-1.139s0.349,0.727,0.365,0.764
				c0.038-0.018,0.534-0.258,0.57-0.273c-0.018-0.036-0.561-1.17-0.58-1.207c-0.04,0.021-2.905,1.396-2.946,1.412
				C34.898,44.934,35.078,45.309,35.096,45.342z"/>
			<path fill="#FFFFFF" d="M36.705,41.148c-0.036,0.02-0.662,0.317-0.698,0.338c0.01,0.02,0.028,0.053,0.039,0.078v-0.002
				c0.067-0.033,0.183,0.051,0.239,0.17c0,0,0.812,1.686,0.831,1.725c0.033-0.018,0.532-0.256,0.565-0.273
				c-0.017-0.035-0.309-0.645-0.309-0.645s0.523-0.25,0.56-0.268c-0.016-0.037-0.175-0.367-0.192-0.4
				c-0.037,0.018-0.557,0.27-0.557,0.27S36.723,41.188,36.705,41.148z"/>
			<path fill="#FFFFFF" d="M34.119,43.861c0.235,0.49,0.88,0.674,1.438,0.406c0.557-0.269,0.816-0.884,0.582-1.379
				c-0.12-0.246-0.346-0.418-0.612-0.486c0.245-0.117,0.414-0.199,0.422-0.207c-0.017-0.033-0.194-0.406-0.209-0.441
				c-0.039,0.02-0.796,0.383-0.796,0.383s-0.128-0.266-0.145-0.301l0,0c0,0-0.661,0.316-0.697,0.334
				c0.01,0.023,0.027,0.057,0.038,0.08v-0.002c0.057-0.025,0.157,0.037,0.219,0.143l0.013,0.021c0,0-0.811,0.387-0.849,0.408
				c0.017,0.031,0.195,0.404,0.212,0.438c0.011-0.004,0.164-0.077,0.385-0.184C34.008,43.328,33.999,43.609,34.119,43.861z
				 M35.376,43.893c-0.273,0.131-0.609,0.006-0.746-0.279c-0.136-0.282-0.024-0.62,0.25-0.754c0.274-0.131,0.609-0.006,0.745,0.277
				C35.76,43.422,35.649,43.762,35.376,43.893z"/>
		</g>
		<g>
			<path fill="#FFFFFF" d="M9.956,38.092L9.956,38.092c0,0-0.482-0.555-0.509-0.584c-0.017,0.014-0.048,0.041-0.065,0.059h0.001
				c0.047,0.056-0.001,0.188-0.099,0.273c0,0-0.674,0.586-0.702,0.613c0.027,0.031,1.951,2.238,1.978,2.271
				c0.03-0.027,0.342-0.3,0.371-0.322c-0.029-0.033-1.564-1.795-1.564-1.795S9.926,38.117,9.956,38.092z"/>
			<path fill="#FFFFFF" d="M11.152,38.229c0.181,0.207,0.531,0.611,0.531,0.611s-0.738,0.645-0.77,0.672
				c0.026,0.031,0.391,0.447,0.415,0.475c0.033-0.024,2.108-1.84,2.138-1.866c-0.024-0.031-0.48-0.554-0.507-0.584
				c-0.018,0.017-0.049,0.041-0.066,0.06l0,0c0.048,0.055,0,0.188-0.101,0.276l-0.112,0.099c0,0-0.476-0.543-0.583-0.666
				c0.033-0.318-0.068-0.656-0.303-0.929c-0.429-0.489-1.145-0.567-1.597-0.174c-0.452,0.394-0.472,1.114-0.042,1.604
				C10.42,38.109,10.798,38.258,11.152,38.229z M12.311,38.293l-0.257,0.223c0,0-0.218-0.25-0.4-0.459
				c0.034-0.021,0.067-0.047,0.098-0.076c0.057-0.049,0.105-0.1,0.148-0.16C12.077,38.027,12.311,38.293,12.311,38.293z
				 M10.59,36.648c0.264-0.228,0.647-0.219,0.861,0.024c0.211,0.244,0.171,0.63-0.093,0.856c-0.262,0.229-0.649,0.218-0.86-0.024
				C10.285,37.262,10.328,36.879,10.59,36.648z"/>
		</g>
	</g>
</g>
<g>
	<path fill="#003378" d="M26.959,16.195c-1.436,0-2.601,1.164-2.601,2.597c0,1.435,1.165,2.598,2.601,2.598
		c1.433,0,2.599-1.163,2.599-2.598C29.558,17.359,28.392,16.195,26.959,16.195z"/>
	<path fill="#003378" d="M20.683,37.439c1.628,1.416,3.681,2.766,6.278,3.963c2.598-1.197,4.651-2.547,6.279-3.965l-6.278-6.291
		L20.683,37.439z"/>
	<path fill="#003378" d="M39.74,22.464v-8.673c0,0-7.395,0.237-12.779-3.903c-5.383,4.14-12.778,3.903-12.778,3.903v8.673
		c0,0-0.049,1.861,0.275,3.897c4.047-0.744,8.224-1.136,12.504-1.136c4.28,0,8.458,0.392,12.504,1.136
		C39.79,24.325,39.74,22.464,39.74,22.464z M26.96,23.864c-2.806,0-5.081-2.27-5.081-5.074c0-2.8,2.274-5.071,5.081-5.071
		c2.809,0,5.083,2.271,5.083,5.071C32.043,21.594,29.77,23.864,26.96,23.864z"/>
	<path fill="#003378" d="M14.589,27.088c0.055,0.271,0.117,0.541,0.188,0.807c0.6,2.291,1.672,4.937,3.861,7.488l8.324-8.338
		l8.323,8.338c2.188-2.553,3.262-5.197,3.861-7.488c0.071-0.266,0.133-0.535,0.188-0.807c-4.005-0.736-8.141-1.123-12.373-1.123
		S18.594,26.352,14.589,27.088z"/>
</g>
<g>
	<path fill="#FFFFFF" d="M18.285,20.823h1.196c0.041,0,0.074-0.033,0.074-0.076v-2.453c0-0.042-0.033-0.074-0.074-0.074h-0.97
		c-0.166,0-0.301,0.134-0.301,0.3v2.227C18.21,20.79,18.244,20.823,18.285,20.823z"/>
	<path fill="#FFFFFF" d="M16.629,20.823h1.196c0.042,0,0.074-0.033,0.074-0.076V18.52c0-0.166-0.134-0.3-0.3-0.3h-0.97
		c-0.041,0-0.073,0.033-0.073,0.074v2.453C16.556,20.79,16.588,20.823,16.629,20.823z"/>
	<path fill="#FFFFFF" d="M20.112,18.647h-0.253v2.435h-1.512l-0.002,0.025c-0.013,0.148-0.14,0.265-0.29,0.265
		c-0.148,0-0.276-0.116-0.288-0.265l-0.003-0.025h-1.512v-2.435h-0.253c-0.041,0-0.075,0.033-0.075,0.073v2.583
		c0,0.04,0.034,0.074,0.075,0.074h1.516c0.105,0.192,0.308,0.323,0.541,0.323c0.233,0,0.438-0.131,0.542-0.323h1.516
		c0.041,0,0.074-0.034,0.074-0.074V18.72C20.187,18.681,20.153,18.647,20.112,18.647z"/>
</g>
<g>
	<path fill="#FFFFFF" d="M36.233,20.553h-0.987c-0.053,0-0.092,0.038-0.085,0.087l0.322,2.063c0.012,0.083,0.083,0.152,0.172,0.152
		h0.167c0.09,0,0.16-0.069,0.171-0.152l0.323-2.063C36.325,20.591,36.287,20.553,36.233,20.553z"/>
	<path fill="#FFFFFF" d="M36.376,19.649c0.256-0.223,0.846-0.872,0.783-1.237c-0.068-0.396-1.17-0.962-1.233-1.394
		c-0.035-0.193,0.04-0.46,0.144-0.67c0.014-0.04-0.025-0.047-0.067-0.015c-0.02,0.016-0.919,0.688-0.926,1.152
		c-0.002,0.184,0.126,0.387,0.348,0.57c0.18,0.149,0.415,0.284,0.598,0.466c0.087,0.084,0.159,0.16,0.204,0.293
		c0.089,0.249-0.163,0.646-0.32,0.835h-0.359c0.147-0.175,0.303-0.407,0.362-0.635c0.146-0.556-1.242-0.695-1.035-1.534l0,0
		c0.011-0.031-0.024-0.043-0.057-0.018c-0.015,0.011-0.55,0.53-0.554,0.893c-0.004,0.313,0.634,0.604,0.933,1.026
		c0.052,0.09,0.039,0.183-0.001,0.269h-0.567c0,0-0.133-0.017-0.078,0.111l0.153,0.477c0,0,0.027,0.064,0.12,0.064h1.825
		c0.094,0,0.122-0.064,0.122-0.064l0.158-0.482c0.04-0.116-0.089-0.106-0.089-0.106L36.376,19.649L36.376,19.649z"/>
</g>
<g>
	<path fill="#FFFFFF" d="M24.482,36.039c-0.091,0.066-0.561,0.375-0.575,0.385c-0.03,0.014-0.043,0.041-0.043,0.064
		c0,0.035,0.024,0.063,0.053,0.063l0.045-0.014l0.077-0.033c0.056-0.025,0.175-0.08,0.199-0.08c0.004,0.006,0.006,0.051,0.006,0.051
		v0.328v0.4l-0.008,0.561c-0.009,0.076-0.019,0.09-0.072,0.103l-0.193,0.014c-0.028,0-0.054,0.024-0.054,0.063
		c0,0.025,0.013,0.056,0.078,0.056l0.302-0.004h0.125h0.107l0.309,0.004c0.064,0,0.075-0.028,0.075-0.056
		c0-0.039-0.028-0.063-0.056-0.063L24.7,37.865c-0.052-0.01-0.067-0.025-0.07-0.102l-0.013-0.562V36.74l0.013-0.617v-0.037
		c0-0.078-0.046-0.084-0.06-0.084L24.482,36.039z"/>
	<path fill="#FFFFFF" d="M25.581,37.492c0-0.242,0.157-0.379,0.26-0.443c0.208,0.121,0.387,0.232,0.387,0.455
		c0,0.205-0.129,0.344-0.318,0.344C25.725,37.848,25.581,37.695,25.581,37.492z M25.323,36.488c0,0.234,0.174,0.373,0.328,0.461
		c-0.268,0.121-0.426,0.324-0.426,0.557l0,0c0,0.328,0.263,0.527,0.665,0.527c0.463,0,0.703-0.293,0.703-0.588
		c0-0.305-0.242-0.463-0.417-0.562c0.112-0.055,0.331-0.196,0.331-0.463c0-0.26-0.221-0.42-0.55-0.42
		C25.492,36.002,25.323,36.293,25.323,36.488z M25.659,36.438c0-0.121,0.068-0.262,0.267-0.262c0.118,0,0.24,0.084,0.24,0.268
		c0,0.193-0.11,0.295-0.208,0.339C25.735,36.654,25.659,36.566,25.659,36.438z"/>
	<path fill="#FFFFFF" d="M27.315,37.492c0-0.242,0.157-0.379,0.258-0.443c0.211,0.121,0.389,0.232,0.389,0.455
		c0,0.205-0.13,0.344-0.318,0.344C27.461,37.848,27.315,37.695,27.315,37.492z M27.058,36.488c0,0.234,0.173,0.373,0.327,0.461
		c-0.266,0.121-0.426,0.324-0.426,0.557c0,0.328,0.264,0.527,0.668,0.527c0.46,0,0.7-0.293,0.7-0.588
		c0-0.305-0.246-0.463-0.418-0.562c0.119-0.055,0.328-0.196,0.328-0.463c0-0.26-0.216-0.42-0.549-0.42
		C27.226,36.002,27.058,36.293,27.058,36.488z M27.391,36.438c0-0.121,0.071-0.262,0.269-0.262c0.119,0,0.24,0.084,0.24,0.268
		c0,0.193-0.11,0.295-0.21,0.339C27.472,36.654,27.391,36.566,27.391,36.438z"/>
	<path fill="#FFFFFF" d="M29.726,36.031l-0.161,0.012H28.95c-0.067,0-0.08,0.039-0.08,0.063l-0.063,0.662
		c0,0.027,0.005,0.076,0.079,0.09c0.168,0.021,0.603,0.166,0.603,0.562c0,0.313-0.205,0.422-0.38,0.422
		c-0.205,0-0.306-0.1-0.306-0.299c0-0.071-0.032-0.078-0.056-0.078c-0.047,0-0.064,0.056-0.065,0.072
		c0,0.004-0.008,0.286-0.008,0.286v0.035c0,0.054,0.002,0.099,0.064,0.131h0.002c0.062,0.027,0.16,0.046,0.253,0.046
		c0.591,0,0.859-0.384,0.859-0.74c0-0.428-0.42-0.653-0.826-0.728c0.005-0.047,0.021-0.196,0.027-0.244c0.055,0,0.426,0,0.426,0
		c0.181,0,0.181,0.054,0.181,0.103c0,0.063,0.05,0.066,0.059,0.066c0.031,0,0.056-0.021,0.06-0.054l0.035-0.328
		c0-0.026,0-0.084-0.06-0.084L29.726,36.031z"/>
</g>
<g>
	<path fill="#FFFFFF" d="M18.638,35.383c0.595,0.695,1.272,1.383,2.045,2.057l6.279-6.293l6.278,6.291
		c0.773-0.672,1.45-1.358,2.045-2.055l-8.323-8.338L18.638,35.383z"/>
	<path fill="#FFFFFF" d="M26.961,25.226c-4.28,0-8.457,0.392-12.504,1.135c0.039,0.24,0.082,0.484,0.132,0.728
		c4.005-0.735,8.14-1.123,12.372-1.123s8.368,0.386,12.373,1.123c0.049-0.241,0.093-0.485,0.131-0.728
		C35.419,25.618,31.242,25.226,26.961,25.226z"/>
	<path fill="#FFFFFF" d="M32.043,18.79c0-2.8-2.273-5.071-5.083-5.071c-2.806,0-5.081,2.271-5.081,5.071
		c0,2.804,2.274,5.074,5.081,5.074C29.77,23.864,32.043,21.594,32.043,18.79z M26.959,21.39c-1.436,0-2.601-1.163-2.601-2.598
		c0-1.433,1.165-2.597,2.601-2.597c1.433,0,2.599,1.164,2.599,2.597C29.558,20.227,28.392,21.39,26.959,21.39z"/>
</g>
<image overflow="visible" width="630" height="276" xlink:href="BB833838.jpg"  transform="matrix(0.1703 0 0 0.1703 51.9619 1.4995)">
</image>
</svg>
