<?xml version="1.0" encoding="utf-8"?>
<!-- Generator: Adobe Illustrator 16.0.0, SVG Export Plug-In . SVG Version: 6.00 Build 0)  -->
<!DOCTYPE svg PUBLIC "-//W3C//DTD SVG 1.1//EN" "http://www.w3.org/Graphics/SVG/1.1/DTD/svg11.dtd">
<svg version="1.1" id="레이어_1" xmlns="http://www.w3.org/2000/svg" xmlns:xlink="http://www.w3.org/1999/xlink" x="0px"
	 y="0px" width="350px" height="50px" viewBox="0 0 350 50" enable-background="new 0 0 350 50" xml:space="preserve">
<g>
	<g>
		<path fill="#FFFFFF" d="M0,24.997C0,38.783,11.214,50,24.998,50c13.789,0,25.004-11.217,25.004-25.003S38.787,0,24.998,0
			C11.214,0,0,11.211,0,24.997z"/>
		<path fill="#003378" d="M0.74,24.995C0.74,11.618,11.626,0.736,25,0.736c13.381,0,24.263,10.882,24.263,24.259
			c0,13.382-10.882,24.269-24.263,24.269C11.626,49.264,0.74,38.377,0.74,24.995z"/>
		<path fill="#FFFFFF" d="M24.999,42.681c-9.762,0-17.679-7.914-17.679-17.678c0-9.769,7.917-17.683,17.679-17.683
			c9.766,0,17.684,7.915,17.684,17.683C42.683,34.767,34.765,42.681,24.999,42.681z"/>
		<g>
			<path fill="#FFFFFF" d="M4.55,30.74c0,0.376,0.304,0.685,0.68,0.685c0.377,0,0.683-0.309,0.683-0.685
				c0-0.375-0.305-0.68-0.683-0.68C4.854,30.061,4.55,30.365,4.55,30.74z"/>
			<circle fill="#FFFFFF" cx="45.013" cy="30.837" r="0.691"/>
		</g>
		<g>
			<g>
				<path fill="#FFFFFF" d="M5.524,16.862c-0.478-0.151-0.931-0.13-1.311,0.072c-0.418,0.217-0.736,0.63-0.912,1.189
					c-0.169,0.546-0.146,1.058,0.075,1.483c0.216,0.417,0.61,0.741,1.081,0.89c0.837,0.265,1.911-0.011,2.295-1.232
					c0.167-0.528,0.138-1.039-0.089-1.479C6.435,17.352,6.032,17.022,5.524,16.862z M6.526,18.989
					c-0.244,0.767-1.063,1.093-1.991,0.798c-1.152-0.364-1.116-1.066-0.995-1.453c0.1-0.305,0.299-0.549,0.586-0.696
					c0.367-0.19,0.845-0.208,1.342-0.05c0.511,0.16,0.845,0.399,1.002,0.701C6.621,18.578,6.569,18.853,6.526,18.989z"/>
			</g>
			<path fill="#FFFFFF" d="M10.326,12.428l-0.634-0.604l0.125-0.13c0,0,0.214,0.15,0.288,0.188c0.346,0.178,0.606-0.016,0.73-0.144
				c0.256-0.269,0.216-0.581,0.05-0.742c-0.159-0.149-0.356-0.236-0.8-0.169l-0.263,0.039c-0.608,0.09-0.989,0.009-1.28-0.268
				c-0.384-0.366-0.345-0.945,0.103-1.414c0.376-0.393,0.589-0.421,0.589-0.421L9.78,9.287L9.646,9.429c0,0-0.13-0.169-0.359-0.191
				c-0.113-0.012-0.285-0.002-0.47,0.191c-0.21,0.22-0.224,0.478-0.036,0.658c0.128,0.121,0.282,0.169,0.772,0.092
				c0,0,0.156-0.025,0.156-0.026c0.704-0.105,1.067-0.034,1.389,0.273c0.145,0.138,0.375,0.439,0.287,0.894
				c-0.045,0.237-0.167,0.458-0.374,0.671C10.823,12.188,10.522,12.424,10.326,12.428z"/>
			<path fill="#FFFFFF" d="M40.305,13.239l0.722-0.497l0.101,0.153c0,0-0.191,0.177-0.244,0.242
				c-0.246,0.301-0.111,0.595-0.01,0.744c0.209,0.306,0.523,0.333,0.714,0.202c0.182-0.124,0.305-0.297,0.332-0.747l0.017-0.264
				c0.039-0.613,0.198-0.971,0.528-1.197c0.439-0.3,0.996-0.141,1.362,0.394c0.306,0.45,0.29,0.663,0.29,0.663l-0.628,0.427
				l-0.11-0.163c0,0,0.192-0.09,0.263-0.313c0.034-0.107,0.062-0.276-0.089-0.499c-0.172-0.25-0.422-0.317-0.634-0.173
				c-0.148,0.102-0.227,0.243-0.253,0.736l-0.007,0.159c-0.042,0.711-0.188,1.052-0.555,1.302c-0.165,0.113-0.506,0.275-0.935,0.096
				c-0.221-0.092-0.411-0.259-0.579-0.506C40.435,13.775,40.268,13.431,40.305,13.239z"/>
			<path fill="#FFFFFF" d="M12.987,7.854c0.185-0.139,0.237-0.08,0.382,0.113L13.5,7.869l-0.569-0.761L12.8,7.206
				c0.146,0.195,0.188,0.26,0.001,0.398L12.26,8.007l-0.706-0.941c0,0,0.422-0.315,0.532-0.397c0.249-0.186,0.361-0.059,0.502,0.132
				l0.131-0.099l-0.43-0.575l-1.815,1.357l0.098,0.131c0.122-0.092,0.35-0.29,0.545-0.028c0.197,0.264,1.516,2.026,1.516,2.026
				c0.225,0.302,0.112,0.353-0.101,0.511l0.108,0.141l1.854-1.384l-0.471-0.625l-0.132,0.098c0.205,0.277,0.168,0.455-0.021,0.597
				c-0.125,0.094-0.581,0.435-0.581,0.435l-0.84-1.125c0,0,0-0.002-0.002-0.003L12.987,7.854z"/>
			<path fill="#FFFFFF" d="M37.107,8.046c0.192,0.129,0.154,0.195,0.017,0.397l0.137,0.093l0.53-0.792l-0.138-0.09
				c-0.135,0.201-0.182,0.262-0.375,0.134l-0.562-0.377l0.656-0.979c0,0,0.437,0.293,0.551,0.37
				c0.259,0.173,0.174,0.321,0.043,0.517l0.134,0.092l0.399-0.599l-1.88-1.259l-0.092,0.135c0.126,0.085,0.388,0.234,0.206,0.506
				c-0.182,0.272-1.407,2.102-1.407,2.102c-0.209,0.313-0.293,0.223-0.515,0.076L34.716,8.52l1.922,1.289l0.432-0.65l-0.137-0.095
				c-0.191,0.287-0.374,0.312-0.569,0.18c-0.129-0.086-0.603-0.404-0.603-0.404l0.783-1.167c0,0,0-0.003,0.001-0.003L37.107,8.046z"
				/>
			<path fill="#FFFFFF" d="M14.94,5.117c-0.102-0.201-0.008-0.259,0.241-0.385l-0.076-0.146L13.825,5.24L13.9,5.386
				c0,0,0.326-0.231,0.46,0.028c0.065,0.129,1.244,2.427,1.244,2.427c0.104,0.202,0.002,0.262-0.245,0.388l0.075,0.146l1.378-0.708
				L16.74,7.522c-0.207,0.107-0.432,0.258-0.553,0.018C16.065,7.304,14.94,5.117,14.94,5.117z"/>
			<path fill="#FFFFFF" d="M22.349,4.265l-0.281-1.402c-0.042-0.223,0.062-0.249,0.335-0.304L22.37,2.397l-1.226,0.247l0.032,0.158
				c0,0,0.377-0.135,0.434,0.153c0.011,0.057,0.298,1.482,0.298,1.482c0.095,0.474,0.153,0.857-0.032,1.137
				c-0.167,0.251-0.44,0.33-0.548,0.352c-0.161,0.03-0.354,0.048-0.575-0.069c-0.202-0.107-0.411-0.305-0.551-1.009L19.89,3.299
				c-0.043-0.222,0.063-0.25,0.338-0.305l-0.035-0.162l-1.409,0.283l0.032,0.159c0,0,0.377-0.133,0.435,0.153
				c0.012,0.064,0.316,1.575,0.316,1.575c0.115,0.576,0.322,0.934,0.651,1.13c0.416,0.248,0.883,0.153,1.081,0.115
				c0.266-0.054,0.605-0.161,0.887-0.522C22.504,5.317,22.453,4.784,22.349,4.265z"/>
			<path fill="#FFFFFF" d="M30.516,3.397c0.05-0.223,0.158-0.204,0.43-0.141l0.038-0.16l-1.402-0.326l-0.035,0.16
				c0,0,0.397,0.032,0.332,0.318c-0.033,0.141-0.615,2.656-0.615,2.656c-0.051,0.222-0.166,0.201-0.438,0.139l-0.037,0.16
				l1.511,0.35l0.037-0.157c-0.227-0.052-0.494-0.083-0.434-0.343C29.962,5.793,30.516,3.397,30.516,3.397z"/>
			<path fill="#FFFFFF" d="M45.176,15.556c0.203-0.1,0.256-0.007,0.38,0.244l0.148-0.072l-0.635-1.29l-0.145,0.072
				c0,0,0.227,0.328-0.039,0.458c-0.129,0.064-2.445,1.204-2.445,1.204c-0.205,0.098-0.261-0.003-0.384-0.254l-0.147,0.075
				l0.683,1.391l0.146-0.072c-0.103-0.208-0.25-0.434-0.01-0.551C42.968,16.64,45.176,15.556,45.176,15.556z"/>
			<path fill="#FFFFFF" d="M46.35,17.217l-0.718,0.104l0.052,0.18c0.238-0.035,0.41-0.05,0.5,0.251
				c0.016,0.056,0.049,0.165,0.195,0.664c-0.401,0.119-2.698,0.797-2.698,0.797c-0.217,0.064-0.256-0.047-0.334-0.314l-0.158,0.046
				l0.44,1.488l0.155-0.044c-0.065-0.224-0.172-0.473,0.083-0.548c0.237-0.07,2.351-0.695,2.7-0.797
				c0.148,0.498,0.181,0.607,0.197,0.662c0.088,0.3-0.064,0.382-0.283,0.481l0.055,0.18l0.659-0.301L46.35,17.217z"/>
			<path fill="#FFFFFF" d="M41.423,9.627c-0.06-0.31-0.271-0.552-0.471-0.749l-0.964-0.956l-0.114,0.119
				c0,0,0.321,0.235,0.116,0.444c-0.103,0.104-1.918,1.938-1.918,1.938c-0.161,0.161-0.248,0.083-0.446-0.113l-0.114,0.119
				l1.102,1.087l0.113-0.112c-0.165-0.165-0.378-0.33-0.189-0.521l0.728-0.735l0.294,0.292l-0.127,0.787
				c-0.069,0.451-0.091,0.721-0.025,0.933c0.042,0.139,0.113,0.241,0.293,0.421l0.332,0.328l0.106-0.108l-0.078-0.096
				c-0.04-0.06-0.142-0.211-0.138-0.561c0.006-0.337,0.054-0.76,0.111-1.296c0,0,0.019-0.172,0.025-0.22
				c0.532,0.047,0.876-0.046,1.141-0.314C41.441,10.071,41.449,9.761,41.423,9.627z M40.607,10.05
				c-0.288,0.291-0.527,0.306-0.645,0.287c-0.09-0.013-0.14-0.039-0.265-0.162l-0.231-0.229l1.07-1.081l0.157,0.154
				C40.868,9.192,41.052,9.6,40.607,10.05z"/>
			<g>
				<path fill="#FFFFFF" d="M4.72,22.722c-0.147-0.014-0.282-0.025-0.432-0.104c-0.179-0.096-1.182-0.824-1.351-0.991
					C2.824,21.52,2.78,21.47,2.745,21.381c-0.029-0.071-0.037-0.14-0.033-0.187c0.004-0.044,0.01-0.126,0.01-0.126l-0.162-0.016
					l-0.107,1.153l0.168,0.018c0,0,0.008-0.088,0.01-0.121c0.003-0.033,0.038-0.059,0.08-0.054c0.057,0.004,0.128,0.032,0.212,0.08
					c0.067,0.037,1.116,0.75,1.116,0.75s-1.237,0.573-1.351,0.613c-0.025,0.011-0.105,0.042-0.141,0.038
					c-0.016-0.001-0.036-0.013-0.038-0.035c0-0.001-0.004-0.024-0.004-0.024c-0.003-0.03,0.004-0.106,0.004-0.106l-0.159-0.016
					l-0.118,1.305l0.159,0.013c0,0,0.011-0.18,0.084-0.286c0.057-0.084,0.184-0.182,0.345-0.27c0.254-0.14,1.301-0.652,1.37-0.674
					c0.138-0.048,0.234-0.08,0.47-0.059c0,0,0.468,0.042,0.761,0.07c0.292,0.025,0.286,0.186,0.265,0.41l0.152,0.016l0.14-1.536
					l-0.147-0.014c-0.023,0.256-0.023,0.499-0.361,0.467C5.133,22.76,4.72,22.722,4.72,22.722z"/>
			</g>
			<g>
				<path fill="#FFFFFF" d="M45.315,23.438c0.144-0.014,0.28-0.028,0.442,0.022c0.195,0.059,1.316,0.583,1.514,0.716
					c0.131,0.087,0.184,0.126,0.234,0.209c0.042,0.062,0.063,0.127,0.067,0.178c0.004,0.042,0.012,0.125,0.012,0.125l0.164-0.016
					l-0.113-1.153l-0.168,0.016c0,0,0.009,0.087,0.013,0.119c0.003,0.032-0.026,0.066-0.067,0.069
					c-0.058,0.006-0.132-0.008-0.225-0.037c-0.072-0.027-1.237-0.529-1.237-0.529s1.106-0.796,1.21-0.856
					c0.024-0.015,0.097-0.06,0.133-0.063c0.015-0.003,0.036,0.005,0.043,0.027c0.001,0,0.009,0.022,0.009,0.022
					c0.01,0.028,0.016,0.106,0.016,0.106l0.16-0.018l-0.129-1.301l-0.16,0.017c0,0,0.023,0.18-0.028,0.298
					c-0.041,0.092-0.146,0.211-0.287,0.329c-0.224,0.184-1.156,0.885-1.219,0.92c-0.127,0.071-0.216,0.122-0.45,0.145
					c0,0-0.468,0.046-0.76,0.074c-0.293,0.03-0.317-0.129-0.338-0.355l-0.154,0.017l0.153,1.533l0.146-0.015
					c-0.025-0.257-0.07-0.494,0.269-0.526C44.9,23.479,45.315,23.438,45.315,23.438z"/>
			</g>
			<g>
				<path fill="#FFFFFF" d="M9.437,13.691l-0.123,0.2l-3.379,0.761l1.651,1.021c0.35,0.215,0.468-0.057,0.588-0.251l0.142,0.086
					l-0.684,1.107L7.49,16.529c0.109-0.175,0.237-0.343-0.095-0.548c-0.333-0.204-2.541-1.569-2.541-1.569l0.114-0.186
					c0.577-0.128,3.338-0.732,3.427-0.752c0,0-1.408-0.87-1.714-1.059c-0.304-0.188-0.438,0.062-0.531,0.213l-0.14-0.086
					l0.632-1.022l0.142,0.088c-0.101,0.162-0.215,0.313,0.089,0.5C7.177,12.296,9.437,13.691,9.437,13.691z"/>
			</g>
			<g>
				<path fill="#FFFFFF" d="M27.244,5.966l-0.234-0.013l-2.268-2.619l-0.118,1.936c-0.026,0.413,0.269,0.388,0.5,0.401l-0.011,0.166
					L23.813,5.76l0.01-0.169c0.206,0.014,0.415,0.048,0.438-0.341c0.024-0.392,0.182-2.98,0.182-2.98l0.217,0.014
					c0.385,0.448,2.225,2.593,2.283,2.663c0,0,0.102-1.652,0.122-2.009c0.022-0.357-0.26-0.358-0.437-0.37l0.01-0.164l1.198,0.074
					l-0.01,0.167c-0.191-0.012-0.377-0.042-0.399,0.314C27.406,3.315,27.244,5.966,27.244,5.966z"/>
			</g>
			<path fill="#FFFFFF" d="M35.634,5.089l0.041-0.164l-1.05-0.459L34.559,4.62l0.123,0.053c0.041,0.017,0.072,0.052,0.063,0.09
				c-0.014,0.058-0.073,0.13-0.13,0.2l-0.977,0.984c0,0-0.555,0.552-0.632,0.628c0.004-0.092,0.065-1.35,0.093-1.897l0.027-0.483
				c0.004-0.025,0-0.093,0.032-0.125c0.01-0.014,0.051-0.037,0.112-0.012l0.123,0.053l0.065-0.153l-1.221-0.532l-0.064,0.146
				c0,0,0.169,0.068,0.232,0.164c0.047,0.074,0.07,0.213,0.063,0.375l-0.052,3.276l0.136,0.06l1.86-1.712l0.667-0.605
				c0,0,0.22-0.192,0.442-0.092L35.634,5.089z"/>
		</g>
		<g>
			<g>
				<path fill="#FFFFFF" d="M26.146,44.061c0,0.041,0,1.076,0,1.076H25.86c0,0,0-1.035,0-1.076c-0.039,0-0.69,0-0.729,0
					c0,0.023,0,0.064,0,0.088l0,0c0.071,0,0.142,0.125,0.142,0.256c0,0,0,1.289,0,2.32c-0.356,0-1.51,0-1.51,0v-2.077
					c0,0,0.963,0,1.003,0c0-0.037,0-0.452,0-0.487c-0.041,0-1.735,0-1.775,0c0,0.022,0,0.062,0,0.086l0,0
					c0.072,0,0.144,0.122,0.144,0.256c0,0,0,2.671,0,2.715c0.036,0,1.703,0,2.138,0c0,0.442,0,0.762,0,0.775
					c0.039,0,0.548,0,0.586,0c0-0.041,0-2.367,0-2.367h0.286c0,0,0,2.326,0,2.367c0.038,0,0.589,0,0.63,0c0-0.041,0-3.891,0-3.932
					l0,0C26.776,44.061,26.188,44.061,26.146,44.061z"/>
			</g>
			<g>
				<path fill="#FFFFFF" d="M43.143,38.129c-0.504-0.418-2.393-1.985-2.42-2.008h-0.001c0,0-1.948,2.346-1.975,2.381
					c0.029,0.023,0.347,0.287,0.376,0.313c0.026-0.035,1.573-1.896,1.573-1.896s1.586,1.316,2.042,1.695
					c-0.17,0.207-0.306,0.373-0.306,0.373s-1.035-0.856-1.065-0.885c-0.026,0.034-0.361,0.436-0.384,0.465
					c0.03,0.027,1.064,0.883,1.064,0.883l-0.207,0.247c0,0-1.031-0.854-1.064-0.882c-0.025,0.031-0.421,0.51-0.447,0.54
					c0.018,0.015,0.046,0.041,0.065,0.055h0.002c0.045-0.058,0.187-0.028,0.288,0.054l0.8,0.663c0,0-0.424,0.514-0.451,0.543
					c0.029,0.024,0.349,0.29,0.379,0.313c0.026-0.033,2.326-2.804,2.354-2.836c-0.031-0.022-0.35-0.288-0.38-0.314
					C43.377,37.845,43.277,37.967,43.143,38.129z"/>
			</g>
			<g>
				<path fill="#FFFFFF" d="M17.557,42.58c-0.017,0.041-1.625,3.534-1.643,3.575c0.036,0.015,0.537,0.247,0.574,0.261
					c0.015-0.039,1.624-3.533,1.644-3.573h-0.003C18.128,42.843,17.595,42.596,17.557,42.58z"/>
				<path fill="#FFFFFF" d="M16.686,42.179c-0.011,0.022-0.027,0.058-0.038,0.081h0.001c0.067,0.03,0.076,0.172,0.022,0.292
					l-0.305,0.663c0,0-0.563-0.258-0.599-0.273c-0.017,0.033-0.188,0.41-0.206,0.445c0.037,0.016,0.6,0.275,0.6,0.275
					s-0.973,2.111-0.99,2.15c0.036,0.014,0.473,0.219,0.507,0.233c0.017-0.038,1.625-3.536,1.644-3.573l-0.001-0.002
					C17.321,42.471,16.722,42.195,16.686,42.179z"/>
				<path fill="#FFFFFF" d="M15.042,43.279l-0.019-0.039l0.014-0.012c0.438-0.332,0.763-0.74,0.994-1.241l0,0
					c-0.035-0.018-0.793-0.364-0.828-0.383c-0.009,0.021-0.028,0.06-0.037,0.079l0,0c0.008,0.007,0.163,0.127,0.029,0.416v0.002
					c-0.008,0.018-0.454,0.986-1.785,1.424c0.014,0.037,0.137,0.346,0.148,0.375h0.001c0.005,0,0.447-0.053,1.049-0.395l0.02-0.011
					l0.01,0.021c0.089,0.186,0.226,0.464,0.355,1.184c0.054-0.03,0.491-0.279,0.517-0.293
					C15.438,44.107,15.273,43.707,15.042,43.279z"/>
			</g>
			<g>
				<path fill="#FFFFFF" d="M33.135,45.654c0.038-0.02,2.376-1.139,2.376-1.139s0.349,0.727,0.365,0.764
					c0.038-0.018,0.534-0.258,0.57-0.273c-0.018-0.036-0.561-1.17-0.58-1.207c-0.04,0.019-2.905,1.395-2.946,1.413
					C32.938,45.246,33.117,45.621,33.135,45.654z"/>
				<path fill="#FFFFFF" d="M34.744,41.462c-0.036,0.019-0.662,0.317-0.698,0.336c0.01,0.02,0.028,0.054,0.039,0.079l0-0.002
					c0.066-0.033,0.182,0.051,0.238,0.17c0,0,0.812,1.686,0.831,1.725c0.033-0.018,0.532-0.256,0.565-0.274
					c-0.017-0.034-0.309-0.645-0.309-0.645s0.523-0.249,0.561-0.267c-0.016-0.037-0.176-0.367-0.192-0.4
					c-0.037,0.018-0.556,0.27-0.556,0.27S34.762,41.499,34.744,41.462z"/>
				<path fill="#FFFFFF" d="M32.159,44.173c0.235,0.491,0.879,0.675,1.438,0.407c0.557-0.268,0.816-0.884,0.582-1.379
					c-0.12-0.246-0.346-0.417-0.612-0.486c0.245-0.117,0.414-0.2,0.422-0.207c-0.017-0.033-0.194-0.406-0.209-0.441
					c-0.039,0.019-0.796,0.383-0.796,0.383s-0.128-0.266-0.144-0.301l0,0c0,0-0.661,0.316-0.697,0.334
					c0.01,0.023,0.027,0.057,0.038,0.08v-0.001c0.057-0.026,0.157,0.036,0.219,0.141l0.013,0.021c0,0-0.811,0.388-0.85,0.408
					c0.018,0.032,0.195,0.405,0.212,0.44c0.011-0.004,0.164-0.078,0.385-0.184C32.048,43.64,32.039,43.922,32.159,44.173z
					 M33.416,44.205c-0.273,0.131-0.609,0.006-0.745-0.279c-0.136-0.283-0.024-0.622,0.25-0.754
					c0.274-0.131,0.608-0.006,0.745,0.277C33.8,43.734,33.688,44.074,33.416,44.205z"/>
			</g>
			<g>
				<path fill="#FFFFFF" d="M7.996,38.403L7.996,38.403c0,0-0.482-0.554-0.509-0.585c-0.017,0.016-0.048,0.043-0.065,0.06h0.001
					c0.047,0.055-0.001,0.188-0.099,0.274c0,0-0.674,0.586-0.703,0.613c0.027,0.031,1.951,2.238,1.978,2.271
					c0.03-0.027,0.342-0.3,0.371-0.321c-0.029-0.033-1.564-1.796-1.564-1.796S7.965,38.43,7.996,38.403z"/>
				<path fill="#FFFFFF" d="M9.192,38.541c0.18,0.207,0.531,0.61,0.531,0.61s-0.738,0.646-0.77,0.673
					c0.026,0.029,0.391,0.447,0.415,0.474c0.033-0.025,2.108-1.839,2.139-1.866c-0.025-0.031-0.48-0.553-0.507-0.584
					c-0.018,0.016-0.048,0.041-0.065,0.059l0,0c0.048,0.055,0,0.189-0.101,0.277l-0.112,0.098c0,0-0.476-0.543-0.583-0.666
					c0.033-0.318-0.068-0.656-0.303-0.928c-0.429-0.49-1.145-0.568-1.597-0.174c-0.451,0.393-0.471,1.114-0.042,1.604
					C8.46,38.422,8.837,38.568,9.192,38.541z M10.351,38.604l-0.258,0.225c0,0-0.218-0.251-0.4-0.459
					c0.034-0.023,0.067-0.047,0.098-0.076c0.057-0.049,0.105-0.101,0.148-0.16C10.116,38.339,10.351,38.604,10.351,38.604z
					 M8.63,36.961c0.264-0.228,0.648-0.219,0.861,0.025c0.211,0.244,0.171,0.629-0.093,0.856c-0.262,0.229-0.649,0.218-0.86-0.024
					C8.325,37.574,8.368,37.191,8.63,36.961z"/>
			</g>
		</g>
	</g>
	<g>
		<path fill="#003378" d="M24.999,16.507c-1.436,0-2.601,1.164-2.601,2.597c0,1.435,1.165,2.598,2.601,2.598
			c1.433,0,2.598-1.163,2.598-2.598C27.597,17.671,26.432,16.507,24.999,16.507z"/>
		<path fill="#003378" d="M18.723,37.751c1.628,1.417,3.68,2.766,6.278,3.964c2.598-1.198,4.65-2.547,6.279-3.965l-6.279-6.291
			L18.723,37.751z"/>
		<path fill="#003378" d="M37.78,22.776v-8.673c0,0-7.396,0.237-12.779-3.903c-5.383,4.14-12.778,3.903-12.778,3.903v8.673
			c0,0-0.05,1.861,0.275,3.897c4.046-0.744,8.224-1.136,12.504-1.136s8.457,0.392,12.504,1.136
			C37.829,24.637,37.78,22.776,37.78,22.776z M25,24.176c-2.807,0-5.081-2.27-5.081-5.074c0-2.8,2.274-5.071,5.081-5.071
			c2.809,0,5.083,2.271,5.083,5.071C30.083,21.906,27.81,24.176,25,24.176z"/>
		<path fill="#003378" d="M12.629,27.4c0.055,0.271,0.117,0.541,0.188,0.807c0.599,2.292,1.672,4.936,3.86,7.489l8.324-8.34
			l8.323,8.339c2.188-2.553,3.262-5.196,3.862-7.488c0.071-0.266,0.133-0.535,0.188-0.807c-4.005-0.736-8.141-1.123-12.373-1.123
			C20.769,26.277,16.634,26.664,12.629,27.4z"/>
	</g>
	<g>
		<path fill="#FFFFFF" d="M16.325,21.135h1.196c0.041,0,0.073-0.033,0.073-0.076v-2.453c0-0.042-0.033-0.074-0.073-0.074h-0.97
			c-0.165,0-0.301,0.134-0.301,0.3v2.227C16.25,21.102,16.284,21.135,16.325,21.135z"/>
		<path fill="#FFFFFF" d="M14.668,21.135h1.196c0.041,0,0.074-0.033,0.074-0.076v-2.227c0-0.166-0.134-0.3-0.3-0.3h-0.97
			c-0.041,0-0.073,0.033-0.073,0.074v2.453C14.595,21.102,14.627,21.135,14.668,21.135z"/>
		<path fill="#FFFFFF" d="M18.152,18.959h-0.253v2.435h-1.513l-0.002,0.025c-0.014,0.148-0.14,0.265-0.29,0.265
			c-0.148,0-0.276-0.117-0.289-0.265l-0.003-0.025h-1.512v-2.435h-0.252c-0.041,0-0.075,0.034-0.075,0.074v2.583
			c0,0.04,0.034,0.074,0.075,0.074h1.516c0.105,0.192,0.308,0.323,0.541,0.323s0.437-0.131,0.542-0.323h1.516
			c0.041,0,0.075-0.034,0.075-0.074v-2.583C18.227,18.993,18.193,18.959,18.152,18.959z"/>
	</g>
	<g>
		<path fill="#FFFFFF" d="M34.272,20.866h-0.987c-0.053,0-0.092,0.038-0.085,0.087l0.322,2.063c0.012,0.083,0.083,0.152,0.172,0.152
			h0.167c0.09,0,0.16-0.068,0.171-0.152l0.323-2.063C34.364,20.903,34.326,20.866,34.272,20.866z"/>
		<path fill="#FFFFFF" d="M34.416,19.961c0.256-0.223,0.846-0.872,0.783-1.236c-0.068-0.396-1.17-0.962-1.233-1.395
			c-0.035-0.192,0.04-0.46,0.144-0.669c0.014-0.04-0.025-0.047-0.067-0.015c-0.02,0.016-0.919,0.688-0.926,1.152
			c-0.002,0.184,0.126,0.387,0.348,0.57c0.18,0.149,0.415,0.284,0.598,0.465c0.087,0.084,0.159,0.16,0.204,0.293
			c0.089,0.249-0.163,0.646-0.32,0.834h-0.359c0.147-0.175,0.303-0.407,0.362-0.635c0.147-0.556-1.242-0.694-1.034-1.534l0,0
			c0.011-0.031-0.024-0.043-0.057-0.018c-0.015,0.011-0.55,0.53-0.554,0.893c-0.004,0.313,0.634,0.604,0.932,1.026
			c0.052,0.09,0.039,0.183-0.001,0.268h-0.567c0,0-0.133-0.016-0.078,0.111l0.153,0.478c0,0,0.027,0.064,0.12,0.064h1.824
			c0.094,0,0.122-0.064,0.122-0.064l0.159-0.483c0.04-0.116-0.09-0.106-0.09-0.106H34.416z"/>
	</g>
	<g>
		<path fill="#FFFFFF" d="M22.521,36.352c-0.091,0.066-0.561,0.375-0.575,0.384c-0.03,0.015-0.043,0.041-0.043,0.065
			c0,0.035,0.024,0.063,0.053,0.063l0.045-0.014l0.077-0.033c0.056-0.025,0.174-0.079,0.198-0.081
			c0.005,0.007,0.006,0.053,0.006,0.053v0.327v0.4l-0.008,0.561c-0.008,0.075-0.018,0.09-0.072,0.102l-0.193,0.014
			c-0.028,0-0.054,0.024-0.054,0.064c0,0.025,0.012,0.055,0.078,0.055l0.303-0.004h0.124h0.107l0.31,0.004
			c0.064,0,0.075-0.029,0.075-0.055c0-0.04-0.028-0.064-0.055-0.064l-0.158-0.014c-0.052-0.01-0.067-0.026-0.069-0.102l-0.013-0.561
			v-0.463l0.013-0.617v-0.037c0-0.078-0.046-0.084-0.061-0.084L22.521,36.352z"/>
		<path fill="#FFFFFF" d="M23.621,37.805c0-0.242,0.156-0.378,0.26-0.443c0.208,0.121,0.387,0.232,0.387,0.455
			c0,0.205-0.129,0.344-0.318,0.344C23.764,38.16,23.621,38.007,23.621,37.805z M23.363,36.801c0,0.234,0.175,0.373,0.328,0.46
			c-0.268,0.123-0.426,0.325-0.426,0.557l0,0c0,0.329,0.263,0.528,0.666,0.528c0.463,0,0.702-0.293,0.702-0.588
			c0-0.305-0.242-0.463-0.417-0.562c0.113-0.054,0.331-0.196,0.331-0.462c0-0.26-0.22-0.42-0.55-0.42
			C23.531,36.314,23.363,36.605,23.363,36.801z M23.698,36.75c0-0.121,0.068-0.262,0.268-0.262c0.117,0,0.24,0.084,0.24,0.269
			c0,0.192-0.11,0.294-0.208,0.337C23.775,36.967,23.698,36.879,23.698,36.75z"/>
		<path fill="#FFFFFF" d="M25.355,37.805c0-0.242,0.156-0.378,0.258-0.443c0.211,0.121,0.389,0.232,0.389,0.455
			c0,0.205-0.13,0.344-0.318,0.344C25.501,38.16,25.355,38.007,25.355,37.805z M25.098,36.801c0,0.234,0.173,0.373,0.326,0.46
			c-0.265,0.123-0.426,0.325-0.426,0.557c0,0.329,0.265,0.528,0.669,0.528c0.459,0,0.7-0.293,0.7-0.588
			c0-0.305-0.246-0.463-0.417-0.562c0.119-0.054,0.328-0.196,0.328-0.462c0-0.26-0.216-0.42-0.549-0.42
			C25.266,36.314,25.098,36.605,25.098,36.801z M25.431,36.75c0-0.121,0.071-0.262,0.269-0.262c0.119,0,0.24,0.084,0.24,0.269
			c0,0.192-0.11,0.294-0.21,0.337C25.512,36.967,25.431,36.879,25.431,36.75z"/>
		<path fill="#FFFFFF" d="M27.766,36.343l-0.161,0.012H26.99c-0.067,0-0.08,0.04-0.08,0.063l-0.063,0.662
			c0,0.027,0.004,0.076,0.079,0.09c0.168,0.021,0.603,0.166,0.603,0.561c0,0.312-0.205,0.421-0.38,0.421
			c-0.204,0-0.305-0.099-0.305-0.299c0-0.071-0.033-0.077-0.056-0.077c-0.048,0-0.064,0.055-0.065,0.071
			c0,0.003-0.008,0.287-0.008,0.287v0.036c0,0.053,0.003,0.098,0.064,0.131h0.003c0.062,0.027,0.16,0.045,0.252,0.045
			c0.592,0,0.859-0.384,0.859-0.74c0-0.428-0.421-0.654-0.826-0.727c0.004-0.048,0.021-0.197,0.027-0.244c0.055,0,0.426,0,0.426,0
			c0.181,0,0.181,0.053,0.181,0.103c0,0.063,0.05,0.066,0.059,0.066c0.032,0,0.057-0.021,0.06-0.054l0.035-0.328
			c0-0.027,0-0.085-0.06-0.085L27.766,36.343z"/>
	</g>
	<g>
		<path fill="#FFFFFF" d="M16.677,35.696c0.595,0.694,1.272,1.382,2.046,2.055l6.278-6.292l6.279,6.291
			c0.772-0.672,1.45-1.359,2.044-2.055l-8.323-8.339L16.677,35.696z"/>
		<path fill="#FFFFFF" d="M25.001,25.538c-4.28,0-8.458,0.392-12.504,1.136c0.038,0.24,0.082,0.484,0.131,0.727
			c4.005-0.736,8.14-1.123,12.373-1.123c4.232,0,8.367,0.387,12.373,1.123c0.049-0.242,0.093-0.486,0.131-0.727
			C33.458,25.93,29.282,25.538,25.001,25.538z"/>
		<path fill="#FFFFFF" d="M30.083,19.103c0-2.8-2.273-5.071-5.083-5.071c-2.807,0-5.081,2.271-5.081,5.071
			c0,2.804,2.274,5.074,5.081,5.074C27.81,24.176,30.083,21.906,30.083,19.103z M24.999,21.702c-1.436,0-2.601-1.163-2.601-2.598
			c0-1.434,1.165-2.597,2.601-2.597c1.433,0,2.598,1.164,2.598,2.597C27.597,20.539,26.432,21.702,24.999,21.702z"/>
	</g>
</g>
<text transform="matrix(1 0 0 1 56.7852 22.0166)"><tspan x="0" y="0" fill="#666666" font-family="'YonseiLogo'" font-size="18.8235">ATMOSPHERIC SCIENCES</tspan><tspan x="0" y="22.588" fill="#666666" font-family="'YonseiLogo'" font-size="18.8235">YONSEI UNIVERSITY</tspan></text>
</svg>
