<?xml version="1.0" encoding="utf-8"?>
<!-- Generator: Adobe Illustrator 16.0.0, SVG Export Plug-In . SVG Version: 6.00 Build 0)  -->
<!DOCTYPE svg PUBLIC "-//W3C//DTD SVG 1.1//EN" "http://www.w3.org/Graphics/SVG/1.1/DTD/svg11.dtd">
<svg version="1.1" id="레이어_1" xmlns="http://www.w3.org/2000/svg" xmlns:xlink="http://www.w3.org/1999/xlink" x="0px"
	 y="0px" width="295.119px" height="50px" viewBox="-2.36 0 295.119 50" enable-background="new -2.36 0 295.119 50"
	 xml:space="preserve">
<g enable-background="new    ">
	<path fill="#4D4D4D" d="M58.227,16.946h-3.819c-0.067,0-0.12,0.051-0.153,0.15l-0.924,2.693c-0.171,0.502-0.257,0.883-0.257,1.146
		c0,0.391,0.228,0.584,0.685,0.584h0.258c0.17,0,0.256,0.051,0.256,0.15c0,0.127-0.098,0.189-0.291,0.189
		c-0.183,0-0.489-0.01-0.916-0.029c-0.429-0.018-0.728-0.027-0.899-0.027c-0.993,0.037-1.667,0.057-2.02,0.057
		c-0.217,0-0.325-0.063-0.325-0.189c0-0.1,0.068-0.15,0.206-0.15c0.183,0,0.36-0.012,0.531-0.037
		c0.365-0.051,0.662-0.227,0.89-0.527c0.183-0.238,0.371-0.627,0.565-1.166l4.297-11.823c0.183-0.502,0.343-0.752,0.479-0.752
		c0.125,0,0.268,0.199,0.429,0.602c1.049,2.912,2.465,6.77,4.246,11.576c0.48,1.242,0.982,1.926,1.508,2.053
		c0.206,0.049,0.445,0.074,0.719,0.074c0.148,0,0.223,0.051,0.223,0.15c0,0.076-0.057,0.127-0.171,0.15
		c-0.113,0.025-0.32,0.039-0.616,0.039c-1.416,0-2.494-0.014-3.236-0.039c-0.342-0.012-0.514-0.063-0.514-0.15
		c0-0.1,0.08-0.156,0.241-0.168c0.183-0.064,0.234-0.207,0.154-0.434l-1.371-3.99C58.365,16.99,58.307,16.946,58.227,16.946z
		 M54.75,16.004h3.152c0.079,0,0.107-0.037,0.085-0.111l-1.541-4.65c-0.022-0.113-0.052-0.17-0.085-0.17
		c-0.045,0-0.08,0.057-0.103,0.17l-1.575,4.631C54.66,15.961,54.683,16.004,54.75,16.004z"/>
	<path fill="#4D4D4D" d="M67.988,16.401V8.682l-2.552,0.076c-0.901,0.025-1.455,0.207-1.661,0.545
		c-0.147,0.238-0.245,0.459-0.291,0.66c-0.034,0.15-0.098,0.225-0.188,0.225c-0.103,0-0.154-0.1-0.154-0.301
		c0-0.338,0.121-1.061,0.359-2.164c0.058-0.238,0.126-0.357,0.206-0.357c0.035,0,0.125,0.033,0.274,0.104
		c0.148,0.068,0.302,0.109,0.461,0.121c0.616,0.064,1.187,0.096,1.712,0.096h6.781c0.445,0,0.838-0.031,1.181-0.096
		c0.342-0.063,0.497-0.094,0.463-0.094c0.091,0,0.136,0.133,0.136,0.396c0,0.125-0.007,0.477-0.025,1.053
		c-0.017,0.578-0.031,0.961-0.043,1.148c-0.011,0.189-0.057,0.283-0.136,0.283c-0.104,0-0.167-0.125-0.188-0.377l-0.017-0.207
		c-0.057-0.666-0.73-1.016-2.02-1.055l-2.159-0.056v7.719c0,2.133,0.028,3.477,0.086,4.027c0.068,0.615,0.291,0.955,0.667,1.018
		c0.332,0.049,0.622,0.074,0.874,0.074c0.182,0,0.274,0.051,0.274,0.15c0,0.127-0.109,0.189-0.325,0.189
		c-0.434,0-0.965-0.01-1.592-0.029c-0.628-0.018-0.994-0.027-1.096-0.027c-0.103,0-0.427,0.01-0.969,0.027
		c-0.542,0.02-0.939,0.029-1.189,0.029c-0.229,0-0.342-0.063-0.342-0.189c0-0.088,0.125-0.145,0.376-0.168
		c0.171-0.025,0.342-0.045,0.514-0.057c0.263-0.063,0.429-0.408,0.497-1.035C67.959,19.858,67.988,18.522,67.988,16.401z"/>
	<path fill="#4D4D4D" d="M76.806,19.977l1.696-12.274c0.045-0.326,0.143-0.488,0.292-0.488c0.136,0,0.29,0.193,0.462,0.582
		l4.674,10.617l4.658-10.748c0.125-0.301,0.251-0.451,0.377-0.451c0.148,0,0.251,0.193,0.308,0.582l1.559,11.633
		c0.08,0.629,0.176,1.08,0.292,1.355c0.113,0.277,0.296,0.459,0.548,0.547c0.376,0.125,0.731,0.188,1.062,0.188
		c0.183,0,0.275,0.045,0.275,0.133c0,0.137-0.149,0.207-0.445,0.207c-1.45,0-2.609-0.039-3.477-0.113
		c-0.331-0.025-0.497-0.094-0.497-0.207c0-0.088,0.061-0.156,0.18-0.207c0.121-0.051,0.151-0.32,0.094-0.811l-1.027-8.281h-0.069
		l-3.733,8.545c-0.307,0.703-0.519,1.055-0.633,1.055c-0.102,0-0.303-0.314-0.6-0.941c-1.083-2.271-1.741-3.695-1.969-4.273
		c-0.389-0.928-0.982-2.32-1.781-4.178h-0.067l-0.891,7.492c-0.035,0.289-0.051,0.582-0.051,0.885c0,0.313,0.17,0.514,0.512,0.602
		c0.251,0.063,0.492,0.094,0.72,0.094c0.172,0,0.258,0.045,0.258,0.133c0,0.137-0.137,0.207-0.412,0.207
		c-0.273,0-0.625-0.01-1.051-0.029c-0.43-0.018-0.677-0.027-0.746-0.027c-0.092,0-0.345,0.01-0.762,0.027
		c-0.417,0.021-0.728,0.029-0.934,0.029c-0.205,0-0.308-0.07-0.308-0.207c0-0.088,0.091-0.133,0.273-0.133
		c0.183,0,0.354-0.018,0.515-0.057C76.448,21.389,76.681,20.893,76.806,19.977z"/>
	<path fill="#4D4D4D" d="M100.762,22.123c-2.26,0-4.023-0.816-5.291-2.447c-1.074-1.369-1.61-3.012-1.61-4.932
		c0-1.895,0.536-3.527,1.61-4.895c1.29-1.656,3.11-2.484,5.463-2.484c2.123,0,3.807,0.633,5.051,1.9
		c1.244,1.267,1.867,2.98,1.867,5.139c0,2.209-0.64,4.035-1.917,5.479C104.62,21.375,102.897,22.123,100.762,22.123z
		 M101.481,21.182c0.96,0,1.77-0.332,2.432-0.998c1.027-1.018,1.542-2.711,1.542-5.082c0-2.059-0.486-3.727-1.455-5.008
		c-0.937-1.217-2.123-1.826-3.562-1.826c-1.176,0-2.123,0.396-2.842,1.186c-0.913,1.006-1.37,2.574-1.37,4.707
		c0,2.02,0.469,3.678,1.404,4.969C98.599,20.498,99.883,21.182,101.481,21.182z"/>
	<path fill="#4D4D4D" d="M113.16,22.123c-0.994,0-1.827-0.164-2.5-0.49c-0.217-0.1-0.324-0.314-0.324-0.641
		c0-0.678,0.028-1.498,0.085-2.465c0.023-0.326,0.092-0.49,0.206-0.49c0.114,0,0.171,0.107,0.171,0.32
		c0,0.264,0.051,0.584,0.153,0.961c0.342,1.268,1.159,1.9,2.449,1.9c0.72,0,1.295-0.232,1.729-0.697
		c0.376-0.414,0.565-0.896,0.565-1.449c0-1.041-0.56-2.045-1.678-3.012l-0.788-0.678c-1.689-1.455-2.535-2.941-2.535-4.461
		c0-1.041,0.366-1.895,1.096-2.561c0.73-0.664,1.685-0.996,2.861-0.996c0.742,0,1.501,0.105,2.278,0.32
		c0.159,0.049,0.239,0.125,0.239,0.225c0-0.025-0.011,0.197-0.034,0.668c-0.022,0.471-0.035,1.002-0.035,1.592
		c0,0.375-0.062,0.564-0.188,0.564c-0.114,0-0.17-0.113-0.17-0.34c0-0.426-0.148-0.84-0.445-1.242
		c-0.445-0.613-1.067-0.922-1.866-0.922c-0.628,0-1.125,0.18-1.491,0.537c-0.365,0.357-0.547,0.824-0.547,1.402
		c0,0.439,0.128,0.855,0.385,1.252c0.257,0.395,0.734,0.881,1.43,1.459l0.479,0.395c1.027,0.854,1.752,1.641,2.175,2.361
		c0.422,0.723,0.634,1.535,0.634,2.438c0,1.42-0.537,2.512-1.61,3.275C115.163,21.865,114.256,22.123,113.16,22.123z"/>
	<path fill="#4D4D4D" d="M121.568,16.401v-3.313c0-2.248-0.012-3.578-0.034-3.992c-0.035-0.602-0.28-0.959-0.736-1.072
		c-0.16-0.037-0.383-0.057-0.668-0.057c-0.194,0-0.29-0.057-0.29-0.17c0-0.111,0.126-0.168,0.376-0.168
		c0.344,0,0.808,0.008,1.395,0.027c0.588,0.019,0.944,0.029,1.072,0.029c0.228,0,0.63-0.01,1.207-0.029
		c0.577-0.019,1.003-0.027,1.275-0.027c1.438,0,2.5,0.357,3.185,1.072c0.571,0.59,0.856,1.336,0.856,2.24
		c0,1.33-0.398,2.422-1.191,3.275s-1.8,1.279-3.022,1.279c-0.182,0-0.301-0.006-0.36-0.018c-0.137-0.025-0.205-0.082-0.205-0.17
		c0-0.139,0.16-0.207,0.479-0.207c0.537,0,1.04-0.275,1.507-0.828c0.525-0.629,0.788-1.387,0.788-2.277
		c0-1.219-0.336-2.158-1.011-2.824c-0.491-0.49-1.062-0.734-1.712-0.734c-0.321,0-0.534,0.021-0.643,0.066
		c-0.108,0.043-0.162,0.166-0.162,0.367v7.529c0,2.133,0.027,3.477,0.085,4.027c0.068,0.615,0.292,0.955,0.668,1.018
		c0.33,0.049,0.622,0.074,0.873,0.074c0.182,0,0.274,0.051,0.274,0.15c0,0.127-0.109,0.189-0.326,0.189
		c-0.434,0-0.961-0.01-1.584-0.029c-0.622-0.018-0.978-0.027-1.069-0.027c-0.103,0-0.426,0.01-0.967,0.027
		c-0.543,0.02-0.939,0.029-1.191,0.029c-0.228,0-0.343-0.063-0.343-0.189c0-0.088,0.127-0.145,0.377-0.168
		c0.171-0.025,0.342-0.045,0.514-0.057c0.262-0.063,0.428-0.408,0.497-1.035C121.539,19.92,121.568,18.584,121.568,16.401z"/>
	<path fill="#4D4D4D" d="M135.027,13.614h6.541c0.068,0,0.103-0.043,0.103-0.131v-0.395c0-2.248-0.012-3.578-0.035-3.992
		c-0.034-0.602-0.281-0.959-0.736-1.072c-0.16-0.037-0.383-0.057-0.667-0.057c-0.196,0-0.292-0.057-0.292-0.17
		c0-0.111,0.12-0.168,0.36-0.168c0.342,0,0.811,0.008,1.404,0.027c0.593,0.021,0.947,0.029,1.062,0.029
		c0.115,0,0.441-0.01,0.984-0.029c0.543-0.02,0.933-0.027,1.173-0.027c0.241,0,0.36,0.057,0.36,0.168c0,0.113-0.103,0.17-0.308,0.17
		c-0.136,0-0.303,0.02-0.497,0.057c-0.389,0.076-0.599,0.434-0.633,1.072c-0.023,0.428-0.035,1.758-0.035,3.992v3.313
		c0,2.133,0.028,3.477,0.086,4.027c0.068,0.615,0.291,0.955,0.668,1.018c0.331,0.049,0.622,0.074,0.873,0.074
		c0.183,0,0.274,0.051,0.274,0.15c0,0.127-0.115,0.189-0.343,0.189c-0.422,0-0.947-0.01-1.574-0.029
		c-0.628-0.018-0.995-0.027-1.095-0.027c-0.104,0-0.423,0.01-0.961,0.027c-0.537,0.02-0.929,0.029-1.181,0.029
		c-0.24,0-0.36-0.063-0.36-0.189c0-0.088,0.126-0.145,0.376-0.168c0.171-0.025,0.343-0.045,0.514-0.057
		c0.262-0.063,0.429-0.408,0.497-1.035c0.058-0.49,0.086-1.826,0.086-4.01v-1.656c0-0.076-0.035-0.113-0.103-0.113h-6.541
		c-0.068,0-0.101,0.037-0.101,0.113V16.4c0,2.133,0.026,3.477,0.085,4.027c0.068,0.615,0.292,0.955,0.667,1.018
		c0.33,0.049,0.623,0.074,0.874,0.074c0.181,0,0.273,0.051,0.273,0.15c0,0.127-0.114,0.189-0.342,0.189
		c-0.423,0-0.948-0.01-1.576-0.029c-0.627-0.018-0.993-0.027-1.095-0.027c-0.103,0-0.425,0.01-0.967,0.027
		c-0.543,0.02-0.939,0.029-1.191,0.029c-0.229,0-0.343-0.063-0.343-0.189c0-0.088,0.127-0.145,0.378-0.168
		c0.171-0.025,0.342-0.045,0.513-0.057c0.262-0.063,0.428-0.408,0.497-1.035c0.057-0.49,0.085-1.826,0.085-4.01v-3.313
		c0-2.248-0.012-3.578-0.034-3.992c-0.035-0.602-0.28-0.959-0.737-1.072c-0.16-0.037-0.383-0.057-0.667-0.057
		c-0.195,0-0.292-0.057-0.292-0.17c0-0.111,0.121-0.168,0.36-0.168c0.343,0,0.811,0.008,1.405,0.027
		c0.593,0.02,0.947,0.029,1.062,0.029c0.113,0,0.442-0.01,0.984-0.029c0.542-0.019,0.934-0.027,1.172-0.027
		c0.24,0,0.36,0.057,0.36,0.168c0,0.113-0.101,0.17-0.308,0.17c-0.136,0-0.302,0.02-0.497,0.057
		c-0.388,0.076-0.598,0.434-0.632,1.072c-0.023,0.428-0.034,1.758-0.034,3.992v0.395C134.924,13.571,134.958,13.614,135.027,13.614z
		"/>
	<path fill="#4D4D4D" d="M149.427,16.401v-3.313c0-2.248-0.013-3.578-0.034-3.992c-0.035-0.602-0.28-0.959-0.737-1.072
		c-0.159-0.037-0.383-0.057-0.668-0.057c-0.194,0-0.291-0.057-0.291-0.17c0-0.111,0.126-0.168,0.376-0.168
		c0.344,0,0.809,0.008,1.396,0.027c0.588,0.019,0.943,0.029,1.07,0.029c2.707,0,4.133-0.008,4.28-0.02
		c0.298-0.025,0.543-0.063,0.737-0.113c0.193-0.051,0.285-0.074,0.273-0.074c0.068,0,0.104,0.055,0.104,0.168
		c0,0.014-0.02,0.127-0.053,0.34c-0.034,0.25-0.061,0.545-0.077,0.885c-0.019,0.338-0.05,0.752-0.095,1.242
		c-0.022,0.139-0.08,0.207-0.17,0.207c-0.08,0-0.129-0.068-0.145-0.207c-0.02-0.139-0.032-0.27-0.044-0.396
		c-0.011-0.125-0.033-0.238-0.067-0.338c-0.137-0.363-0.52-0.59-1.147-0.678c-0.388-0.051-1.197-0.076-2.433-0.076
		c-0.08,0-0.119,0.064-0.119,0.189v4.762c0,0.139,0.039,0.207,0.119,0.207c1.553,0,2.465-0.012,2.741-0.037
		c0.194-0.012,0.343-0.031,0.444-0.057c0.171-0.051,0.297-0.125,0.376-0.227c0.137-0.162,0.229-0.244,0.274-0.244
		c0.08,0,0.119,0.051,0.119,0.15c0,0.014-0.017,0.139-0.051,0.377c-0.035,0.289-0.063,0.621-0.086,0.998
		c-0.045,0.715-0.068,1.135-0.068,1.26c0,0.238-0.052,0.357-0.154,0.357s-0.153-0.064-0.153-0.197c0-0.131-0.022-0.348-0.067-0.648
		c-0.093-0.428-0.412-0.672-0.959-0.734c-0.32-0.037-1.132-0.057-2.433-0.057c-0.067,0-0.103,0.063-0.103,0.188v4.406
		c0.022,0.664,0.156,1.094,0.402,1.289c0.245,0.193,0.797,0.291,1.652,0.291c0.777,0,1.313-0.074,1.609-0.227
		c0.398-0.199,0.656-0.664,0.771-1.393c0.035-0.188,0.096-0.281,0.188-0.281s0.139,0.113,0.139,0.338
		c0,0.766-0.074,1.463-0.223,2.09c-0.058,0.227-0.137,0.363-0.242,0.414c-0.103,0.051-0.33,0.076-0.685,0.076
		c-0.993,0-1.981-0.02-2.963-0.057c-0.981-0.039-1.573-0.057-1.78-0.057c-0.104,0-0.426,0.01-0.966,0.027
		c-0.544,0.02-0.94,0.029-1.19,0.029c-0.229,0-0.344-0.063-0.344-0.189c0-0.088,0.127-0.145,0.377-0.168
		c0.172-0.025,0.342-0.045,0.515-0.057c0.262-0.063,0.428-0.408,0.497-1.035C149.399,19.92,149.427,18.584,149.427,16.401z"/>
	<path fill="#4D4D4D" d="M160.25,16.401v-3.313c0-2.248-0.014-3.578-0.033-3.992c-0.036-0.602-0.281-0.959-0.738-1.072
		c-0.16-0.037-0.383-0.057-0.667-0.057c-0.194,0-0.292-0.057-0.292-0.17c0-0.111,0.126-0.168,0.377-0.168
		c0.354,0,0.816,0.008,1.387,0.027c0.57,0.021,0.891,0.029,0.961,0.029c0.192,0,0.602-0.01,1.223-0.029
		c0.623-0.019,1.019-0.027,1.191-0.027c1.381,0,2.43,0.27,3.149,0.809c0.284,0.213,0.536,0.533,0.754,0.961
		c0.272,0.502,0.409,1.041,0.409,1.617c0,1.469-0.754,2.875-2.26,4.217c1.188,1.633,1.873,2.572,2.057,2.824
		c0.661,0.902,1.219,1.615,1.668,2.137c0.451,0.52,0.898,0.881,1.348,1.082c0.227,0.1,0.422,0.162,0.581,0.188
		c0.16,0.026,0.24,0.107,0.24,0.246c0,0.1-0.08,0.15-0.24,0.15h-1.284c-0.822,0-1.434-0.119-1.832-0.357
		c-0.56-0.326-1.343-1.25-2.348-2.768c-0.49-0.766-1.055-1.631-1.693-2.598c-0.068-0.088-0.172-0.133-0.309-0.133l-1.49-0.037
		c-0.092,0-0.138,0.051-0.138,0.15v0.264c0,2.133,0.028,3.477,0.086,4.029c0.069,0.639,0.291,0.984,0.668,1.035
		c0.343,0.049,0.621,0.074,0.839,0.074c0.137,0,0.206,0.051,0.206,0.15c0,0.127-0.112,0.189-0.343,0.189
		c-0.389,0-0.898-0.01-1.532-0.029c-0.635-0.018-0.962-0.027-0.983-0.027c-0.08,0-0.385,0.01-0.908,0.027
		c-0.526,0.02-0.92,0.029-1.182,0.029c-0.229,0-0.343-0.063-0.343-0.189c0-0.088,0.126-0.145,0.378-0.168
		c0.17-0.025,0.342-0.045,0.514-0.057c0.262-0.063,0.428-0.408,0.496-1.035C160.221,19.92,160.25,18.584,160.25,16.401z
		 M162.27,8.852v5.723c0,0.188,0.051,0.301,0.154,0.338c0.32,0.127,0.754,0.189,1.301,0.189c0.55,0,0.955-0.107,1.218-0.32
		c0.673-0.539,1.009-1.479,1.009-2.824c0-1.191-0.309-2.102-0.925-2.729c-0.491-0.477-1.057-0.715-1.694-0.715
		c-0.549,0-0.873,0.037-0.978,0.111C162.299,8.664,162.27,8.739,162.27,8.852z"/>
	<path fill="#4D4D4D" d="M173.177,16.401v-3.313c0-2.248-0.013-3.578-0.034-3.992c-0.033-0.602-0.229-0.953-0.584-1.053
		c-0.18-0.051-0.387-0.076-0.616-0.076c-0.181,0-0.272-0.063-0.272-0.188c0-0.102,0.137-0.15,0.412-0.15
		c0.228,0,0.617,0.008,1.172,0.027c0.553,0.021,0.904,0.029,1.054,0.029c0.126,0,0.444-0.01,0.959-0.029
		c0.513-0.019,0.89-0.027,1.13-0.027c0.239,0,0.359,0.049,0.359,0.15c0,0.125-0.084,0.188-0.248,0.188
		c-0.166,0-0.348,0.02-0.541,0.057c-0.389,0.076-0.598,0.434-0.633,1.072c-0.021,0.428-0.035,1.758-0.035,3.992v3.313
		c0,2.246,0.022,3.619,0.07,4.121c0.045,0.553,0.273,0.861,0.685,0.924c0.331,0.049,0.622,0.074,0.874,0.074
		c0.183,0,0.273,0.051,0.273,0.15c0,0.127-0.109,0.189-0.326,0.189c-0.434,0-0.961-0.01-1.582-0.029
		c-0.625-0.018-0.985-0.027-1.088-0.027s-0.426,0.01-0.968,0.027c-0.542,0.02-0.938,0.029-1.19,0.029
		c-0.228,0-0.342-0.063-0.342-0.189c0-0.088,0.125-0.145,0.377-0.168c0.172-0.025,0.342-0.045,0.514-0.057
		c0.275-0.063,0.439-0.373,0.496-0.932C173.149,19.954,173.177,18.584,173.177,16.401z"/>
	<path fill="#4D4D4D" d="M187.049,22.123c-2.489,0-4.444-0.682-5.865-2.043s-2.133-3.215-2.133-5.563
		c0-2.096,0.664-3.813,1.996-5.148c1.328-1.336,3.136-2.004,5.418-2.004c0.787,0,1.615,0.063,2.482,0.188
		c0.399,0.088,0.971,0.195,1.713,0.32c0.172,0.012,0.258,0.088,0.258,0.227c0,0.037-0.014,0.143-0.035,0.318
		c-0.022,0.227-0.038,0.465-0.051,0.717c-0.013,0.551-0.029,1.229-0.052,2.031c-0.022,0.289-0.093,0.434-0.206,0.434
		s-0.172-0.137-0.172-0.414c-0.013-0.652-0.234-1.229-0.667-1.732c-0.297-0.338-0.748-0.613-1.354-0.828
		c-0.65-0.225-1.356-0.338-2.123-0.338c-1.369,0-2.443,0.389-3.219,1.166c-1.051,1.055-1.574,2.68-1.574,4.877
		c0,2.07,0.607,3.744,1.832,5.025c1.062,1.117,2.25,1.676,3.563,1.676c0.73,0,1.296-0.051,1.694-0.15
		c0.604-0.152,1.084-0.453,1.438-0.904c0.309-0.377,0.502-0.791,0.584-1.242c0.045-0.252,0.117-0.377,0.221-0.377
		s0.154,0.094,0.154,0.283c0,0.137-0.039,0.502-0.119,1.092c-0.094,0.652-0.175,1.117-0.248,1.393
		c-0.074,0.275-0.226,0.465-0.455,0.564C189.479,21.979,188.454,22.123,187.049,22.123z"/>
	<path fill="#4D4D4D" d="M204.735,22.123c-0.992,0-1.826-0.164-2.499-0.49c-0.217-0.1-0.325-0.314-0.325-0.641
		c0-0.678,0.028-1.498,0.086-2.465c0.022-0.326,0.094-0.49,0.207-0.49s0.17,0.107,0.17,0.32c0,0.264,0.053,0.584,0.155,0.961
		c0.343,1.268,1.158,1.9,2.448,1.9c0.72,0,1.295-0.232,1.729-0.697c0.377-0.414,0.565-0.896,0.565-1.449
		c0-1.041-0.562-2.045-1.681-3.012l-0.786-0.678c-1.688-1.455-2.533-2.941-2.533-4.461c0-1.041,0.362-1.895,1.095-2.561
		c0.729-0.664,1.686-0.996,2.86-0.996c0.739,0,1.501,0.105,2.278,0.32c0.158,0.049,0.238,0.125,0.238,0.225
		c0-0.025-0.012,0.197-0.033,0.668c-0.023,0.471-0.037,1.003-0.037,1.593c0,0.375-0.062,0.564-0.188,0.564
		c-0.113,0-0.171-0.113-0.171-0.34c0-0.426-0.149-0.84-0.444-1.242c-0.447-0.613-1.068-0.922-1.865-0.922
		c-0.631,0-1.125,0.18-1.492,0.537c-0.366,0.357-0.549,0.824-0.549,1.402c0,0.439,0.129,0.855,0.385,1.252
		c0.258,0.395,0.734,0.881,1.431,1.459l0.479,0.395c1.027,0.854,1.752,1.641,2.175,2.361c0.423,0.723,0.635,1.535,0.635,2.438
		c0,1.42-0.537,2.512-1.61,3.275C206.741,21.865,205.831,22.123,204.735,22.123z"/>
	<path fill="#4D4D4D" d="M219.276,22.123c-2.49,0-4.443-0.682-5.865-2.043c-1.42-1.361-2.133-3.215-2.133-5.563
		c0-2.096,0.663-3.813,1.995-5.148c1.329-1.336,3.136-2.004,5.42-2.004c0.786,0,1.613,0.063,2.481,0.188
		c0.398,0.088,0.971,0.195,1.713,0.32c0.173,0.012,0.258,0.088,0.258,0.227c0,0.037-0.014,0.143-0.035,0.318
		c-0.023,0.227-0.04,0.465-0.05,0.717c-0.015,0.551-0.03,1.229-0.054,2.031c-0.021,0.289-0.092,0.434-0.205,0.434
		s-0.172-0.137-0.172-0.414c-0.012-0.652-0.234-1.229-0.668-1.732c-0.295-0.338-0.748-0.613-1.354-0.828
		c-0.65-0.225-1.357-0.338-2.124-0.338c-1.369,0-2.442,0.389-3.219,1.166c-1.052,1.055-1.573,2.68-1.573,4.877
		c0,2.07,0.609,3.744,1.831,5.025c1.062,1.117,2.25,1.676,3.563,1.676c0.729,0,1.295-0.051,1.693-0.15
		c0.604-0.152,1.083-0.453,1.438-0.904c0.311-0.377,0.504-0.791,0.584-1.242c0.046-0.252,0.119-0.377,0.222-0.377
		c0.104,0,0.155,0.094,0.155,0.283c0,0.137-0.042,0.502-0.119,1.092c-0.094,0.652-0.178,1.117-0.249,1.393
		c-0.074,0.275-0.226,0.465-0.455,0.564C221.706,21.979,220.678,22.123,219.276,22.123z"/>
	<path fill="#4D4D4D" d="M226.842,16.401v-3.313c0-2.248-0.012-3.578-0.032-3.992c-0.035-0.602-0.229-0.953-0.584-1.053
		c-0.185-0.051-0.39-0.076-0.616-0.076c-0.184,0-0.273-0.063-0.273-0.188c0-0.102,0.136-0.15,0.41-0.15
		c0.228,0,0.618,0.008,1.172,0.027c0.555,0.019,0.904,0.029,1.055,0.029c0.127,0,0.443-0.01,0.96-0.029
		c0.513-0.02,0.89-0.027,1.129-0.027s0.36,0.049,0.36,0.15c0,0.125-0.084,0.188-0.25,0.188c-0.164,0-0.344,0.02-0.539,0.057
		c-0.389,0.076-0.6,0.434-0.633,1.072c-0.021,0.428-0.033,1.758-0.033,3.992v3.313c0,2.246,0.021,3.619,0.066,4.121
		c0.047,0.553,0.275,0.861,0.687,0.924c0.329,0.049,0.622,0.074,0.872,0.074c0.184,0,0.275,0.051,0.275,0.15
		c0,0.127-0.107,0.189-0.324,0.189c-0.436,0-0.963-0.01-1.586-0.029c-0.621-0.018-0.983-0.027-1.086-0.027
		c-0.104,0-0.426,0.01-0.968,0.027c-0.544,0.02-0.94,0.029-1.19,0.029c-0.229,0-0.342-0.063-0.342-0.189
		c0-0.088,0.125-0.145,0.377-0.168c0.17-0.025,0.342-0.045,0.513-0.057c0.272-0.063,0.438-0.373,0.497-0.932
		C226.814,19.955,226.842,18.584,226.842,16.401z"/>
	<path fill="#4D4D4D" d="M234.583,16.401v-3.313c0-2.248-0.012-3.578-0.033-3.992c-0.034-0.602-0.279-0.959-0.736-1.072
		c-0.16-0.037-0.384-0.057-0.668-0.057c-0.195,0-0.291-0.057-0.291-0.17c0-0.111,0.127-0.168,0.377-0.168
		c0.344,0,0.807,0.008,1.395,0.027c0.588,0.019,0.945,0.029,1.072,0.029c2.706,0,4.133-0.008,4.279-0.02
		c0.297-0.025,0.542-0.063,0.738-0.113c0.193-0.051,0.283-0.074,0.273-0.074c0.066,0,0.104,0.055,0.104,0.168
		c0,0.014-0.021,0.127-0.053,0.34c-0.037,0.25-0.06,0.545-0.078,0.885c-0.018,0.338-0.049,0.752-0.096,1.242
		c-0.021,0.139-0.08,0.207-0.171,0.207c-0.079,0-0.128-0.068-0.146-0.207c-0.018-0.139-0.032-0.27-0.043-0.396
		c-0.014-0.125-0.033-0.238-0.069-0.338c-0.136-0.363-0.519-0.59-1.146-0.678c-0.39-0.051-1.199-0.076-2.434-0.076
		c-0.08,0-0.119,0.064-0.119,0.189v4.762c0,0.139,0.039,0.207,0.119,0.207c1.555,0,2.467-0.012,2.74-0.037
		c0.193-0.012,0.342-0.031,0.445-0.057c0.17-0.051,0.297-0.125,0.377-0.227c0.136-0.162,0.228-0.244,0.272-0.244
		c0.08,0,0.119,0.051,0.119,0.15c0,0.014-0.017,0.139-0.05,0.377c-0.035,0.289-0.064,0.621-0.088,0.998
		c-0.045,0.715-0.066,1.135-0.066,1.26c0,0.238-0.053,0.357-0.154,0.357c-0.103,0-0.154-0.064-0.154-0.197
		c0-0.131-0.022-0.348-0.067-0.648c-0.094-0.428-0.412-0.672-0.959-0.734c-0.321-0.037-1.13-0.057-2.435-0.057
		c-0.065,0-0.101,0.063-0.101,0.188v4.406c0.021,0.664,0.157,1.094,0.401,1.289c0.246,0.193,0.795,0.291,1.65,0.291
		c0.776,0,1.313-0.074,1.61-0.227c0.399-0.199,0.657-0.664,0.772-1.393c0.033-0.188,0.095-0.281,0.188-0.281
		c0.09,0,0.135,0.113,0.135,0.338c0,0.766-0.074,1.463-0.222,2.09c-0.058,0.227-0.136,0.363-0.239,0.414
		c-0.104,0.051-0.332,0.076-0.687,0.076c-0.993,0-1.981-0.02-2.962-0.057c-0.982-0.039-1.576-0.057-1.78-0.057
		c-0.103,0-0.426,0.01-0.969,0.027c-0.542,0.02-0.938,0.029-1.19,0.029c-0.227,0-0.342-0.063-0.342-0.189
		c0-0.088,0.126-0.145,0.378-0.168c0.17-0.025,0.341-0.045,0.513-0.057c0.262-0.063,0.43-0.408,0.496-1.035
		C234.553,19.92,234.583,18.584,234.583,16.401z"/>
	<path fill="#4D4D4D" d="M246.176,11.393l0.188,7.906c0.033,1.256,0.234,1.951,0.6,2.09c0.033,0.012,0.256,0.043,0.666,0.094
		c0.345,0.051,0.515,0.113,0.515,0.188c0,0.127-0.132,0.189-0.394,0.189c-0.437,0-0.885-0.01-1.354-0.029
		c-0.468-0.018-0.726-0.027-0.771-0.027c0.012,0-0.205,0.01-0.651,0.027c-0.444,0.02-0.845,0.029-1.197,0.029
		c-0.252,0-0.377-0.063-0.377-0.189c0-0.088,0.147-0.145,0.444-0.168c0.207-0.025,0.404-0.051,0.601-0.076
		c0.218-0.076,0.359-0.275,0.429-0.602c0.059-0.289,0.092-0.867,0.102-1.732l0.154-11.146c0.012-0.426,0.084-0.639,0.223-0.639
		c0.093,0,0.304,0.193,0.634,0.584c0.937,1.104,2.706,3.117,5.31,6.041c1.162,1.33,2.42,2.762,3.768,4.293h0.085l-0.171-8.453
		c-0.014-0.463-0.035-0.783-0.068-0.959c-0.091-0.377-0.264-0.621-0.515-0.734c-0.17-0.076-0.474-0.113-0.907-0.113
		c-0.182,0-0.273-0.057-0.273-0.17c0-0.111,0.149-0.168,0.445-0.168c0.342,0,0.754,0.008,1.234,0.027
		c0.477,0.021,0.758,0.029,0.838,0.029c0.012,0,0.211-0.01,0.598-0.029c0.39-0.019,0.748-0.027,1.08-0.027
		c0.262,0,0.395,0.057,0.395,0.168c0,0.113-0.102,0.17-0.309,0.17c-0.57,0-0.92,0.207-1.043,0.621
		c-0.059,0.227-0.094,0.572-0.104,1.035l-0.188,11.879c-0.013,0.389-0.086,0.582-0.225,0.582c-0.124,0-0.318-0.137-0.581-0.414
		c-1.096-1.191-2.782-3.037-5.053-5.533c-0.775-0.842-1.648-1.838-2.62-2.994c-0.49-0.588-0.975-1.172-1.455-1.75L246.176,11.393
		L246.176,11.393z"/>
	<path fill="#4D4D4D" d="M267.75,22.123c-2.488,0-4.442-0.682-5.864-2.043c-1.421-1.361-2.132-3.215-2.132-5.563
		c0-2.096,0.666-3.813,1.994-5.148c1.33-1.336,3.137-2.004,5.418-2.004c0.789,0,1.617,0.063,2.484,0.188
		c0.398,0.088,0.971,0.195,1.713,0.32c0.172,0.012,0.256,0.088,0.256,0.227c0,0.037-0.011,0.143-0.033,0.318
		c-0.023,0.227-0.041,0.465-0.053,0.717c-0.012,0.551-0.027,1.229-0.052,2.031c-0.022,0.289-0.091,0.434-0.206,0.434
		c-0.113,0-0.172-0.137-0.172-0.414c-0.011-0.652-0.234-1.229-0.667-1.732c-0.297-0.338-0.748-0.613-1.353-0.828
		c-0.65-0.225-1.359-0.338-2.123-0.338c-1.37,0-2.443,0.389-3.219,1.166c-1.052,1.055-1.576,2.68-1.576,4.877
		c0,2.07,0.61,3.744,1.832,5.025c1.063,1.117,2.25,1.676,3.563,1.676c0.73,0,1.295-0.051,1.695-0.15
		c0.604-0.152,1.085-0.453,1.438-0.904c0.309-0.377,0.501-0.791,0.582-1.242c0.047-0.252,0.12-0.377,0.223-0.377
		c0.104,0,0.153,0.094,0.153,0.283c0,0.137-0.038,0.502-0.118,1.092c-0.093,0.652-0.175,1.117-0.248,1.393
		c-0.076,0.276-0.228,0.465-0.453,0.564C270.182,21.979,269.155,22.123,267.75,22.123z"/>
	<path fill="#4D4D4D" d="M275.32,16.401v-3.313c0-2.248-0.014-3.578-0.034-3.992c-0.035-0.602-0.281-0.959-0.738-1.072
		c-0.159-0.037-0.381-0.057-0.666-0.057c-0.194,0-0.293-0.057-0.293-0.17c0-0.111,0.127-0.168,0.377-0.168
		c0.345,0,0.81,0.008,1.396,0.027c0.588,0.019,0.943,0.029,1.07,0.029c2.705,0,4.132-0.008,4.281-0.02
		c0.297-0.025,0.541-0.063,0.734-0.113c0.194-0.05,0.287-0.074,0.274-0.074c0.069,0,0.103,0.055,0.103,0.168
		c0,0.014-0.017,0.127-0.052,0.34c-0.032,0.25-0.06,0.545-0.076,0.885c-0.018,0.338-0.051,0.752-0.095,1.242
		c-0.021,0.139-0.08,0.207-0.171,0.207c-0.08,0-0.129-0.068-0.146-0.207c-0.019-0.139-0.031-0.27-0.045-0.396
		c-0.011-0.125-0.033-0.238-0.066-0.338c-0.137-0.363-0.521-0.59-1.147-0.678c-0.389-0.051-1.196-0.076-2.431-0.076
		c-0.081,0-0.122,0.064-0.122,0.189v4.762c0,0.139,0.041,0.207,0.122,0.207c1.551,0,2.464-0.012,2.74-0.037
		c0.192-0.012,0.341-0.031,0.443-0.057c0.172-0.051,0.295-0.125,0.376-0.227c0.138-0.162,0.229-0.244,0.274-0.244
		c0.078,0,0.119,0.051,0.119,0.15c0,0.014-0.019,0.139-0.051,0.377c-0.033,0.289-0.063,0.621-0.086,0.998
		c-0.047,0.715-0.07,1.135-0.07,1.26c0,0.238-0.051,0.357-0.152,0.357s-0.152-0.064-0.152-0.197c0-0.131-0.023-0.348-0.07-0.648
		c-0.092-0.428-0.409-0.672-0.957-0.734c-0.32-0.037-1.133-0.057-2.434-0.057c-0.068,0-0.104,0.063-0.104,0.188v4.406
		c0.023,0.664,0.156,1.094,0.402,1.289c0.246,0.193,0.797,0.291,1.653,0.291c0.775,0,1.31-0.074,1.609-0.227
		c0.397-0.199,0.655-0.664,0.77-1.393c0.035-0.188,0.097-0.281,0.188-0.281c0.093,0,0.137,0.113,0.137,0.338
		c0,0.766-0.072,1.463-0.223,2.09c-0.057,0.227-0.137,0.363-0.24,0.414c-0.104,0.051-0.33,0.076-0.684,0.076
		c-0.994,0-1.982-0.02-2.965-0.057c-0.979-0.039-1.574-0.057-1.779-0.057c-0.104,0-0.426,0.01-0.967,0.027
		c-0.545,0.02-0.94,0.029-1.19,0.029c-0.229,0-0.345-0.063-0.345-0.189c0-0.088,0.127-0.145,0.377-0.168
		c0.171-0.025,0.345-0.045,0.514-0.057c0.264-0.063,0.428-0.408,0.497-1.035C275.292,19.92,275.32,18.584,275.32,16.401z"/>
	<path fill="#4D4D4D" d="M287.7,22.123c-0.992,0-1.826-0.164-2.5-0.49c-0.218-0.1-0.324-0.314-0.324-0.641
		c0-0.678,0.026-1.498,0.084-2.465c0.022-0.326,0.092-0.49,0.205-0.49c0.115,0,0.172,0.107,0.172,0.32
		c0,0.264,0.053,0.584,0.156,0.961c0.34,1.268,1.156,1.9,2.446,1.9c0.72,0,1.296-0.232,1.729-0.697
		c0.375-0.414,0.563-0.896,0.563-1.449c0-1.041-0.562-2.045-1.678-3.012l-0.788-0.678c-1.689-1.455-2.534-2.941-2.534-4.461
		c0-1.041,0.365-1.895,1.097-2.561c0.729-0.664,1.684-0.996,2.858-0.996c0.742,0,1.501,0.105,2.278,0.32
		c0.16,0.049,0.24,0.125,0.24,0.225c0-0.025-0.012,0.197-0.033,0.668c-0.023,0.471-0.034,1.002-0.034,1.592
		c0,0.375-0.063,0.564-0.19,0.564c-0.113,0-0.171-0.113-0.171-0.34c0-0.426-0.147-0.84-0.442-1.242
		c-0.446-0.613-1.068-0.922-1.867-0.922c-0.629,0-1.125,0.18-1.491,0.537c-0.364,0.357-0.548,0.824-0.548,1.402
		c0,0.439,0.128,0.855,0.385,1.252c0.258,0.395,0.734,0.881,1.432,1.459l0.479,0.395c1.025,0.854,1.752,1.641,2.175,2.361
		c0.421,0.723,0.632,1.535,0.632,2.438c0,1.42-0.535,2.512-1.609,3.275C289.704,21.865,288.795,22.123,287.7,22.123z"/>
</g>
<g enable-background="new    ">
	<path fill="#4D4D4D" d="M55.642,41.116v-1.544c0-0.666-0.133-1.323-0.395-1.977c-0.067-0.152-0.516-0.975-1.344-2.468
		c-0.828-1.491-1.385-2.479-1.669-2.955c-0.422-0.688-0.816-1.147-1.181-1.375c-0.263-0.161-0.502-0.243-0.72-0.243
		c-0.171,0-0.257-0.059-0.257-0.17s0.109-0.169,0.325-0.169c0.08,0,0.408,0.009,0.985,0.026c0.577,0.021,0.967,0.029,1.174,0.029
		c0.091,0,0.348-0.01,0.77-0.029s0.776-0.026,1.062-0.026c0.17,0,0.256,0.058,0.256,0.169c0,0.075-0.126,0.145-0.376,0.206
		c-0.16,0.039-0.241,0.149-0.241,0.341c0,0.112,0.068,0.325,0.206,0.641c0.045,0.111,1.016,1.988,2.911,5.628
		c0.776-1.531,1.632-3.257,2.568-5.177c0.161-0.389,0.241-0.715,0.241-0.979c0-0.252-0.112-0.406-0.334-0.461
		c-0.223-0.059-0.334-0.123-0.334-0.199c0-0.109,0.097-0.168,0.292-0.168c0.193,0,0.471,0.008,0.831,0.026
		c0.36,0.021,0.619,0.028,0.778,0.028c0.126,0,0.438-0.01,0.934-0.028c0.497-0.019,0.796-0.026,0.899-0.026
		c0.206,0,0.308,0.049,0.308,0.149c0,0.125-0.111,0.188-0.334,0.188s-0.468,0.075-0.736,0.227c-0.269,0.15-0.58,0.457-0.933,0.923
		c-0.273,0.362-0.848,1.351-1.722,2.955c-0.873,1.606-1.39,2.616-1.549,3.03c-0.171,0.451-0.257,1.078-0.257,1.883v1.544
		c0,1.104,0.028,1.817,0.085,2.146c0.068,0.465,0.291,0.723,0.667,0.772c0.331,0.049,0.616,0.073,0.856,0.073
		c0.183,0,0.274,0.052,0.274,0.149c0,0.127-0.121,0.188-0.361,0.188c-0.411,0-0.924-0.01-1.541-0.028
		c-0.617-0.019-0.976-0.026-1.079-0.026c-0.125,0-0.457,0.01-0.993,0.026c-0.537,0.021-0.919,0.028-1.148,0.028
		c-0.25,0-0.376-0.063-0.376-0.188c0-0.073,0.126-0.131,0.376-0.168c0.161-0.024,0.326-0.045,0.498-0.058
		c0.319-0.076,0.497-0.422,0.531-1.035C55.624,42.458,55.642,41.831,55.642,41.116z"/>
	<path fill="#4D4D4D" d="M70.232,44.712c-2.261,0-4.023-0.815-5.292-2.446c-1.073-1.369-1.61-3.013-1.61-4.933
		c0-1.896,0.537-3.526,1.61-4.896c1.29-1.656,3.11-2.483,5.463-2.483c2.123,0,3.807,0.633,5.052,1.899
		c1.243,1.267,1.866,2.979,1.866,5.14c0,2.209-0.64,4.034-1.918,5.479C74.09,43.964,72.365,44.712,70.232,44.712z M70.95,43.771
		c0.959,0,1.769-0.332,2.432-0.998c1.027-1.019,1.542-2.711,1.542-5.082c0-2.06-0.486-3.728-1.456-5.008
		c-0.937-1.218-2.123-1.826-3.562-1.826c-1.176,0-2.123,0.396-2.842,1.187c-0.913,1.006-1.37,2.573-1.37,4.707
		c0,2.021,0.468,3.679,1.404,4.97C68.069,43.087,69.352,43.771,70.95,43.771z"/>
	<path fill="#4D4D4D" d="M81.841,33.98l0.188,7.906c0.035,1.256,0.233,1.951,0.6,2.09c0.035,0.012,0.258,0.043,0.667,0.094
		c0.342,0.052,0.514,0.113,0.514,0.188c0,0.128-0.131,0.188-0.394,0.188c-0.435,0-0.886-0.01-1.353-0.028
		c-0.468-0.019-0.725-0.026-0.77-0.026c0.012,0-0.206,0.01-0.651,0.026c-0.445,0.021-0.845,0.028-1.198,0.028
		c-0.251,0-0.377-0.063-0.377-0.188c0-0.088,0.148-0.146,0.445-0.168c0.205-0.024,0.404-0.052,0.599-0.075
		c0.217-0.076,0.361-0.274,0.429-0.604c0.057-0.289,0.091-0.866,0.102-1.73l0.154-11.146c0.013-0.426,0.086-0.639,0.223-0.639
		c0.091,0,0.302,0.192,0.633,0.584c0.936,1.104,2.705,3.117,5.308,6.041c1.165,1.33,2.42,2.762,3.768,4.293h0.085l-0.171-8.453
		c-0.012-0.463-0.035-0.783-0.068-0.959c-0.091-0.377-0.262-0.621-0.514-0.733c-0.171-0.075-0.474-0.112-0.908-0.112
		c-0.183,0-0.273-0.058-0.273-0.17c0-0.111,0.148-0.168,0.445-0.168c0.342,0,0.753,0.008,1.233,0.025
		c0.479,0.021,0.759,0.029,0.838,0.029c0.012,0,0.211-0.01,0.6-0.029c0.388-0.02,0.747-0.025,1.079-0.025
		c0.263,0,0.395,0.057,0.395,0.168c0,0.112-0.104,0.17-0.308,0.17c-0.571,0-0.92,0.207-1.045,0.621
		c-0.057,0.227-0.092,0.571-0.104,1.034l-0.188,11.879c-0.011,0.39-0.085,0.582-0.222,0.582c-0.126,0-0.32-0.138-0.583-0.414
		c-1.096-1.19-2.78-3.036-5.051-5.532c-0.778-0.842-1.65-1.838-2.62-2.994c-0.491-0.588-0.976-1.172-1.456-1.75h-0.049V33.98H81.841
		z"/>
	<path fill="#4D4D4D" d="M98.844,44.712c-0.994,0-1.828-0.164-2.5-0.489c-0.218-0.101-0.325-0.314-0.325-0.642
		c0-0.679,0.028-1.498,0.085-2.465c0.023-0.326,0.093-0.49,0.207-0.49c0.114,0,0.17,0.106,0.17,0.319
		c0,0.265,0.053,0.584,0.153,0.961c0.342,1.269,1.16,1.9,2.449,1.9c0.72,0,1.295-0.231,1.73-0.697
		c0.376-0.414,0.565-0.896,0.565-1.448c0-1.041-0.56-2.046-1.679-3.013l-0.788-0.678c-1.688-1.455-2.533-2.941-2.533-4.462
		c0-1.04,0.364-1.896,1.096-2.562c0.729-0.664,1.683-0.996,2.859-0.996c0.743,0,1.501,0.105,2.277,0.32
		c0.159,0.049,0.239,0.125,0.239,0.225c0-0.023-0.012,0.197-0.035,0.668c-0.022,0.473-0.034,1.003-0.034,1.593
		c0,0.375-0.063,0.563-0.188,0.563c-0.114,0-0.171-0.112-0.171-0.34c0-0.426-0.148-0.84-0.445-1.242
		c-0.444-0.612-1.067-0.922-1.866-0.922c-0.627,0-1.125,0.18-1.49,0.537c-0.366,0.356-0.548,0.824-0.548,1.401
		c0,0.438,0.128,0.854,0.384,1.252c0.257,0.396,0.734,0.882,1.431,1.459l0.479,0.396c1.027,0.854,1.752,1.642,2.175,2.361
		c0.422,0.723,0.634,1.534,0.634,2.438c0,1.42-0.537,2.513-1.61,3.275C100.848,44.454,99.941,44.712,98.844,44.712z"/>
	<path fill="#4D4D4D" d="M107.251,38.988v-3.313c0-2.248-0.012-3.578-0.034-3.992c-0.035-0.603-0.281-0.959-0.737-1.07
		c-0.16-0.037-0.383-0.059-0.667-0.059c-0.194,0-0.291-0.058-0.291-0.17c0-0.109,0.125-0.168,0.377-0.168
		c0.342,0,0.807,0.008,1.395,0.026c0.588,0.021,0.944,0.028,1.07,0.028c2.705,0,4.132-0.008,4.281-0.02
		c0.297-0.025,0.542-0.063,0.736-0.113c0.193-0.05,0.285-0.074,0.273-0.074c0.068,0,0.103,0.056,0.103,0.168
		c0,0.015-0.017,0.127-0.051,0.34c-0.034,0.25-0.061,0.546-0.077,0.887c-0.018,0.338-0.049,0.752-0.095,1.241
		c-0.022,0.14-0.08,0.206-0.171,0.206c-0.08,0-0.128-0.066-0.145-0.206c-0.018-0.14-0.032-0.271-0.043-0.396
		c-0.012-0.125-0.035-0.238-0.068-0.339c-0.138-0.362-0.52-0.59-1.147-0.679c-0.389-0.051-1.199-0.075-2.432-0.075
		c-0.081,0-0.121,0.063-0.121,0.188v4.762c0,0.141,0.039,0.207,0.121,0.207c1.551,0,2.465-0.012,2.74-0.036
		c0.194-0.013,0.342-0.03,0.445-0.058c0.171-0.051,0.296-0.125,0.376-0.228c0.136-0.161,0.229-0.243,0.273-0.243
		c0.08,0,0.121,0.051,0.121,0.149c0,0.015-0.018,0.14-0.052,0.377c-0.035,0.289-0.063,0.621-0.086,0.998
		c-0.046,0.715-0.069,1.135-0.069,1.26c0,0.238-0.051,0.356-0.153,0.356s-0.154-0.063-0.154-0.196c0-0.131-0.022-0.349-0.067-0.647
		c-0.093-0.429-0.412-0.672-0.959-0.734c-0.32-0.037-1.13-0.057-2.432-0.057c-0.068,0-0.103,0.063-0.103,0.188v4.406
		c0.023,0.664,0.157,1.094,0.402,1.289c0.247,0.193,0.796,0.291,1.652,0.291c0.775,0,1.312-0.074,1.609-0.228
		c0.4-0.198,0.657-0.663,0.77-1.394c0.035-0.188,0.097-0.28,0.188-0.28c0.092,0,0.138,0.112,0.138,0.338
		c0,0.767-0.075,1.464-0.223,2.091c-0.057,0.227-0.138,0.362-0.24,0.413c-0.103,0.052-0.331,0.076-0.685,0.076
		c-0.994,0-1.981-0.021-2.962-0.058c-0.982-0.039-1.575-0.057-1.781-0.057c-0.104,0-0.425,0.01-0.967,0.025
		c-0.542,0.021-0.939,0.029-1.189,0.029c-0.229,0-0.342-0.063-0.342-0.188c0-0.088,0.125-0.146,0.377-0.168
		c0.17-0.024,0.342-0.045,0.513-0.058c0.262-0.063,0.427-0.408,0.496-1.035C107.224,42.509,107.251,41.173,107.251,38.988z"/>
	<path fill="#4D4D4D" d="M118.074,38.988v-3.313c0-2.248-0.012-3.578-0.035-3.992c-0.035-0.603-0.229-0.951-0.583-1.053
		c-0.183-0.052-0.389-0.076-0.616-0.076c-0.182,0-0.274-0.063-0.274-0.188c0-0.102,0.137-0.148,0.412-0.148
		c0.228,0,0.619,0.008,1.173,0.025c0.554,0.021,0.904,0.029,1.054,0.029c0.125,0,0.444-0.01,0.958-0.029
		c0.515-0.02,0.891-0.025,1.13-0.025c0.239,0,0.36,0.049,0.36,0.148c0,0.125-0.084,0.188-0.248,0.188
		c-0.165,0-0.346,0.021-0.54,0.059c-0.389,0.076-0.599,0.434-0.633,1.07c-0.023,0.43-0.036,1.76-0.036,3.992v3.313
		c0,2.246,0.023,3.619,0.07,4.121c0.046,0.554,0.273,0.861,0.684,0.925c0.333,0.049,0.624,0.073,0.874,0.073
		c0.183,0,0.274,0.052,0.274,0.149c0,0.127-0.108,0.188-0.324,0.188c-0.434,0-0.962-0.01-1.583-0.028
		c-0.625-0.019-0.985-0.026-1.088-0.026s-0.425,0.01-0.966,0.026c-0.543,0.021-0.939,0.028-1.191,0.028
		c-0.228,0-0.342-0.063-0.342-0.188c0-0.088,0.126-0.146,0.376-0.168c0.172-0.024,0.342-0.045,0.515-0.058
		c0.273-0.063,0.439-0.373,0.497-0.932C118.045,42.544,118.074,41.173,118.074,38.988z"/>
	<path fill="#4D4D4D" d="M133.639,38.425v-2.747c0-2.248-0.013-3.578-0.034-3.992c-0.035-0.603-0.281-0.959-0.737-1.072
		c-0.16-0.037-0.383-0.057-0.667-0.057c-0.193,0-0.29-0.058-0.29-0.17c0-0.111,0.125-0.168,0.376-0.168
		c0.331,0,0.796,0.008,1.395,0.026c0.6,0.021,0.968,0.028,1.105,0.028c0.125,0,0.454-0.01,0.984-0.028
		c0.531-0.021,0.904-0.026,1.121-0.026c0.25,0,0.376,0.057,0.376,0.168c0,0.112-0.091,0.17-0.274,0.17
		c-0.136,0-0.302,0.02-0.497,0.057c-0.388,0.076-0.599,0.435-0.633,1.072c-0.022,0.428-0.034,1.758-0.034,3.992v2.635
		c0,2.283,0.445,3.828,1.335,4.631c0.571,0.514,1.285,0.771,2.141,0.771c0.959,0,1.747-0.34,2.364-1.019
		c0.423-0.463,0.708-1.129,0.855-1.993c0.093-0.578,0.137-1.47,0.137-2.675v-2.353c0-2.247-0.013-3.577-0.034-3.991
		c-0.035-0.604-0.281-0.959-0.738-1.072c-0.16-0.036-0.364-0.057-0.616-0.057c-0.195,0-0.292-0.059-0.292-0.171
		c0-0.11,0.121-0.168,0.361-0.168c0.502,0,1.157,0.019,1.969,0.058c0.034,0,0.302-0.01,0.805-0.028
		c0.502-0.021,0.884-0.026,1.147-0.026c0.24,0,0.36,0.057,0.36,0.168c0,0.112-0.103,0.17-0.309,0.17
		c-0.136,0-0.303,0.02-0.496,0.057c-0.39,0.076-0.6,0.435-0.634,1.072c-0.023,0.428-0.035,1.758-0.035,3.992v2.014
		c0,1.279-0.091,2.313-0.273,3.104c-0.251,1.093-0.702,1.944-1.353,2.562c-0.958,0.901-2.146,1.354-3.562,1.354
		c-1.667,0-2.934-0.435-3.801-1.299C134.147,42.409,133.639,40.745,133.639,38.425z"/>
	<path fill="#4D4D4D" d="M149.736,33.98l0.188,7.906c0.033,1.256,0.232,1.951,0.599,2.09c0.035,0.012,0.257,0.043,0.668,0.094
		c0.343,0.052,0.513,0.113,0.513,0.188c0,0.128-0.132,0.188-0.394,0.188c-0.435,0-0.886-0.01-1.353-0.028
		c-0.469-0.019-0.726-0.026-0.771-0.026c0.011,0-0.207,0.01-0.65,0.026c-0.445,0.021-0.847,0.028-1.199,0.028
		c-0.252,0-0.377-0.063-0.377-0.188c0-0.088,0.148-0.146,0.445-0.168c0.205-0.024,0.405-0.052,0.6-0.075
		c0.217-0.076,0.359-0.274,0.429-0.604c0.057-0.289,0.091-0.866,0.103-1.73l0.154-11.146c0.012-0.426,0.085-0.639,0.223-0.639
		c0.09,0,0.303,0.192,0.633,0.584c0.936,1.104,2.705,3.117,5.308,6.041c1.165,1.33,2.42,2.762,3.769,4.293h0.086l-0.172-8.453
		c-0.012-0.463-0.033-0.783-0.066-0.959c-0.092-0.377-0.264-0.621-0.514-0.733c-0.172-0.075-0.475-0.112-0.91-0.112
		c-0.183,0-0.272-0.058-0.272-0.17c0-0.111,0.147-0.168,0.444-0.168c0.342,0,0.754,0.008,1.232,0.025
		c0.479,0.021,0.76,0.029,0.838,0.029c0.014,0,0.211-0.01,0.601-0.029c0.388-0.02,0.747-0.025,1.079-0.025
		c0.263,0,0.393,0.057,0.393,0.168c0,0.112-0.102,0.17-0.309,0.17c-0.569,0-0.918,0.207-1.043,0.621
		c-0.059,0.227-0.092,0.571-0.104,1.034l-0.188,11.879c-0.012,0.39-0.086,0.582-0.223,0.582c-0.127,0-0.32-0.138-0.582-0.414
		c-1.097-1.19-2.781-3.036-5.053-5.532c-0.777-0.842-1.648-1.838-2.62-2.994c-0.491-0.588-0.977-1.172-1.456-1.75h-0.05V33.98
		H149.736z"/>
	<path fill="#4D4D4D" d="M165.18,38.988v-3.313c0-2.248-0.012-3.578-0.034-3.992c-0.033-0.603-0.229-0.951-0.583-1.053
		c-0.182-0.052-0.389-0.076-0.617-0.076c-0.182,0-0.273-0.063-0.273-0.188c0-0.102,0.139-0.148,0.412-0.148
		c0.229,0,0.619,0.008,1.174,0.025c0.552,0.021,0.904,0.029,1.052,0.029c0.126,0,0.444-0.01,0.96-0.029
		c0.514-0.02,0.891-0.025,1.13-0.025s0.358,0.049,0.358,0.148c0,0.125-0.084,0.188-0.246,0.188c-0.165,0-0.348,0.021-0.542,0.059
		c-0.388,0.076-0.599,0.434-0.632,1.07c-0.022,0.43-0.035,1.76-0.035,3.992v3.313c0,2.246,0.021,3.619,0.068,4.121
		c0.047,0.554,0.274,0.861,0.686,0.925c0.331,0.049,0.623,0.073,0.874,0.073c0.183,0,0.272,0.052,0.272,0.149
		c0,0.127-0.107,0.188-0.324,0.188c-0.435,0-0.963-0.01-1.582-0.028c-0.625-0.019-0.986-0.026-1.088-0.026
		c-0.104,0-0.428,0.01-0.969,0.026c-0.543,0.021-0.938,0.028-1.189,0.028c-0.229,0-0.344-0.063-0.344-0.188
		c0-0.088,0.127-0.146,0.379-0.168c0.17-0.024,0.342-0.045,0.513-0.058c0.274-0.063,0.438-0.373,0.496-0.932
		C165.153,42.54,165.18,41.173,165.18,38.988z"/>
	<path fill="#4D4D4D" d="M175.661,43.563l-4.315-11.502c-0.183-0.488-0.37-0.834-0.563-1.035c-0.16-0.162-0.404-0.295-0.736-0.395
		c-0.172-0.051-0.395-0.076-0.668-0.076c-0.137,0-0.207-0.057-0.207-0.17c0-0.111,0.149-0.168,0.447-0.168
		c0.329,0,0.782,0.008,1.36,0.027c0.576,0.02,0.951,0.029,1.12,0.029c0.104,0,0.398-0.012,0.892-0.029
		c0.491-0.021,0.896-0.027,1.216-0.027c0.262,0,0.395,0.057,0.395,0.168c0,0.113-0.086,0.17-0.256,0.17
		c-0.332,0-0.555,0.045-0.668,0.133s-0.172,0.219-0.172,0.396c0,0.2,0.131,0.684,0.395,1.447l2.943,8.548h0.068
		c0.982-2.711,2.107-5.836,3.375-9.375c0.103-0.313,0.153-0.548,0.153-0.696c0-0.188-0.08-0.313-0.239-0.367
		c-0.16-0.055-0.385-0.084-0.668-0.084c-0.193,0-0.291-0.051-0.291-0.148c0-0.125,0.16-0.188,0.479-0.188
		c0.343,0,0.722,0.008,1.14,0.025c0.415,0.021,0.635,0.029,0.659,0.029c0.08,0,0.319-0.01,0.721-0.029
		c0.397-0.02,0.696-0.025,0.89-0.025c0.242,0,0.359,0.057,0.359,0.168c0,0.112-0.092,0.17-0.273,0.17
		c-0.354,0-0.635,0.075-0.84,0.228c-0.272,0.2-0.592,0.767-0.959,1.692c-0.365,0.931-1.043,2.629-2.037,5.103l-2.278,5.739
		c-0.249,0.615-0.403,0.986-0.461,1.111c-0.104,0.188-0.212,0.282-0.325,0.282c-0.104,0-0.199-0.082-0.291-0.245
		C175.963,44.354,175.844,44.053,175.661,43.563z"/>
	<path fill="#4D4D4D" d="M185.317,38.988v-3.313c0-2.248-0.011-3.578-0.033-3.992c-0.033-0.603-0.279-0.959-0.736-1.07
		c-0.159-0.037-0.383-0.059-0.666-0.059c-0.196,0-0.293-0.058-0.293-0.17c0-0.109,0.127-0.168,0.377-0.168
		c0.344,0,0.808,0.008,1.396,0.026c0.589,0.021,0.945,0.028,1.071,0.028c2.707,0,4.132-0.008,4.279-0.02
		c0.297-0.025,0.543-0.063,0.738-0.113c0.193-0.051,0.284-0.074,0.273-0.074c0.066,0,0.104,0.056,0.104,0.168
		c0,0.015-0.02,0.127-0.053,0.34c-0.035,0.25-0.061,0.546-0.079,0.887c-0.015,0.338-0.047,0.752-0.093,1.241
		c-0.023,0.14-0.081,0.206-0.172,0.206c-0.08,0-0.129-0.066-0.146-0.206s-0.031-0.271-0.044-0.396
		c-0.012-0.125-0.032-0.238-0.067-0.339c-0.137-0.362-0.519-0.59-1.146-0.679c-0.39-0.051-1.198-0.075-2.435-0.075
		c-0.078,0-0.118,0.063-0.118,0.188v4.762c0,0.141,0.04,0.207,0.118,0.207c1.555,0,2.468-0.012,2.74-0.036
		c0.194-0.013,0.344-0.03,0.446-0.058c0.171-0.051,0.298-0.125,0.377-0.228c0.138-0.161,0.228-0.243,0.273-0.243
		c0.079,0,0.118,0.051,0.118,0.149c0,0.015-0.017,0.14-0.051,0.377c-0.035,0.289-0.063,0.621-0.086,0.998
		c-0.045,0.715-0.066,1.135-0.066,1.26c0,0.238-0.053,0.356-0.155,0.356s-0.153-0.063-0.153-0.196c0-0.131-0.023-0.349-0.068-0.647
		c-0.092-0.429-0.412-0.672-0.959-0.734c-0.32-0.037-1.131-0.057-2.432-0.057c-0.068,0-0.104,0.063-0.104,0.188v4.406
		c0.021,0.664,0.156,1.094,0.402,1.289c0.244,0.193,0.795,0.291,1.65,0.291c0.777,0,1.313-0.074,1.609-0.228
		c0.4-0.198,0.658-0.663,0.771-1.394c0.033-0.188,0.096-0.28,0.188-0.28c0.09,0,0.137,0.112,0.137,0.338
		c0,0.767-0.074,1.464-0.224,2.091c-0.059,0.227-0.137,0.362-0.239,0.413c-0.103,0.052-0.332,0.076-0.687,0.076
		c-0.992,0-1.98-0.021-2.961-0.058c-0.982-0.039-1.576-0.057-1.781-0.057c-0.104,0-0.426,0.01-0.967,0.025
		c-0.543,0.021-0.939,0.029-1.191,0.029c-0.229,0-0.344-0.063-0.344-0.188c0-0.088,0.127-0.146,0.379-0.168
		c0.172-0.024,0.342-0.045,0.514-0.058c0.262-0.063,0.43-0.408,0.496-1.035C185.29,42.509,185.317,41.173,185.317,38.988z"/>
	<path fill="#4D4D4D" d="M196.14,38.988v-3.313c0-2.248-0.013-3.578-0.034-3.992c-0.033-0.603-0.279-0.959-0.736-1.07
		c-0.16-0.037-0.384-0.059-0.666-0.059c-0.197,0-0.291-0.058-0.291-0.17c0-0.109,0.125-0.168,0.375-0.168
		c0.354,0,0.814,0.008,1.387,0.026c0.572,0.021,0.893,0.028,0.959,0.028c0.195,0,0.604-0.01,1.225-0.028
		c0.625-0.021,1.021-0.026,1.189-0.026c1.385,0,2.436,0.271,3.154,0.811c0.283,0.213,0.534,0.531,0.752,0.961
		c0.274,0.502,0.41,1.041,0.41,1.617c0,1.469-0.753,2.875-2.259,4.217c1.187,1.633,1.87,2.57,2.054,2.824
		c0.663,0.9,1.219,1.613,1.67,2.137c0.451,0.52,0.898,0.881,1.344,1.082c0.229,0.1,0.424,0.162,0.584,0.188
		c0.16,0.026,0.24,0.107,0.24,0.246c0,0.1-0.08,0.15-0.24,0.15h-1.285c-0.82,0-1.432-0.119-1.832-0.357
		c-0.561-0.326-1.342-1.25-2.344-2.768c-0.492-0.768-1.059-1.631-1.695-2.6c-0.069-0.088-0.174-0.133-0.311-0.133l-1.488-0.037
		c-0.094,0-0.137,0.053-0.137,0.149v0.265c0,2.133,0.027,3.479,0.084,4.028c0.068,0.64,0.293,0.983,0.668,1.035
		c0.342,0.049,0.623,0.073,0.84,0.073c0.138,0,0.207,0.052,0.207,0.15c0,0.127-0.115,0.189-0.344,0.189
		c-0.391,0-0.897-0.01-1.533-0.029c-0.633-0.018-0.963-0.027-0.984-0.027c-0.079,0-0.382,0.01-0.907,0.027
		c-0.524,0.02-0.919,0.029-1.182,0.029c-0.228,0-0.343-0.063-0.343-0.189c0-0.088,0.125-0.145,0.377-0.168
		c0.171-0.025,0.343-0.045,0.514-0.057c0.262-0.063,0.43-0.408,0.496-1.035C196.112,42.509,196.14,41.173,196.14,38.988z
		 M198.163,31.439v5.724c0,0.188,0.051,0.302,0.152,0.339c0.318,0.127,0.753,0.188,1.303,0.188c0.549,0,0.952-0.105,1.215-0.319
		c0.674-0.539,1.012-1.479,1.012-2.823c0-1.189-0.309-2.104-0.926-2.729c-0.49-0.478-1.057-0.715-1.694-0.715
		c-0.55,0-0.873,0.037-0.976,0.11C198.191,31.253,198.163,31.327,198.163,31.439z"/>
	<path fill="#4D4D4D" d="M210.625,44.712c-0.992,0-1.826-0.164-2.498-0.489c-0.219-0.101-0.326-0.314-0.326-0.642
		c0-0.679,0.029-1.498,0.086-2.465c0.021-0.326,0.093-0.49,0.207-0.49c0.113,0,0.171,0.106,0.171,0.319
		c0,0.265,0.052,0.584,0.153,0.961c0.345,1.269,1.158,1.9,2.449,1.9c0.719,0,1.295-0.231,1.729-0.697
		c0.377-0.414,0.565-0.896,0.565-1.448c0-1.041-0.561-2.046-1.681-3.013l-0.787-0.678c-1.688-1.455-2.534-2.941-2.534-4.462
		c0-1.04,0.364-1.896,1.096-2.562c0.729-0.664,1.685-0.996,2.861-0.996c0.74,0,1.502,0.105,2.276,0.32
		c0.16,0.049,0.241,0.125,0.241,0.225c0-0.023-0.014,0.197-0.036,0.668c-0.022,0.473-0.033,1.003-0.033,1.593
		c0,0.375-0.062,0.563-0.188,0.563c-0.113,0-0.172-0.112-0.172-0.34c0-0.426-0.147-0.84-0.445-1.242
		c-0.443-0.612-1.067-0.922-1.865-0.922c-0.628,0-1.123,0.18-1.49,0.537c-0.365,0.356-0.549,0.824-0.549,1.401
		c0,0.438,0.129,0.854,0.385,1.252c0.258,0.396,0.734,0.882,1.432,1.459l0.479,0.396c1.027,0.854,1.752,1.642,2.176,2.361
		c0.424,0.723,0.635,1.534,0.635,2.438c0,1.42-0.537,2.513-1.609,3.275C212.629,44.454,211.722,44.712,210.625,44.712z"/>
	<path fill="#4D4D4D" d="M219.034,38.988v-3.313c0-2.248-0.012-3.578-0.033-3.992c-0.033-0.603-0.229-0.951-0.584-1.053
		c-0.182-0.052-0.388-0.076-0.617-0.076c-0.18,0-0.271-0.063-0.271-0.188c0-0.102,0.135-0.148,0.411-0.148
		c0.228,0,0.618,0.008,1.173,0.025c0.553,0.021,0.903,0.029,1.053,0.029c0.127,0,0.444-0.01,0.959-0.029
		c0.514-0.02,0.891-0.025,1.129-0.025c0.24,0,0.36,0.049,0.36,0.148c0,0.125-0.083,0.188-0.248,0.188s-0.348,0.021-0.54,0.059
		c-0.389,0.076-0.6,0.434-0.634,1.07c-0.021,0.43-0.034,1.76-0.034,3.992v3.313c0,2.246,0.022,3.619,0.068,4.121
		c0.047,0.554,0.273,0.861,0.686,0.925c0.332,0.049,0.623,0.073,0.873,0.073c0.184,0,0.274,0.052,0.274,0.149
		c0,0.127-0.108,0.188-0.325,0.188c-0.434,0-0.961-0.01-1.583-0.028c-0.624-0.019-0.985-0.026-1.087-0.026
		c-0.104,0-0.427,0.01-0.968,0.026c-0.542,0.021-0.939,0.028-1.19,0.028c-0.229,0-0.343-0.063-0.343-0.188
		c0-0.088,0.126-0.146,0.378-0.168c0.171-0.024,0.342-0.045,0.514-0.058c0.272-0.063,0.438-0.373,0.496-0.932
		C219.006,42.542,219.034,41.173,219.034,38.988z"/>
	<path fill="#4D4D4D" d="M229.051,38.988V31.27l-2.551,0.076c-0.902,0.023-1.457,0.207-1.662,0.545
		c-0.146,0.237-0.246,0.459-0.291,0.659c-0.034,0.149-0.096,0.226-0.188,0.226c-0.102,0-0.152-0.101-0.152-0.301
		c0-0.338,0.119-1.063,0.358-2.164c0.058-0.238,0.127-0.356,0.206-0.356c0.034,0,0.125,0.032,0.273,0.104
		c0.147,0.067,0.303,0.108,0.463,0.121c0.617,0.063,1.188,0.096,1.713,0.096H234c0.446,0,0.842-0.031,1.184-0.096
		c0.342-0.063,0.497-0.095,0.463-0.095c0.091,0,0.137,0.134,0.137,0.396c0,0.125-0.01,0.478-0.025,1.054
		c-0.018,0.577-0.032,0.961-0.043,1.147c-0.012,0.188-0.059,0.282-0.137,0.282c-0.104,0-0.166-0.125-0.188-0.377l-0.02-0.207
		c-0.058-0.666-0.73-1.017-2.021-1.056l-2.157-0.057v7.719c0,2.133,0.028,3.478,0.086,4.027c0.068,0.614,0.29,0.955,0.667,1.018
		c0.331,0.049,0.623,0.074,0.872,0.074c0.186,0,0.277,0.051,0.277,0.149c0,0.127-0.11,0.188-0.327,0.188
		c-0.435,0-0.966-0.01-1.592-0.028c-0.628-0.019-0.994-0.026-1.097-0.026c-0.102,0-0.425,0.01-0.969,0.026
		c-0.541,0.021-0.938,0.028-1.189,0.028c-0.229,0-0.342-0.063-0.342-0.188c0-0.088,0.125-0.146,0.375-0.168
		c0.172-0.024,0.344-0.045,0.514-0.058c0.263-0.063,0.43-0.407,0.498-1.034C229.022,42.445,229.051,41.109,229.051,38.988z"/>
	<path fill="#4D4D4D" d="M240.85,41.116v-1.544c0-0.666-0.133-1.323-0.396-1.977c-0.066-0.152-0.517-0.975-1.344-2.468
		c-0.826-1.491-1.386-2.479-1.67-2.955c-0.423-0.688-0.816-1.147-1.182-1.375c-0.264-0.161-0.504-0.243-0.721-0.243
		c-0.17,0-0.256-0.059-0.256-0.17s0.109-0.169,0.325-0.169c0.08,0,0.407,0.009,0.983,0.026c0.576,0.021,0.968,0.029,1.174,0.029
		c0.09,0,0.348-0.01,0.771-0.029c0.42-0.02,0.775-0.026,1.061-0.026c0.172,0,0.258,0.058,0.258,0.169
		c0,0.075-0.126,0.145-0.377,0.206c-0.16,0.039-0.24,0.149-0.24,0.341c0,0.112,0.066,0.325,0.204,0.641
		c0.046,0.111,1.017,1.988,2.912,5.628c0.776-1.531,1.633-3.257,2.567-5.177c0.16-0.389,0.24-0.715,0.24-0.979
		c0-0.252-0.111-0.406-0.334-0.461c-0.224-0.059-0.332-0.123-0.332-0.199c0-0.109,0.096-0.168,0.289-0.168
		c0.194,0,0.471,0.008,0.832,0.026c0.357,0.021,0.617,0.028,0.776,0.028c0.127,0,0.438-0.01,0.935-0.028
		c0.495-0.021,0.797-0.026,0.898-0.026c0.204,0,0.309,0.049,0.309,0.149c0,0.125-0.113,0.188-0.334,0.188
		c-0.224,0-0.469,0.075-0.736,0.227c-0.269,0.15-0.58,0.457-0.936,0.923c-0.271,0.362-0.847,1.351-1.719,2.955
		c-0.874,1.606-1.391,2.616-1.551,3.03c-0.172,0.451-0.258,1.078-0.258,1.883v1.544c0,1.104,0.028,1.817,0.086,2.146
		c0.069,0.465,0.291,0.723,0.668,0.772c0.33,0.049,0.617,0.073,0.855,0.073c0.184,0,0.273,0.052,0.273,0.149
		c0,0.127-0.118,0.188-0.359,0.188c-0.41,0-0.925-0.01-1.541-0.028c-0.617-0.019-0.977-0.026-1.079-0.026
		c-0.126,0-0.457,0.01-0.993,0.026c-0.537,0.021-0.918,0.028-1.146,0.028c-0.252,0-0.376-0.063-0.376-0.188
		c0-0.073,0.124-0.131,0.376-0.168c0.157-0.024,0.325-0.045,0.496-0.058c0.319-0.076,0.497-0.422,0.53-1.035
		C240.833,42.458,240.85,41.831,240.85,41.116z"/>
</g>
<g>
	<path fill="#FFFFFF" d="M-3.101,24.998C-3.101,38.783,8.113,50,21.897,50c13.79,0,25.005-11.217,25.005-25.002
		C46.902,11.211,35.687,0,21.897,0C8.113,0-3.101,11.211-3.101,24.998z"/>
	<path fill="#003378" d="M-2.36,24.996c0-13.378,10.888-24.26,24.26-24.26c13.383,0,24.264,10.881,24.264,24.259
		c0,13.382-10.881,24.269-24.264,24.269C8.525,49.264-2.36,38.377-2.36,24.996z"/>
	<path fill="#FFFFFF" d="M21.898,42.682c-9.762,0-17.679-7.916-17.679-17.68c0-9.769,7.917-17.683,17.679-17.683
		c9.767,0,17.685,7.915,17.685,17.683C39.583,34.766,31.665,42.682,21.898,42.682z"/>
	<g>
		<path fill="#FFFFFF" d="M1.451,30.74c0,0.377,0.303,0.686,0.68,0.686c0.377,0,0.682-0.309,0.682-0.686
			c0-0.375-0.305-0.68-0.682-0.68C1.753,30.061,1.451,30.365,1.451,30.74z"/>
		<circle fill="#FFFFFF" cx="41.913" cy="30.837" r="0.69"/>
	</g>
	<g>
		<g>
			<path fill="#FFFFFF" d="M2.422,16.86c-0.478-0.151-0.931-0.13-1.311,0.072c-0.418,0.217-0.737,0.63-0.912,1.189
				c-0.169,0.546-0.146,1.059,0.074,1.483c0.217,0.417,0.611,0.74,1.081,0.89c0.837,0.265,1.911-0.011,2.295-1.233
				c0.167-0.528,0.138-1.039-0.089-1.479C3.334,17.353,2.932,17.022,2.422,16.86z M3.425,18.988
				c-0.243,0.767-1.063,1.092-1.991,0.798c-1.151-0.364-1.116-1.066-0.996-1.453c0.102-0.305,0.3-0.549,0.587-0.696
				c0.367-0.19,0.845-0.208,1.343-0.05c0.511,0.16,0.846,0.399,1.003,0.701C3.521,18.578,3.468,18.853,3.425,18.988z"/>
		</g>
		<path fill="#FFFFFF" d="M7.227,12.427l-0.634-0.604l0.126-0.13c0,0,0.214,0.15,0.288,0.188c0.345,0.178,0.606-0.016,0.73-0.144
			c0.256-0.269,0.216-0.581,0.05-0.742c-0.159-0.149-0.356-0.236-0.8-0.169l-0.264,0.039c-0.607,0.09-0.989,0.009-1.278-0.268
			C5.061,10.231,5.1,9.651,5.547,9.184c0.376-0.393,0.589-0.421,0.589-0.421l0.545,0.524L6.547,9.428c0,0-0.13-0.169-0.359-0.191
			c-0.113-0.012-0.285-0.003-0.47,0.191c-0.21,0.22-0.224,0.479-0.036,0.658c0.128,0.121,0.282,0.17,0.771,0.092
			c0,0,0.155-0.025,0.157-0.026C7.313,10.047,7.677,10.119,8,10.425c0.145,0.138,0.375,0.439,0.287,0.894
			c-0.045,0.237-0.167,0.458-0.374,0.671C7.723,12.188,7.421,12.422,7.227,12.427z"/>
		<path fill="#FFFFFF" d="M37.205,13.238l0.722-0.497l0.102,0.152c0,0-0.191,0.177-0.244,0.242
			c-0.246,0.301-0.112,0.595-0.011,0.744c0.208,0.306,0.523,0.333,0.714,0.202c0.182-0.124,0.306-0.296,0.333-0.747l0.017-0.264
			c0.039-0.613,0.198-0.971,0.529-1.197c0.438-0.3,0.996-0.141,1.361,0.394c0.306,0.45,0.29,0.663,0.29,0.663l-0.628,0.427
			l-0.11-0.163c0,0,0.191-0.091,0.263-0.313c0.034-0.107,0.063-0.276-0.089-0.499c-0.172-0.25-0.422-0.317-0.634-0.172
			c-0.148,0.101-0.229,0.243-0.254,0.736l-0.007,0.16c-0.042,0.711-0.188,1.051-0.555,1.302c-0.165,0.112-0.506,0.275-0.935,0.096
			c-0.222-0.093-0.411-0.259-0.579-0.507C37.335,13.774,37.167,13.431,37.205,13.238z"/>
		<path fill="#FFFFFF" d="M9.886,7.854c0.187-0.139,0.237-0.08,0.382,0.113l0.131-0.098L9.832,7.107L9.7,7.207
			C9.845,7.4,9.887,7.466,9.701,7.604L9.16,8.007L8.456,7.066c0,0,0.422-0.315,0.532-0.397c0.249-0.187,0.36-0.059,0.501,0.132
			l0.132-0.099L9.189,6.127L7.375,7.483l0.098,0.131c0.122-0.091,0.35-0.289,0.545-0.028c0.197,0.264,1.516,2.026,1.516,2.026
			c0.225,0.302,0.112,0.353-0.102,0.511l0.108,0.141l1.853-1.384l-0.471-0.625L10.79,8.354c0.205,0.277,0.168,0.456-0.021,0.598
			c-0.125,0.094-0.581,0.435-0.581,0.435l-0.84-1.126c0,0,0-0.002-0.002-0.003L9.886,7.854z"/>
		<path fill="#FFFFFF" d="M34.007,8.045c0.192,0.129,0.154,0.195,0.017,0.397l0.138,0.093l0.529-0.791l-0.137-0.091
			c-0.135,0.201-0.183,0.263-0.375,0.134l-0.56-0.377l0.655-0.979c0,0,0.438,0.292,0.552,0.369C35.083,6.976,35,7.124,34.868,7.318
			l0.134,0.092l0.4-0.598l-1.881-1.259L33.43,5.688c0.126,0.085,0.388,0.234,0.206,0.506c-0.182,0.272-1.406,2.102-1.406,2.102
			c-0.209,0.313-0.293,0.224-0.515,0.076L31.617,8.52l1.922,1.288l0.432-0.65l-0.137-0.095c-0.192,0.287-0.374,0.312-0.569,0.181
			c-0.129-0.087-0.603-0.404-0.603-0.404l0.783-1.167c0,0,0-0.003,0.001-0.003L34.007,8.045z"/>
		<path fill="#FFFFFF" d="M11.839,5.116c-0.102-0.201-0.008-0.259,0.24-0.385l-0.076-0.146L10.725,5.24L10.8,5.386
			c0,0,0.326-0.23,0.46,0.028c0.065,0.129,1.244,2.427,1.244,2.427c0.104,0.202,0.002,0.262-0.245,0.388l0.075,0.146l1.378-0.708
			L13.64,7.522c-0.207,0.107-0.432,0.258-0.552,0.018C12.964,7.303,11.839,5.116,11.839,5.116z"/>
		<path fill="#FFFFFF" d="M19.249,4.264l-0.282-1.402c-0.042-0.223,0.063-0.249,0.336-0.305L19.27,2.396l-1.226,0.247l0.032,0.158
			c0,0,0.377-0.136,0.434,0.153c0.012,0.057,0.298,1.482,0.298,1.482c0.096,0.474,0.153,0.857-0.032,1.137
			c-0.167,0.251-0.439,0.33-0.548,0.352c-0.161,0.03-0.354,0.048-0.574-0.069c-0.202-0.107-0.411-0.305-0.553-1.009l-0.312-1.549
			c-0.043-0.221,0.062-0.25,0.338-0.305l-0.033-0.161l-1.409,0.283l0.031,0.159c0,0,0.377-0.133,0.435,0.153
			c0.013,0.064,0.316,1.575,0.316,1.575c0.114,0.577,0.321,0.934,0.651,1.13c0.416,0.248,0.884,0.153,1.082,0.115
			c0.266-0.054,0.604-0.161,0.887-0.522C19.402,5.317,19.353,4.783,19.249,4.264z"/>
		<path fill="#FFFFFF" d="M27.416,3.397c0.05-0.222,0.158-0.204,0.43-0.141l0.038-0.16l-1.402-0.325l-0.034,0.16
			c0,0,0.396,0.032,0.332,0.318c-0.033,0.141-0.615,2.657-0.615,2.657c-0.052,0.221-0.167,0.201-0.438,0.138l-0.037,0.16l1.512,0.35
			l0.036-0.157c-0.228-0.052-0.494-0.082-0.435-0.343C26.86,5.793,27.416,3.397,27.416,3.397z"/>
		<path fill="#FFFFFF" d="M42.076,15.556c0.204-0.1,0.256-0.007,0.38,0.244l0.147-0.072l-0.635-1.29l-0.145,0.071
			c0,0,0.227,0.328-0.039,0.458c-0.129,0.064-2.445,1.204-2.445,1.204c-0.205,0.098-0.261-0.003-0.384-0.254l-0.147,0.074
			l0.684,1.391l0.146-0.072c-0.103-0.208-0.25-0.434-0.01-0.551C39.868,16.639,42.076,15.556,42.076,15.556z"/>
		<path fill="#FFFFFF" d="M43.25,17.216l-0.717,0.104l0.051,0.18c0.238-0.035,0.41-0.05,0.5,0.251
			c0.016,0.056,0.049,0.165,0.195,0.663c-0.401,0.12-2.699,0.799-2.699,0.799c-0.217,0.064-0.255-0.047-0.334-0.314l-0.158,0.046
			l0.44,1.488l0.154-0.044c-0.064-0.224-0.172-0.472,0.083-0.548c0.237-0.07,2.352-0.695,2.7-0.797
			c0.148,0.497,0.181,0.607,0.197,0.662c0.088,0.3-0.064,0.382-0.283,0.481l0.055,0.181l0.659-0.301L43.25,17.216z"/>
		<path fill="#FFFFFF" d="M38.323,9.627c-0.061-0.31-0.271-0.552-0.472-0.749l-0.964-0.956l-0.113,0.118
			c0,0,0.321,0.235,0.116,0.444c-0.103,0.104-1.918,1.938-1.918,1.938c-0.16,0.161-0.247,0.083-0.445-0.113l-0.114,0.119
			l1.102,1.087l0.112-0.112c-0.165-0.164-0.377-0.33-0.189-0.521l0.729-0.735l0.294,0.292l-0.127,0.787
			c-0.069,0.451-0.092,0.721-0.025,0.933c0.042,0.139,0.114,0.241,0.293,0.421l0.332,0.328L37.04,12.8l-0.078-0.095
			c-0.041-0.061-0.142-0.211-0.138-0.562c0.006-0.337,0.054-0.76,0.11-1.296c0,0,0.02-0.172,0.026-0.22
			c0.531,0.047,0.875-0.047,1.141-0.315C38.339,10.069,38.349,9.76,38.323,9.627z M37.505,10.049
			c-0.288,0.291-0.527,0.306-0.644,0.287c-0.091-0.013-0.141-0.039-0.266-0.162l-0.23-0.229l1.069-1.081l0.157,0.154
			C37.769,9.192,37.952,9.601,37.505,10.049z"/>
		<g>
			<path fill="#FFFFFF" d="M1.62,22.722c-0.147-0.014-0.282-0.025-0.433-0.104c-0.179-0.096-1.182-0.823-1.351-0.991
				c-0.113-0.108-0.157-0.158-0.191-0.247c-0.028-0.07-0.037-0.139-0.032-0.187c0.004-0.044,0.01-0.126,0.01-0.126l-0.162-0.016
				l-0.107,1.154l0.168,0.017c0,0,0.009-0.088,0.011-0.121c0.002-0.033,0.038-0.059,0.08-0.054c0.058,0.004,0.128,0.032,0.212,0.08
				c0.066,0.037,1.115,0.751,1.115,0.751s-1.236,0.573-1.351,0.613c-0.025,0.011-0.105,0.042-0.141,0.038
				c-0.017-0.001-0.036-0.013-0.038-0.035c0-0.001-0.005-0.024-0.005-0.024c-0.003-0.03,0.005-0.106,0.005-0.106l-0.16-0.017
				l-0.117,1.305l0.159,0.013c0,0,0.011-0.18,0.084-0.286c0.057-0.084,0.184-0.182,0.345-0.27c0.254-0.14,1.301-0.652,1.37-0.674
				c0.137-0.048,0.234-0.08,0.47-0.059c0,0,0.469,0.043,0.762,0.071c0.292,0.024,0.285,0.186,0.265,0.41l0.152,0.016l0.14-1.536
				l-0.148-0.014c-0.022,0.256-0.022,0.499-0.359,0.467C2.032,22.758,1.62,22.722,1.62,22.722z"/>
		</g>
		<g>
			<path fill="#FFFFFF" d="M42.214,23.438c0.144-0.014,0.281-0.028,0.442,0.022c0.194,0.059,1.315,0.583,1.514,0.716
				c0.131,0.087,0.184,0.126,0.234,0.209c0.042,0.062,0.063,0.128,0.066,0.178c0.004,0.042,0.012,0.125,0.012,0.125l0.164-0.016
				l-0.111-1.153l-0.168,0.016c0,0,0.009,0.087,0.012,0.119c0.003,0.032-0.025,0.066-0.066,0.069
				c-0.058,0.006-0.132-0.008-0.225-0.037c-0.072-0.027-1.237-0.529-1.237-0.529s1.106-0.796,1.21-0.856
				c0.024-0.015,0.098-0.06,0.134-0.063c0.015-0.003,0.035,0.006,0.043,0.027c0.001,0,0.009,0.022,0.009,0.022
				c0.01,0.029,0.016,0.106,0.016,0.106l0.16-0.018l-0.129-1.301l-0.16,0.017c0,0,0.023,0.18-0.028,0.298
				c-0.041,0.092-0.146,0.211-0.286,0.329c-0.225,0.184-1.156,0.885-1.22,0.92c-0.126,0.071-0.216,0.122-0.45,0.145
				c0,0-0.468,0.046-0.759,0.074c-0.293,0.03-0.317-0.129-0.339-0.354l-0.154,0.016l0.153,1.534l0.146-0.015
				c-0.025-0.257-0.07-0.494,0.269-0.526C41.799,23.479,42.214,23.438,42.214,23.438z"/>
		</g>
		<g>
			<path fill="#FFFFFF" d="M6.336,13.691l-0.123,0.2l-3.379,0.761l1.651,1.021c0.351,0.215,0.469-0.057,0.589-0.251l0.142,0.086
				l-0.684,1.107L4.39,16.528c0.108-0.175,0.237-0.343-0.095-0.548c-0.333-0.205-2.541-1.568-2.541-1.568l0.115-0.186
				c0.577-0.128,3.338-0.733,3.427-0.753c0,0-1.408-0.87-1.715-1.059c-0.304-0.188-0.438,0.062-0.531,0.213l-0.14-0.086l0.631-1.022
				l0.142,0.088c-0.101,0.162-0.215,0.313,0.089,0.5C4.077,12.295,6.336,13.691,6.336,13.691z"/>
		</g>
		<g>
			<path fill="#FFFFFF" d="M24.144,5.965L23.91,5.954l-2.27-2.618l-0.118,1.936c-0.024,0.412,0.27,0.387,0.501,0.401l-0.011,0.166
				L20.71,5.761l0.01-0.169c0.206,0.014,0.415,0.048,0.438-0.342c0.023-0.392,0.181-2.98,0.181-2.98l0.218,0.015
				c0.386,0.447,2.225,2.592,2.283,2.662c0,0,0.103-1.652,0.122-2.009c0.022-0.357-0.26-0.359-0.437-0.37l0.009-0.164l1.197,0.073
				l-0.01,0.168c-0.19-0.012-0.376-0.042-0.398,0.314C24.306,3.315,24.144,5.965,24.144,5.965z"/>
		</g>
		<path fill="#FFFFFF" d="M32.534,5.088l0.041-0.164l-1.05-0.459L31.458,4.62l0.123,0.053c0.041,0.018,0.071,0.052,0.063,0.09
			c-0.014,0.058-0.072,0.13-0.131,0.2l-0.977,0.984c0,0-0.556,0.552-0.632,0.628c0.004-0.091,0.064-1.35,0.093-1.897l0.026-0.483
			c0.005-0.025,0-0.093,0.032-0.125c0.01-0.014,0.051-0.036,0.112-0.012l0.124,0.054l0.064-0.153l-1.222-0.532l-0.063,0.146
			c0,0,0.168,0.068,0.23,0.165c0.047,0.074,0.07,0.213,0.063,0.375l-0.053,3.275l0.137,0.061l1.859-1.713l0.667-0.605
			c0,0,0.221-0.192,0.442-0.092L32.534,5.088z"/>
	</g>
	<g>
		<g>
			<path fill="#FFFFFF" d="M23.046,44.061c0,0.041,0,1.076,0,1.076H22.76c0,0,0-1.035,0-1.076c-0.039,0-0.689,0-0.729,0
				c0,0.023,0,0.064,0,0.088l0,0c0.071,0,0.142,0.125,0.142,0.256c0,0,0,1.289,0,2.32c-0.356,0-1.51,0-1.51,0v-2.076
				c0,0,0.963,0,1.003,0c0-0.037,0-0.453,0-0.486c-0.04,0-1.735,0-1.775,0c0,0.021,0,0.063,0,0.086l0,0
				c0.072,0,0.145,0.12,0.145,0.256c0,0,0,2.672,0,2.715c0.036,0,1.703,0,2.138,0c0,0.443,0,0.765,0,0.774c0.039,0,0.548,0,0.586,0
				c0-0.04,0-2.366,0-2.366h0.287c0,0,0,2.326,0,2.366c0.038,0,0.589,0,0.629,0c0-0.04,0-3.892,0-3.933l0,0
				C23.675,44.061,23.087,44.061,23.046,44.061z"/>
		</g>
		<g>
			<path fill="#FFFFFF" d="M40.042,38.129c-0.504-0.418-2.394-1.985-2.419-2.008h-0.001c0,0-1.947,2.346-1.975,2.381
				c0.028,0.021,0.348,0.287,0.376,0.313c0.026-0.035,1.573-1.896,1.573-1.896s1.586,1.314,2.042,1.693
				c-0.171,0.209-0.307,0.373-0.307,0.373s-1.035-0.854-1.065-0.885c-0.025,0.035-0.36,0.438-0.384,0.465
				c0.031,0.027,1.064,0.884,1.064,0.884l-0.207,0.247c0,0-1.032-0.854-1.064-0.883c-0.024,0.031-0.421,0.511-0.447,0.541
				c0.019,0.016,0.046,0.041,0.065,0.057h0.002c0.045-0.061,0.187-0.029,0.288,0.053l0.799,0.662c0,0-0.423,0.519-0.451,0.545
				c0.03,0.021,0.35,0.289,0.379,0.313c0.025-0.031,2.326-2.803,2.354-2.836c-0.031-0.021-0.351-0.287-0.379-0.313
				C40.277,37.846,40.176,37.969,40.042,38.129z"/>
		</g>
		<g>
			<path fill="#FFFFFF" d="M14.457,42.58c-0.018,0.041-1.625,3.535-1.644,3.574c0.036,0.016,0.537,0.248,0.574,0.262
				c0.015-0.039,1.624-3.533,1.645-3.57h-0.004C15.027,42.844,14.496,42.596,14.457,42.58z"/>
			<path fill="#FFFFFF" d="M13.585,42.18c-0.012,0.021-0.027,0.057-0.039,0.08h0.001c0.067,0.031,0.077,0.172,0.022,0.293
				l-0.306,0.662c0,0-0.562-0.258-0.599-0.273c-0.018,0.033-0.188,0.41-0.205,0.445c0.037,0.016,0.599,0.275,0.599,0.275
				s-0.972,2.108-0.989,2.147c0.035,0.016,0.473,0.221,0.507,0.231c0.017-0.039,1.625-3.537,1.643-3.572l-0.001-0.002
				C14.22,42.471,13.623,42.195,13.585,42.18z"/>
			<path fill="#FFFFFF" d="M11.941,43.279l-0.019-0.039l0.014-0.012c0.438-0.332,0.764-0.74,0.994-1.24l0,0
				c-0.035-0.018-0.793-0.365-0.828-0.383c-0.009,0.02-0.027,0.059-0.037,0.078l0,0c0.009,0.008,0.163,0.127,0.029,0.416v0.002
				c-0.008,0.018-0.454,0.984-1.785,1.424c0.016,0.037,0.138,0.346,0.148,0.375h0.001c0.005,0,0.446-0.053,1.048-0.396l0.021-0.01
				l0.01,0.021c0.089,0.186,0.226,0.465,0.354,1.184c0.055-0.031,0.491-0.279,0.517-0.293
				C12.337,44.107,12.172,43.707,11.941,43.279z"/>
		</g>
		<g>
			<path fill="#FFFFFF" d="M30.036,45.654c0.038-0.021,2.376-1.139,2.376-1.139s0.349,0.727,0.365,0.764
				c0.037-0.018,0.533-0.258,0.569-0.273c-0.018-0.035-0.561-1.17-0.58-1.207c-0.04,0.021-2.904,1.396-2.945,1.412
				C29.837,45.246,30.018,45.621,30.036,45.654z"/>
			<path fill="#FFFFFF" d="M31.645,41.461c-0.036,0.021-0.662,0.316-0.697,0.338c0.01,0.021,0.027,0.054,0.039,0.078v-0.002
				c0.066-0.033,0.183,0.051,0.238,0.17c0,0,0.813,1.687,0.831,1.726c0.033-0.019,0.532-0.257,0.565-0.272
				c-0.018-0.035-0.31-0.646-0.31-0.646s0.523-0.25,0.561-0.269c-0.017-0.037-0.175-0.367-0.192-0.399
				c-0.037,0.019-0.557,0.271-0.557,0.271S31.663,41.5,31.645,41.461z"/>
			<path fill="#FFFFFF" d="M29.059,44.174c0.235,0.49,0.88,0.674,1.438,0.406c0.557-0.271,0.815-0.886,0.582-1.38
				c-0.12-0.245-0.347-0.418-0.612-0.485c0.245-0.117,0.414-0.199,0.422-0.207c-0.017-0.033-0.193-0.406-0.209-0.441
				c-0.039,0.021-0.796,0.384-0.796,0.384s-0.128-0.267-0.145-0.302l0,0c0,0-0.661,0.316-0.697,0.334
				c0.01,0.023,0.027,0.059,0.038,0.08v-0.002c0.057-0.023,0.157,0.037,0.219,0.145l0.013,0.021c0,0-0.811,0.387-0.849,0.407
				c0.017,0.031,0.195,0.404,0.212,0.438c0.011-0.004,0.164-0.075,0.385-0.185C28.947,43.641,28.938,43.922,29.059,44.174z
				 M30.315,44.205c-0.272,0.131-0.608,0.006-0.745-0.279c-0.137-0.28-0.024-0.619,0.25-0.754c0.273-0.131,0.608-0.006,0.744,0.277
				C30.699,43.734,30.588,44.074,30.315,44.205z"/>
		</g>
		<g>
			<path fill="#FFFFFF" d="M4.896,38.404L4.896,38.404c0,0-0.481-0.555-0.509-0.584c-0.017,0.014-0.048,0.041-0.064,0.059h0.001
				c0.047,0.058-0.001,0.188-0.1,0.273c0,0-0.674,0.586-0.702,0.613c0.027,0.029,1.951,2.236,1.979,2.271
				c0.03-0.027,0.342-0.303,0.371-0.322c-0.029-0.033-1.564-1.795-1.564-1.795S4.865,38.43,4.896,38.404z"/>
			<path fill="#FFFFFF" d="M6.091,38.541c0.181,0.207,0.531,0.611,0.531,0.611s-0.738,0.645-0.771,0.672
				c0.026,0.031,0.392,0.447,0.415,0.475c0.033-0.022,2.108-1.84,2.139-1.864c-0.024-0.031-0.48-0.556-0.508-0.584
				c-0.018,0.019-0.049,0.04-0.065,0.062l0,0c0.048,0.055,0,0.188-0.102,0.274l-0.111,0.101c0,0-0.477-0.543-0.583-0.666
				c0.033-0.316-0.068-0.656-0.304-0.931c-0.429-0.487-1.145-0.565-1.597-0.175c-0.451,0.396-0.471,1.113-0.042,1.605
				C5.359,38.422,5.737,38.57,6.091,38.541z M7.25,38.605l-0.257,0.223c0,0-0.219-0.25-0.4-0.459
				c0.034-0.021,0.067-0.047,0.098-0.076c0.058-0.049,0.105-0.1,0.148-0.16C7.017,38.34,7.25,38.605,7.25,38.605z M5.529,36.961
				c0.264-0.229,0.646-0.219,0.86,0.023c0.211,0.244,0.171,0.631-0.093,0.854c-0.262,0.229-0.649,0.221-0.86-0.021
				S5.268,37.191,5.529,36.961z"/>
		</g>
	</g>
</g>
<g>
	<path fill="#003378" d="M22.268,15.968c-1.436,0-2.601,1.164-2.601,2.597c0,1.435,1.165,2.598,2.601,2.598
		c1.434,0,2.6-1.163,2.6-2.598C24.868,17.132,23.702,15.968,22.268,15.968z"/>
	<path fill="#003378" d="M15.993,37.213c1.628,1.416,3.681,2.767,6.277,3.963c2.599-1.196,4.651-2.547,6.279-3.965l-6.277-6.291
		L15.993,37.213z"/>
	<path fill="#003378" d="M35.049,22.237v-8.672c0,0-7.395,0.237-12.779-3.903c-5.383,4.14-12.777,3.903-12.777,3.903v8.673
		c0,0-0.049,1.861,0.274,3.898C13.815,25.393,17.992,25,22.271,25c4.279,0,8.458,0.393,12.504,1.137
		C35.099,24.099,35.049,22.237,35.049,22.237z M22.269,23.637c-2.806,0-5.08-2.27-5.08-5.074c0-2.8,2.273-5.071,5.08-5.071
		c2.81,0,5.083,2.271,5.083,5.071C27.352,21.367,25.08,23.637,22.269,23.637z"/>
	<path fill="#003378" d="M9.897,26.862c0.055,0.271,0.116,0.541,0.188,0.808c0.6,2.291,1.672,4.938,3.861,7.487l8.323-8.338
		l8.323,8.338c2.188-2.553,3.263-5.196,3.861-7.487c0.071-0.267,0.133-0.535,0.188-0.808c-4.005-0.735-8.141-1.123-12.373-1.123
		C18.038,25.739,13.904,26.127,9.897,26.862z"/>
</g>
<g>
	<path fill="#FFFFFF" d="M13.594,20.597h1.196c0.041,0,0.074-0.033,0.074-0.076v-2.453c0-0.042-0.033-0.074-0.074-0.074h-0.97
		c-0.166,0-0.302,0.134-0.302,0.3v2.227C13.519,20.564,13.553,20.597,13.594,20.597z"/>
	<path fill="#FFFFFF" d="M11.938,20.597h1.195c0.042,0,0.074-0.033,0.074-0.076v-2.227c0-0.166-0.134-0.3-0.3-0.3h-0.97
		c-0.041,0-0.073,0.033-0.073,0.074v2.453C11.866,20.564,11.896,20.597,11.938,20.597z"/>
	<path fill="#FFFFFF" d="M15.42,18.421h-0.253v2.435h-1.512l-0.002,0.025c-0.014,0.148-0.141,0.265-0.29,0.265
		c-0.148,0-0.276-0.116-0.288-0.265l-0.003-0.025H11.56v-2.435h-0.253c-0.041,0-0.074,0.033-0.074,0.073v2.583
		c0,0.04,0.033,0.074,0.074,0.074h1.517c0.104,0.192,0.308,0.323,0.541,0.323c0.232,0,0.438-0.131,0.542-0.323h1.516
		c0.041,0,0.074-0.034,0.074-0.074v-2.583C15.497,18.456,15.461,18.421,15.42,18.421z"/>
</g>
<g>
	<path fill="#FFFFFF" d="M31.542,20.327h-0.987c-0.053,0-0.092,0.038-0.085,0.087l0.322,2.063c0.012,0.083,0.083,0.152,0.172,0.152
		h0.167c0.09,0,0.16-0.069,0.171-0.152l0.323-2.063C31.634,20.364,31.596,20.327,31.542,20.327z"/>
	<path fill="#FFFFFF" d="M31.685,19.422c0.257-0.223,0.847-0.872,0.783-1.237c-0.067-0.396-1.17-0.962-1.232-1.394
		c-0.035-0.193,0.04-0.46,0.144-0.67c0.014-0.04-0.025-0.047-0.067-0.015c-0.02,0.016-0.919,0.688-0.926,1.152
		c-0.002,0.184,0.126,0.387,0.349,0.57c0.18,0.149,0.415,0.284,0.598,0.466c0.087,0.084,0.159,0.16,0.204,0.293
		c0.089,0.249-0.163,0.646-0.32,0.835H30.86c0.146-0.175,0.303-0.407,0.361-0.635c0.146-0.556-1.242-0.695-1.035-1.534l0,0
		c0.012-0.031-0.023-0.043-0.057-0.018c-0.015,0.011-0.55,0.53-0.554,0.893c-0.004,0.313,0.634,0.604,0.933,1.026
		c0.052,0.09,0.039,0.183-0.001,0.269h-0.566c0,0-0.134-0.017-0.078,0.111l0.152,0.477c0,0,0.027,0.064,0.12,0.064h1.825
		c0.094,0,0.122-0.064,0.122-0.064l0.158-0.482c0.04-0.116-0.089-0.106-0.089-0.106L31.685,19.422L31.685,19.422z"/>
</g>
<g>
	<path fill="#FFFFFF" d="M19.792,35.813c-0.091,0.065-0.561,0.375-0.575,0.385c-0.03,0.015-0.043,0.041-0.043,0.063
		c0,0.035,0.024,0.063,0.053,0.063l0.046-0.014l0.076-0.033c0.057-0.024,0.176-0.08,0.199-0.08c0.004,0.007,0.006,0.052,0.006,0.052
		v0.328v0.399l-0.009,0.562c-0.009,0.075-0.019,0.09-0.072,0.104l-0.193,0.013c-0.028,0-0.055,0.022-0.055,0.063
		c0,0.025,0.014,0.058,0.078,0.058l0.303-0.004h0.125h0.106l0.31,0.004c0.063,0,0.074-0.026,0.074-0.058
		c0-0.039-0.027-0.063-0.056-0.063l-0.157-0.017c-0.052-0.01-0.066-0.024-0.069-0.102l-0.014-0.562v-0.462l0.014-0.616V35.86
		c0-0.078-0.047-0.084-0.061-0.084L19.792,35.813z"/>
	<path fill="#FFFFFF" d="M20.89,37.267c0-0.242,0.157-0.38,0.261-0.443c0.208,0.121,0.387,0.231,0.387,0.455
		c0,0.205-0.129,0.345-0.318,0.345C21.035,37.623,20.89,37.469,20.89,37.267z M20.631,36.262c0,0.234,0.174,0.373,0.328,0.461
		c-0.268,0.121-0.426,0.324-0.426,0.558l0,0c0,0.328,0.263,0.526,0.665,0.526c0.463,0,0.703-0.293,0.703-0.588
		c0-0.305-0.242-0.463-0.417-0.563c0.111-0.055,0.331-0.195,0.331-0.463c0-0.26-0.222-0.42-0.551-0.42
		C20.801,35.776,20.631,36.067,20.631,36.262z M20.968,36.213c0-0.121,0.068-0.263,0.268-0.263c0.117,0,0.239,0.084,0.239,0.269
		c0,0.193-0.109,0.295-0.208,0.34C21.044,36.428,20.968,36.34,20.968,36.213z"/>
	<path fill="#FFFFFF" d="M22.625,37.267c0-0.242,0.157-0.38,0.258-0.443c0.211,0.121,0.39,0.231,0.39,0.455
		c0,0.205-0.131,0.345-0.318,0.345C22.77,37.623,22.625,37.469,22.625,37.267z M22.368,36.262c0,0.234,0.173,0.373,0.327,0.461
		c-0.267,0.121-0.427,0.324-0.427,0.558c0,0.328,0.265,0.526,0.668,0.526c0.461,0,0.7-0.293,0.7-0.588
		c0-0.305-0.246-0.463-0.418-0.563c0.119-0.055,0.328-0.195,0.328-0.463c0-0.26-0.216-0.42-0.549-0.42
		C22.536,35.776,22.368,36.067,22.368,36.262z M22.701,36.213c0-0.121,0.071-0.263,0.269-0.263c0.119,0,0.24,0.084,0.24,0.269
		c0,0.193-0.11,0.295-0.21,0.34C22.782,36.428,22.701,36.34,22.701,36.213z"/>
	<path fill="#FFFFFF" d="M25.036,35.805l-0.161,0.013H24.26c-0.066,0-0.08,0.039-0.08,0.063l-0.063,0.662
		c0,0.025,0.005,0.076,0.079,0.09c0.168,0.021,0.603,0.166,0.603,0.563c0,0.313-0.205,0.422-0.38,0.422
		c-0.205,0-0.306-0.1-0.306-0.299c0-0.07-0.032-0.078-0.057-0.078c-0.047,0-0.063,0.057-0.064,0.072
		c0,0.004-0.008,0.285-0.008,0.285v0.033c0,0.057,0.002,0.102,0.063,0.133h0.002c0.063,0.025,0.16,0.047,0.253,0.047
		c0.591,0,0.859-0.387,0.859-0.74c0-0.428-0.42-0.652-0.826-0.729c0.005-0.047,0.021-0.194,0.027-0.244c0.055,0,0.426,0,0.426,0
		c0.181,0,0.181,0.056,0.181,0.105c0,0.063,0.05,0.065,0.06,0.065c0.03,0,0.056-0.021,0.06-0.056l0.035-0.328
		c0-0.024,0-0.084-0.06-0.084L25.036,35.805z"/>
</g>
<g>
	<path fill="#FFFFFF" d="M13.948,35.157c0.595,0.695,1.271,1.384,2.045,2.058l6.279-6.293l6.277,6.291
		c0.773-0.672,1.45-1.357,2.045-2.056l-8.322-8.338L13.948,35.157z"/>
	<path fill="#FFFFFF" d="M22.27,25c-4.279,0-8.456,0.392-12.504,1.136c0.039,0.24,0.082,0.484,0.133,0.727
		c4.005-0.732,8.14-1.123,12.371-1.123c4.232,0,8.368,0.389,12.373,1.123c0.05-0.238,0.094-0.482,0.132-0.727
		C30.728,25.392,26.551,25,22.27,25z"/>
	<path fill="#FFFFFF" d="M27.352,18.564c0-2.8-2.272-5.071-5.083-5.071c-2.806,0-5.08,2.271-5.08,5.071
		c0,2.804,2.273,5.074,5.08,5.074C25.08,23.637,27.352,21.367,27.352,18.564z M22.268,21.165c-1.436,0-2.601-1.163-2.601-2.598
		c0-1.433,1.165-2.597,2.601-2.597c1.434,0,2.6,1.164,2.6,2.597C24.868,20.001,23.702,21.165,22.268,21.165z"/>
</g>
</svg>
